<mxfile host="65bd71144e">
    <diagram id="tfxydc50xfFyagfgN68r" name="Page-1">
        <mxGraphModel dx="1274" dy="1640" grid="1" gridSize="10" guides="1" tooltips="1" connect="1" arrows="1" fold="1" page="1" pageScale="1" pageWidth="1169" pageHeight="827" math="0" shadow="0">
            <root>
                <mxCell id="0"/>
                <mxCell id="1" parent="0"/>
                <mxCell id="2" value="" style="shape=image;verticalLabelPosition=bottom;labelBackgroundColor=#ffffff;verticalAlign=top;aspect=fixed;imageAspect=0;image=data:image/jpeg,/9j/4AAQSkZJRgABAQAAAQABAAD/2wBDAAgGBgcGBQgHBwcJCQgKDBQNDAsLDBkSEw8UHRofHh0aHBwgJC4nICIsIxwcKDcpLDAxNDQ0Hyc5PTgyPC4zNDL/2wBDAQkJCQwLDBgNDRgyIRwhMjIyMjIyMjIyMjIyMjIyMjIyMjIyMjIyMjIyMjIyMjIyMjIyMjIyMjIyMjIyMjIyMjL/wgARCASwBkADASIAAhEBAxEB/8QAGgABAQEBAQEBAAAAAAAAAAAAAAECAwQFBv/EABcBAQEBAQAAAAAAAAAAAAAAAAABAgP/2gAMAwEAAhADEAAAAvCszQQAUiiVRZpWpoVRVFWCiKqKI1CKMtDDQysMtDE3EysJKMzUJKJNQiiKJVJbozq1c5uSBIsIoi0k0ItMtFiiVSKJNQijLUSKJVJaItMtCKWKMqIsEsASAiiKJQAAAiwiwSiKIoiiUAAIsEoksIBASygEoAAAAFAKlFlKItlLYLYNIKlALEUEhAQJTtjUXK1MtUw3kigUalW6zoabJbYlaM60MzcMNCFIsItMNDKypKMzUMNDDUTLQw1CSwiiLTOtaJbFYQksEoi1ItXLQi0y1CKBSKIoyohSKMrUi0i0zbVy1CKIoyok1CSiSiSkiwFIoihKEokoiwiiAAAFIoiwEAJLBLCAgoACAssKABYKBZRZRZYWUtgtzS2CpQAhREEBADrcltzTUQ1kIoVRZouli2aFtG8DbNEoiiKIoQJKJKJNKzNQksJnUMrBLUzNQy0M7u1luBiwyEhSKCiVViiKIoigoiwSiTQy1CKSVVKBQABKJNQijLUMtQysIsIpIAApQIoiwixIogIolAAACAgJLBLCLCLKAASgAABYKAUWCiLYLZRYLYKlCCoEBAQEDuVYpJVWLABqUtlNam4aCrSWiKI0IsEoiiVTLUJLCTUMyqzNQk1DIIokpJb0WVzhm4suUKlBQVRSUCiKIoAASjLUIsCiAKFlCgUiiLCKIsIoyozNQk1CTUIpIoiliiKIsIsEpIsAJQlCLACAgJKJKJKIKgAgAKAFEoAUBQIoKCpQCoLAICCxAgsD1KWKIoiiKFlLvNN6xuLqaFUl0IoijLQy1TKiLCTQzNDDUMzcMKMyykCTQzrWzMvOGWLGUFlFUFFhbc1KgWFoIoAoAIsIoikilikWVVUiiUIogIsAIsJNQyoyogRKAAEpYoiwk1CKJKSKIACLBLCLCLCLCLBLAKCIoiiUAoAoAWUAoigWCgIAEsBAQAgPapY0MtWMWjLSoUWaNbxuNabJWjNtMqIoSiSiLTNCTQzNQkuRKMzUJKJNQjVplkmHNGUKC2UWUWCgAWUAUUBQWUSiSiFIoiiKAShalAAEoiiAiwSwk1CSiAAAFIogIsIokogIogRLBKJLBKJKJKICLBKIqoogBSAUAgWgFlFlgAAAAQsBAhAQsK915Jet5U6XnTowjSCoq2U305bjrrns3ZqWWqijLRMXUIoiiEIozNDM1CSwmdDF0MzQmXOtc5lJAiiVQoKIolAoFJQKUAUAAiiAAAAFQC2FAsAABLACAiwk1CLCKJQKIoiwiwSiLCKMqIsIokpJKMrCKJKJKIBKIsAAJQAAKAoCiBQAAABLBLBLBLBCkD2JZYtTLQy0IC3JdXnTpriT09fFV9+/n9I918mz03hs6MU0gqUSiTUIsJNQzNZMzUJNUzLBzvGpOkTCQ3MiyjLYy0MtQELc0qUWDSFqUAoKAsEoiiBEpUpJQBalAKgpAACLBKJKICLBKJQFIsAIoyogIokoiwiwiwSxICLBLBKIBKIsIoiwLAUAAFqUFlgAAAAQAQECAksBK9glWCoLYKlFlEojQw2TDQmpTeuZe98w9WvJT2a8Wo9t8Wj2XyaPS4aOklJNDDQzLgmdjj06QzncrOdwxjrlOeeuDDQjWjF3TDRYsJKMzpDE6wxaJQoKg1IKlFlEoijKkiiKAUolABKIsEogIsIokoiwKJQAAiwiiLBKIsIokoysIEksEogIsAIsAIsAAAoWABSKAAAAAEogIsEsIQSykD2FliiUIoAoFlGpous6LqWLrI1Gjnn0U8mfZK8c9eTy3tkxbDWuUT0b82l9WvLo9GeW4t1SAkuREpEEQmNZSJS6zstFoACiKMtQzNjE2MN05ulOLrDm3CEKgtgqEqUFAUok1CKIogIokokogIsABSKIoiiKJKIoijLUJNQksJNQysSLCASwAgAIogEoiiUBSKAAABSUAEogEsICAkspAgPaqCliiKIoloVRqbJq6jN2MtDNoKIoWDTIuN6OGfZTw33Q8nTtTF1CSwksJLCSypLCZ1lM51gA1vG10UAAWCpQILCLKlBZYKqTUIACTQxOkTDQzULcl2lJRBAABKWASiSiTUIoi0iiKIoiwSiKICLCSiZ1CSxJLBLBLBKIACKIACUIoKIolAAAAAAAQAgICSwSyksID3tIi1c3Qy3DDUJbRWhubhrWjLoOd3Tm6Dm2OboOboOd2MXdM6sEACAksJLCTUMyqzNZJnUMY3lM2U1vO1pQAAACiFlJNQhKtlKlAJKICgk1CBAAXM2TF1CsDcmiBRAABAAJQAAAABLACASwgJLCSxJKICLCKICKIogABSUBSKIoiiKM2wSiKIsAIsICAksIspLCKPptM2KC0k1DM1DKhrOq10x0jprPQVVjRM2jLQy1DNtM2wSBAAAgJLCAk1DMsqTWTM1DGOmEwDfTl0NWVQALFIoAqUSyISqUpRKMqM0AEsIElhalFlQFixJnYxpFrOiAhCoSwAWhAAUABAEBCxBIRELJCpCoCCxCoKgAAAUAKAUihKJQSiKJKIsEokokoysJKJKIKij6zrM3m6DDYw3DnOmTE3kliunTj0jt05dTVlKlAABSLhSiTUTLUIsAECSwgEsJLBnUMzWazjpk5TWUu+ejtc6VZQCUAAKCLBLAlNWUKiSqiwASjM1EysVQFQFAgQCTQxplbLo5TeEWUqF1IKEAsAhbISyAkLEEQEEQsQsAAgpCoKAABYKUAoAFACKIsAIoiwk1CTUJLCTUJKJNSoo+7VxqKJNDLQxnrDjj0YrhntzSazTt28/Y7XOloQAUHNVyNXI1IKgAAk1CZ3lMqJKJLBLCZ1DOdSueOmEzQ66xtbZQoiiKJVIoiok1KyotlKIiykoihKJnWSBFlUoiwEAQQqFubTnnphNTWjkok1layTSQ1IKgsQqAgSwSwQJLBLBKIABAAAAqUAFAKUFBSUEoiiKIoijLUJNQk1DKjDUMtQk1CKPuDOrAoAEoksM43izEsL057O/Th1l3ZRVqLxhnEs6OdN3nTbA2xTbBd3FKgsREsCjM3DLYxOkXlnrlOOO2a4ukHTOotlKABZQaI1TM6Q5zeTMqlmgogIAAQkQAtzSoBCwRAICFqE104U9GBebWUmLDNAAQqABLACAiwgICSiAgAEoiqiiUABYAVQUUFUiiKI0IoiiKMtQy1DM0MzUMzUJNQk0MqPvzsxvhO6vO7xOLtk5N5JGaYuUzKpqbjXXHRdWaLWIzy1mzE1CAXMrbCOjmOrmOrnTo5jowN3kO14F7uA7zlTpM2JnWaxnWUijWppRTLQxdRIsALrNNMi5sMyqamgsiTUrIFBnUMNQysBCoSxFqEIBAAQqAAgEEsLAAEKCAAgIsIsIsIoyoiwiiKIoiqiiVSKChVgoVSWiWiLTLQzaIoiiTUJNQzNQzNDE0MqMqJND9GrO8tIy1DLQxnpDy8vbws8+emLItL1dVzrdjOlM3el53pY4Z9I8mfaPBj6ObPnZ9/M8T1crOTUJbTKyiQ0yNMDbA2xDpME3MxdOY6a46PRrhY7uOl6MU1c0rOgtjDasNRJm5Aq6zqLAq6Oee0OTpDE6DnOsOU3msyiSkgWAEQBAAAQAAICKIoiiKIoijLUJNQy1CTUJNDLUJNDKiKIoiiKIoFC0lULQoVSVSKIoi0iiTQyozNQzNQzNQmdQk1CLCKP0gzsESliwijOekjx8vZ5tTnRO/o8frl0tlloVaKAIoiozz64IujlO0OTqOGPVDx492a8GfeT5+fo4rwT280809Ga4zrkxNRMrC2DVzV1cDdwN3A3cI664073hpernuHPtyrIstzTVzYWDeuVOt506OcXrnlk6ckszLCLESwiwAiiSiKIoiiKMtDLQytMtDLQy0MtDLQy0MzQzNDDUMtQijLUIoy0MtQiiFIolUFFUVQUUCiKACgBKJKMrCSwmdQksIsIsAPvXwXOvfr5+z23x7PTOOjpeejUQeb08jyZ3izXo8vU91zuaKKEKIoiiKJjcOe86UqJQk1CZ3DChNQxncDQ547w8nn93m1PNN5sleo8r3Yl8j1YODrlMqqAqDVyN3FNso0iqlLrNKlAIACSxEsWAkoksQACKIoiiKIojQy0M2iTQjQy0MtDLQy0MzUJNQk1DM1CTUIokoiiSiKICKJQFFlFUVRZRQUCiKJVWKIsSTUJLCSwzNQysIsIogO1yNsDreQ7a849OvJV9d8aPbPGO2eVrr14dY93bz+mWlACwFIApJKWAAAkqWTUMwqrIkqiyJNczHD0cbPLjpjUery+qPRLjOulWXM6Djz9SvFz+gT5s+lzrwz18rOTSyUFlBRZUtlUEAgIsIozNQksIsJQKIoiwAKJQKJVIoiiKI0MqIoijKwk1DKwk1CSiSiLBKIoiwiiSiKBRZRVFlLZRVJVJQKItWLCKMzUJLCZ1DM1EksIsIoiju9cPI9MPM9EPO7Q5TrmsTeTMuY3rGjp15dJfZ6/J65dAFASUBCgiiSliiLBKJnWTNlKDNBLFnO5RjcPFz78NR6/H6o9YzrRVLIs0M1SVTLRfG7W58Wffws871cq5XUslBZC3NAQUltWXfSOGfXDx49nA4tSzNUKIoy1CKIoAUCgoiiKE0MtDLUJNDM1DLUXM1DKxJNQijLUIoijLUIoyoyolBQtlLZS2aCgtItWNCKIoy1DM3DE0MTUMNQzNRJNQilik+zfH1mu0tjOew4Z9Fs8mPbD5/H3+OzhNwmpo1059JfX7PJ611ZYllQKASyKlAIFASwAmdZJZQUysGNYMggPN5vX5dTPfz9j6FMa1c6CwpViwVYKMef1eezfPpk7RtfPw93mTyszedSVFaI0JbRvPUvVZotjHH0ZPDj3cbPM6ysNjDcMzejm62OE7c6yEVRbs53oXm6I5ugw6Dm6DnOo5Og5TrDlOsOU6w5zpDm6SsTojm6K5ug5uiObork6DlOsOc6Dm3EzQVS2aFUVRbpc6uzneiObpTk6w5OsOU7Q4ztk5Z7Q4zrDk6Q5zpKw2MNo5c5rWOnfyF+z1+D6s6+peXSWyw4eP1eXWeWdZq6zqNdOfWX1+rzemXQFlsAAsCWWAIFASwEGdZFlIBLkzm5AFzo4eP2+KzHbj2r6Nms6WagsFlJYNFJVJx7cTld8rPR08volvDvyPnztjeM7vQzvv0mvNPTwONLm9uXdd0zaBLCZ3DnjvK889A889MPN1nSJN5OPDrysirGmjXWdZcOlXk6w5ugw6I5ug5ukObpDnOsOU6w4ztk5OsrlOo5OhOboXm6Dm6jk6jk6w5TsOE75OOO/JOSyy2UtUtmhppW3Uzveo5uiXDYxOg5zrDnOg4zrDlntk5TrK5TrDlOo5TqTk6j5/Pc1nGtUyo19X5HSX7WeWs64ebrxsxNSxqaW9uPaPZ35dpdACllQBLIUAIFILASwZsFgAc98ySwAm5Th4/X5NTl349j6Ws6zpZRYhQlmilJYHD0eeyy5XWupOOPRhePP1RPJvrbN7zuax5fV40zZdZ36ePeUJaBKIACUJNDhtozz6+c5Y1NSWaLudTXTOotlUIArnyPS8kPZPN2NzUMrCSwzNQkokok0MqqVYiiKIok1DM1g58OvGyIsupS2aLrOjW89V31m4VZYoiiLCLCTUJnUM53kzNQk1DKiTQij5LLfNZpc6kNM07+35/WXpzSUgtg134eg9vXn1lUCWllQBAUBIsRQAICZsKBLDGbkCllhZTzeX0+bUx34ek92s3OqUWUAm8aLSJQef0eezPfPUKM51FysJZU3ZTn4vX46tmrnv1xuaCKAQAAAAiwx5fR5ayW5mps6dsdpc2lKiLDh8rl5tTveEs9OvJD6V+Z649vt+ZqX6859JcywksIsIsAACgAoiiTWTPLpwOWLnUJU1c6LrOjWs7N9+feXWpZaAABAQEQRCS5EBAQAKD4yN42xsQJrI1rnZe7NlWUWU36PP6V9vTnuNJaWUgSghRKEshLFAEEsJAUJjXMQogupYEPL5+/DWc+ry+uX16zZqgWUXOibzoAoJw7+dOvTl1VRM51FksSazo0Dh5fT5rLrO7PTqXOgFgAACgigZ1k4ebv57Flsu89Dv0zqUFCGdcT85mt5txSVCazs98qPb7PF7ZcSyWSwgBAKWUCKBQAk1g5+ft5znmzUWVLrNNazTfTn1Xt259Y0JaAQsQsgskLGSyQuUCQqQqDTNKlPjrneFUybM2U1CXpc2WgtlN+nzepfZc7jVlpZUigCWUShCVLCWUgEQgLEM5uaQQVdAS5jycO3HWXr8ntl9FlmqgUS2UthaChM+ft5j09OXUsoznWRLkbzosQ8/Dtxs1vG7PTc2aqIoAoAACgZ1iPLx6c7GpbL25dl76llSwlSL5PX8+vkNY1nawk3DG3Q72al9nq83eJLJYCAAgpYKCiKCgmN8zj5u3CsCxZUtlNWaN9uXeXt0xuWgAS5EzyO088PRPPD0Tzw9GfOO7zw9E86u7hI9Dz073zj0Xz08Y3hnUJrIJoXXOXrZZag1c6Onq8vrX16moWKoRZRLBZQCBYCWASJLKCGNYrMsRKG86VLC41iPJy6c9Zvt8Xul66zZaADWoFmglWy4Tx8tZs+h04d5alM46cxmytki5nOuWC5vTno9F5WXpedXpcDbNKlAAKIc+nI8nPedS2VNejh6F62WUIksL8j6nwbPNnedTXTjTrMZO3XydT178m4+t08W5fS5dJagAAiygKBZS2WAM8+nI8/DrxsiLLZotlLrO16ejh6I66mpQAJnWF5cenBJmZs1MQ3nMNzENzCtMQ2wN3mk6OY6uZc1dYAZFW7JjpqWLJVgus6Ons8nrX16zqFlsAFEsFlEBKICBUsJLlKRc41lJKALrNWxC8+nI8vPeLm+7w++a6WWKgoNWUVC2Uce3mMa1KnqxmO6Uzz6cgWri8hi4sxZUtlLc00yOjBeuuNjvee10lALZYnDv5zyw1LrOk36OHpXVllSwSw4fD+/+csuZLLILciGzLVM2i/e+F9uXozZagoAAAKWFlAM8O3A8/LpysllstlLZou8bOvp8/pl3rOpQBCY3zXhw6cUzm5skSkQRCxARLAILYKg1JLnWoXpriLl0Hq9nDOvJnpggLrNOvt8Xsl9es6FiygAAWABLACS5WgmdZRGTKAQpDVzpRSce3FPLz3izfu8Xumt2WFlANXOglLZR5vR5q3nWT08evKO7OjPPeBZa587mxjWUxrOigqUAWC3I314bXvee5dJS2IeX1eM89l1LqVOvo4eiW2VUsEsjn+a+/wDA1EssyolDfs8vsjPbn6lzj14jj0U1rNNXNWgqUAWUFhZRLDHn7+c4c94sllstmi2Vdbx0jt6OPc1ZZQEsM8uvFfPx6crM51ixEJLEhBLBLAAQoKg3NZsayRde9fH9TprOs+X2eU8nPryIC3Ojr6vJ6pfbvn0AsoUEWUgAEsAJnUAMgxjWSAFGdQazpVCcO/nTzY3izp7/AA+6a1ZSyoWUULZSpSeX1eWutvSOGe2qtI5ZqquThLLmY3gzrOigAWCoKBrNN9OOl765dI0lWeP1+KOVl1nWs6O3fj2ltlVKJLI+f8b6ny9ZgqAUO/p4d417vH9GW56Zl5zpK5t5M1C3NNJSpRZRZYWUSw5+X0+U451myWWzVlLZo1059Ze/fl1W0gBLDHDv5jhz3zszmypLkksSAgIBLABYKDp1+yPl+r1WXG1lgsnl9XmPJy68iAazo6enz+iX19ePYosoAFCAAQAJLCWUkuTGbkssGlJnWRvGwCef0eY8+NZs7e7xe2atUAWWFClFlJ5vTzrXTOolC51k5Waq43k881myc+nNGs6AAAAFgoLc06dOG5e956Hh9fiWWaubrOzv25dZVFEhLD4vh9Pm1mSykoLD2dc6jt9HwfRlmdZlksJNQzncrDWS3NNXNLYLZYopNZjh5vR5k5SyllsupS2aXXbl2PR0xvNoAJLFx5fR5k48+nOzMuaksSSwhBLAQAAAoP0YmghYoEeT1eQ8nPfKys6LvG5evr8vsXt0zqKLKFBFlIBKIACSwlCY1zMglaCwmN5G8bFRZ5fV5E4Syz0ezyeuatlAKClhZSgmdStWWJZRLgzZqtY1I4c+/HUzz6ckus6AAAAAKgoLc06XmW+XrxjWs6su87PR0xuWhQiS4PzmY1lKqAG49oPX7/H7M3EsWSiSiSjM3KxN5CDdxU3c6W2VGN4l8/m7+dMQ1FlNWUuppd9+PeO+s6loAJnWTj5vR5jnz3izMsqS5REEsEsEsAAAKD7b51PpT5w+lfm0+lPnD6Xk8/MvJmtXNN9OXSX0e3xe2O9mpViqlQBZSLABLACAhDPPeCAugAzneSbzsilx4/b4bOQT1erz+maUFQoLc00UllICrBrOonPpzJqWrLDHD0edM8unOzVlLLAAAAABYKCxkxiw1rOjW8dD0bxuWhQJx7SPy71+TebL0jkKnXl3j06ztfb6ePbNzLkSwASiAk1KznpkzRNaxTesaLz1zl8/n7cLMims6S6zous6Onp4eiXrrOpQBBjWDh5+3A543iyZ1mpLEksICEAAAAFDpaIAAKSjE2JVL057j0e75/ul9OsWXTNstyNIWpUIKgsAQsQmdchEFmyywAmNQbzoEXPi9vhs5azpPb349pqgWUWUFKlKUgKCUJjWRrOhNZM+fvwTHPpzs1ZQAAAAAAABnWTkg3rOjW8bPTrl0l0lWgksh876Ns/M5/TeKviz6GE8Xr6bM9Me2X0auZZLBLAAAACTUMzcrNEtyNctcV48d80JbLZS6lLvOzr6fP6Zd2WUBLDPPpyPPx68axnWLGbEkQQIQEAIoAAoPc6peU7Di6jk6jlOw4uw4ztDi64J38+z068+jveFO9849Lzj03zD0vND1PKPU8sPW8kPY8Q9ePNK9U8o9evEPa8Q9zwj2Txw9uvBT3vAPZ45hGsD6PT52pfe8Q9zw09t8I918A+hr51Po6+do9uvFs9c4aXsxqMQq6xossOfHpysxjWE3c0oABCwLAAAqBjfMxZTWs6LvGjt049JemsaLYVLBZS2InPqPPPTDl1QkQSwEAAAAoAok0TE3k58O/nOGbkWWy6zotlNdOfSXt6OHoNWWUBLDPDtwXhx68rMZ1mzMsJLEhBLBAIAAKlKD7U8Ca97wWPdPFa9jxaPW8lPS81j0Tha7TlTbI2xTbFNIShaCNDDoTk6jjO8OE7ZOU6jlOtOLsODuODsrg7U4O9jzz0yvPOvEhUursy3TDoMOlOU7F4uo5tjNQ1rmO2/OPVryaj2dPF1PTMVeXPrxsxjWU3c0qUAAAAAAEHPeDGs6Nazous03vnpe2ue43c1QFlKASBBLCSwQEogAAApZQUFJNROPl9njjz51mllsupS6zo1059F9Hbj2jVllARDHn7+c48unKzMuakuURBAhAQAAEq2UWWOAUoRRYKgqDSCoKlKlKlKgtgqCoKlFhSEqCyCoCCkKgWCkLYL6fL6idefoT171qa53dMXVTDcJpow2XM6DzzvU8vP35X5+fpck8L1cznorXXjY68bkxLLNM00goAAAAAAJz3zJrOjWs6LYNXOje+W5em+WjaDVzoqJQECSwQIKggAAAKoFlLZUSjl4/Z45fPjeLFWy2UupTXXl1PR15dJdolqC5sOfm7+Y589YsmbmpLEkCSwQIAQAqKoLZY4BQAFgqUAqCoKlFgtgtzSoWhFgqCwABCoLAgKgqCgAqUvp8/cvq8vrPdZqUEWCgtgtlKglyNylmd4MzcOfPuTyz0cjnneaxLEELcjTNNMjTNLc0sAAQnPfMusaN2U0lLYW6xU6a56l6axo3rGiiUCEEsJLBLAQqUQFgqUWWllLZULDl4/Z4peGdZ1FlS2aLZTXXl1O/TluXpcWXSBm4Ofn68K541hGbmySwksIQQEKEioqpYWUqWuFiWoKgqUAWBYKgqUWC2CpSoWpSwQAlBCoKgsgqCoKlLAWCgvo8/c37fF7j16zqAFlBDeWTTGTq5DpOau94ajtMC3NAVjZPPz9fI8s1LJNQysEsCDTI1cU1cDbI1EJjWC6zTdzo0lLYFg1rFXrrluOm+ejdzVsBAhIRAQAAIqpQIoLZatlRLDl4/V45eWbnUtlS6zS6zTfTn0jtrGl3cJejFLi4OXDpxszjWKZsSRBAhBAIoQqCoNJYqU4hSCgAAWCgAAqUAoKlUAEAAAASiKIsAFgqCgWDXbh3Onv8H0D1WWUEASYN5xLNZgqCoNXI3cDprnqXdzVoRjeF8kLlKJNQzNDE1DKwEKgtyNMhmwusaN3NNXNLcjSDVyN6507b47l7Xno0hbEhAhKEgSqgqCgWCpS2VLZVubmOHk9XkOebnUtlTVzTVzo3159pdUKhayi4cznz1zsmUqRERBEEBELChCoKCoNIjkhalFgqQ0gqDTI0gqCoLYKgoKgqCkKAAAgoAICgAApDXfz9zr9L5v0472UILlgc2bKgWKoKiKCoNXI6749Jdgc+nNfIluaCAkozNQzNQzNQysIQqQqC6xTdxTdxTbFNsjVyNs03rnTvvh0l6saWxCxBELEis0qKWCoSoLYNXNNXNLm5l8/l9PlOcudS3Ok1c01rOjp6OHol1NJcTWSRkct8qxz1lMxLJEEQQEQEoAgqCoLYKDmSWkKAACoKlAFgsCwKlFlAAFgqCoKgqCoLAAAWCgAvbl1Tt9H5vsX3XKLMYrpzmUsABYKlKgqUWCoNb5bO9zqVz6cV8tzbmkKgEEsEsJLCSwk1kkuQQqUtyNsjd506MU3edN3FNsU6dOG5e+uWzaFsgRAgXIqCoLYKg0zTVzU1c0uNYl4eX0eazGbKtzU1ZTW+ezt6fN6ZdiXOd5MY3g58uvGzGNYqS5REEQRAikAQqACgWUWDEJVgqCoKlLAsCgAAsAlFlAAFgsCoKgAAAAsBZQCoN9eXRO/wBL5v0l6YmCyEEqoKgoKiKlKgqUAayPRvl1lvDv5jz3NsqCwCAgEECAmdZJnWSAALAQtyNXFNXFN3nTd506a5U9HTzdZe151dySLEqsipCoNIKhLcjTNN3FN3NGNYXz+fv50xEs1c01c6Nb59Dv3495dWJUsM8+vM5cO/ns551ipEREEQRKQEAAABZQCg5iUAAACoKACoKgAWUAAqCoKgqCoKgqCwKgqUAWCoOnTntO/u8HrOjFNIKgqCoqoKCoKgtzYqCoO3bzd5d+X0+Q5JbCCoLELELAQEBm5GbkJSgAk1CLCLBYKgtxTd5jt08+l9WuG46sVdTMNzI0yNMk0yXTJNXFNXFN3NNoLjWF8/n78ExLLGs6LZTfTn2Xv159I0JUsJnWDl5vR5qxjWLJLlEQRKSwksBAACgWUAoOQlAqCoKAABYAACUqUAWCoKgqCpRAqCoKhKgoAFgqU6aza7eryemOtxTbI0iqgqC3NKgqIoKgqCoN9/N2O3j9XjlyiyoCCwCAQELEEQmbAlLZQsEogJNQiiSiEALcw674VfRry09U89j0OGjqwN3A1cU1cU1cjVzTdzo1c0Y3hfNw78EwLFlLrOjffj6Dt0xuaoiAmN8zj5+/nrnnWLJLEksJLKhBLBLAACgUFlAORJaAAABZQlAAAJYKACwKgqCpQQoAAQAAKWIqCg6aza7ejz9o63FNXKtXFNIKg0gqC2CoKiKgqDXXj1Ovj9XjlIsqAAgIBCwEBm5GbBYNWUAASiLBKJKJKMrCLBLAQ0zDd5jtrhV73hTu46OzlqOt503rFOmsaN3NGNZXzcO/BMwsqU1rGjr6fN6TvrGprSIEJjfM4efvwsxjWambEksIKksEsAIsFlAKCgWU4CUBYKlAAAFgqUAlgqCoKQoAAAFgBAAAKiqlAAOlzo69fPs73hY7Xlo63GjVyrVyNILc0qCoKiKgqDXTlo6eXv5y2CwCASrCCACAksJmwWWtWIoAAAEoiwk1DKjKwkoksIsIQqC3I1cjeuY7b8+j0a8+l9O/NuPQ5aN5ZOPDryrJEtg1rGzr6fL6jtrOpaJUsJz6cjz8O3GzGbmySwksISkogIAABQFBQDgllAAWUEKgWCpRYABCgAAAAqCpQAhKhbCypQAFAWVN3NNazTWsbNbxuN3NNXNrSUqUqCoKAASKlKkNcrCg1ntxEKCEAQASymbIkKWU0liigAAgKAiyJNQksJNQk1DM1DKwiiAAWUWU1c03rlo664ju4lvO5IEWDWsaO3q8nqO+sal0iWwM8uvI83HrysxnWbJLCQIKgIsAAABQUAUPMJalAAAAAAAAAAAAKlAAAQAAKAAAsCgFNWDVzTes7NazqNWU1c2rYNILYKgoCWBCoLLkylLrOq9Pm9fllwEQBAKAgJmwksLZS2WKloAAAABLISwiwgFaMTsOE7ZOU6QxNwyoigtIoKCCyCwAALrNOnq8fY9mvPqXu46jqxVcevE8/Lpz1MS5SSwgIKhSASgABQKBQU8glAAqCgAllAJQKIAoiiKIqyLSLAAACWCgJQlAFgtzTVlLc6N7xs1rNNazTVlFlKlAKlAACCpYZ1gzrOi7x0PX5fV55eEssAQoACSwksJLC2UtlFlAAAAAEsEshAgLvno6WaWTcjE6K457w4TtlOToMNjLYw3DE3DCwSiUAKlLvnTrrkO+vPqX0b8tPTz55M41ipnWUksIsIsAoBKIoAKChQKPG0ly2MNjLcM2kiiUAosAAAAABCwAAABAAAACpQBZS2Uus066zo1ZTVlLZSgoKgoAAAALjWIlzqtdePoPTx7YzfFNZsEoACASwkuRLC2aKCgAAAAASyEsICAWDrvl1LVWKMtDM2MOlOU7jg9ETzz0ZPPn0czjnrgzKIUigBYLYLcjVyNMhmwksJNQkqoCLAAAUigUUChQ8oAAAAAAAAAAAACAAAAQsAAgWCoKlAALc6Lc0us06659DWs03c00g1cjSDSC2CoKgAWUY1iJrOqvo8/qjvKmvHy9PnuZLKAAiwSwmbBKGpSgoAABSLABLISwgqCANdOXQ63OpaUltI0JbSXQlujE6Djj0Q8nH3cDx5687IoiiWiNDLUIsFlEBLCAysIsIsApKIoAApQUWUUjyCgAAAAAAABAsALAAAAQAAEAAAABZQBZRqC2U105aOt506MU2wN3A3eY63kO1407OdTozVqBZRz3iGs6q+vy+yOiya5+T3eWzjKsgAIsEsMzWSWUtmkWVQBQAACLBLBLIgqLAIus6OvTl1W1qFUltJbQtFUzbTM3kx5/T55fHjrz1MKSVRWw7dDyZ9PE5zUICASwgJLBKJKIKAAAFFlFlKIoPIKAAAAJQlBCkAAAAACCwABCkAIUIKlAAKlFlLYLZS6mi26M3pTm6jk6Dm3DF1DNQtzTeuVO156NazRjeIus6q+3x+6NCanDvhPFN4sSqgEoksJnWQC6lSgUAUBQiiAiwkokogAGpY315dTprO5VtJbSaUVTOqCiTUXHn9Pmjyc+vOzCrJQvXHQ9HbHaXh5fb5Dz56YskoksEsEsIQEAIKAAAWUoFlKIpDyigECkFgWCwAAAAAABAABLAAAQAAApCgAtlKDWs9C7aLuaiqoCKMzQzNww0MTpDm3CazTprnsuNZNazo37vH7ZQlSjycfX5bnIqLACSwzNZFlLVQUAKUEKIpZKJNQk1CSiKiKBTXTns7dOfRdVYVRVFUKClk1Ix5vV5Ty8uvOzMqyUNduXU9fXl2l5eT1+SOON4qSyyAksEsJLBLAQChAsKlFlFlFlKAI8goAAAAAAAAABLCwAACAAABLAQoAAKAC2UtlNdeXpGrRqUoFCASiAiiKMtDnOmSWI3mK6axo9Pq4eiUJYpMeP3eavPNSyASwksJnUJVLZpCgVZRBSLSFXKjKjKwiwAFiVRvOjr149l3rOotmhZolUVQJZNQx5fV5Ty8+vOzMqwUvbl0PX249peXk9XljjnWazLLICSwQJLBLBASqiwAWUWUWUoFAI8goAAAAAAAABAsAAAQAAAIAIACgAWCgtlLZTp7fF7CXOi2UAWAACAAAUJNQxN5M2WNb57r3d+HeUILBz6Q8Ge3LUkoixJnUXM1kVS6lRVIoKBSKIpYsJNQk1CSoiiKBRqU3249TrvG5bqUpRZRVAWLIx5PX5Dzc+mLMyrJZS9eXQ9fbh3l5eX0+WOWdZ0zLEhBLCSwSwgIKQKgWCgWUWUWUUAjyCgAAAAACUAJSAAAAgACAABLAACgAWUAtlLrOjXbj1Ou+fQ0UKIsEsBAAAC2UijM1Dmsi2Wvf3+d7pellgBKOHl9/ks5LLIsJLFzNQmppLVFAolAoBQIokqMrKiyIoigUUN9OfQ7b59JdWUtBqUpQFk1mMeP2eM8+N4syKllL057T1ejzeiXj5vR5jnnWazLEksEsJLCAgICVAKAqUWUoKCgA8gAAAEsKgAAssFgAAAQAAEAACAAAsUAWUAupRrOjXXl2N9MdDVUAiwgJKIBAoLZQBNQ5yg0id+NPo9PB7JekoKJ5vVzPDOmNSTUTM1lcyhqaS2aJVIoFJQFIFiiSiSyIKSiUgUWUvTns7dePU3rOpaUtlKAJWdZOfj9njOGN4syLALvGz0ejzemXh5vR5znnWaksSSwgJLCSwSwEAAoCgUKClAAPIAQoAEoQAFQWCwAABAABKIACLAAACgAoANWUtmjXXn2OnTPQNCSiSwSwSwiwSklC2VaAsOdmoW6rOfVyjHbjT6O/F65dWUSjx8fZ5bMTUrM1kzKGppLVBSKBQAAFiwiwgiAgoBZYWUu8bOvXl0Oms6ltlLQoAlZ1Dl4vZ4zjjeLMiwC7xs9Ho4dpfPw7+cxnWaksSSwksEQSykBLAAAUApRZRZYCgPIgoIsKBKIsCiAAAAASwAASwAASwAFICgAoCw1YNamzXfn3N7moFqLCSyIsqLCLCKSWUpVUCw5bzuNam6712l+fj3eRM9/PT6O/H6pdxTHj9/lrzTUsznWTKxLvOi1QUlABQASiSyVLKgiEAoBZYWUu8bOvXl1N6zqW2U0UWUiyVLk5eP1+M451myQsAu8dD0duXWXy8e3AxLmxLCSwksJLBLCCoAIClgtlFlFlKlABDyoFlJQEFgWUSwLAAAAACAAQCCoCCoKgoKlAKCgaDXXHU9nrx7I8ePVwObUJNDM1CTUJKqSjKxBRRbZS51mOfTHStdOfQ9HXn0zb5vVk+dj1+ayejzU+lvx+qXXLrk8OOvLUzLDITWs6LVABVBAAEsEslSyoSBAKAAtli7x0OvTn1Nallus6LZRZRCVnWTh4/X5DljeLILAL0x0PTvOpfLx7cTGdZpLlECSwksIsIBLAAKWUWUWUUKICgPHYLKJQSwALCwAAACQ0zDcyNTIqAAgWCoKlAFlFlFlAKDWpTfbl3j6fq4elXPqTw59mDhOvExNQk1CSqzNQksQUUFVWdZMdeXU1vHQ9PTl1lojPl9mT5ufT57L6fJo+lfN6JfP5/X5LM43iolTWs7KCgWUAAAgVLIhKSyEKAAAtli9OfQ69eXU3rOpbZS2UWAsVnWY83k9XlOUubIssFL059T06jN8vLrxrOdZqSxICRBLBAgAIAKWUoKCiKAAK8gAEAgqQ0wNzI1ILAAAIBCoKkKBKIsLFAKBQWUFAKU1Zo36PP6I+t6OHddSc0cZzLmwiwSjKypNQzNQgSlFlVjfMdOfQ124+iOvXO5SjKwz4/dg+bO/Gy+vxaPf4+/E5ZuallN2VNXNKBYKAARQIQSwQiCoBYKC2WL0x0OvXl1N2WW2UtlFlIFY1mPJ5vR5kxnWaSyxZS9efU9Wd883zcunOs51mpLEksJLBAkogIsoACgoKUWWAAAPEirASwAEKgrI1ILAsAUzaIAgqCwAAKAQ0lKCgWUWUWU3ZTfo8/aPsb8dPTxxDUKACIsEsqTUJKMqSUKFc+nIvXn0S+ry+yXtqWUCKJNQ5eP6HI+fOnOzWuQZuaWDprOktlFgoFgpAARUsEsiEoQAAoi2U11x0OnTHQ1ZZbZS2UACWY3zPJ5+/BMZspLLFlNduPc9PLtwzfPz3is5ssksJLCSwgJLACLKAKBRZRZYWUAAA8LKqgsQsoiiKBCoKgsABKAAAIoAAAFJYNAWUWUWUWaNWU1057PV049TdxpNXFNXNWogKAgJLBKSLCgnLrxXpvG017vD9GXYlAASiSjz+P6XnPFnpzszLBc2umuezVlSpRYKlAAEFQISEspLAICqIus6N9efU6dMbltUULZQARXLpyjycO3GzObBLLFlN9+HoPR5/R5s3hz6c6zLLJLCSwksICSiAiiCqAWFlFlFAAADwEqwKgIBSAJQUigCUAAIoiiFIQrNNQECpS3OhZRZRZRrHQtg1057PT15bN3FTbNNMjbA3cU0zQQBYEEKgzz3zXrvG019L530paJSQ0xDbEOjFLlDyeX6His5Z1kWUus2t656TbNNIKCkKgAgWSyEKgAgKtli6zs3159Te86l1ZSlFlLLADPHtwl8nHryszLERalU36PP6jr5fT5c3jjeKzLKksSSwksICEAAAoIUFBQUAABDwCosKAABjUFlKQoAAAABCgllJnUJVJNZKBrOgsLZRZRZTHbl1KlNbxs7789O7gOzjTq5Dq5jreSO94Wu+vPpOzlo2lEBLDGdZXrrOk39L5fvl7Zzzl6Z54OmeUs6uUPRfPTvOUN+ffM453gWUULc2taxU3caLYKABBUBCIKgAgKtmo10x0NdM7Nall1ZS2UoFgAz5/R5ZfLz3zskCCrZU6erzeqNeT1eWXjnWKkssksJLCSwkohABKAAKCgoKAACA8BakoxuULABKM1QAoiiUIsAMywalKUhSKIokozoLLTNkN2UUM9M6Gs6LrOjVmguozd6ObrTjequTrI5twzUNXFOuuOq7SUA5lN6lS9/PpfTzxI1IKirAqCwJjWY553gWaoqMrBYN3FrpcaSgASxRBLBACAFlq1qNdcdDe87lalLZTVlAAEsXPk9Xjjhz3izJECrrOl6evy+uM+X0eY543gkssksJLCSwgICAAAAoKCgWCwBCoPCKmgASiKABCgAKIoiiUIAAZNMaKACUEolzS53kb57NAbx0FlLvHQ3q6Jq0VUlUiiKJNRcTpDlOuYxQ3rnquiDnrOjoEtlKlKhagoAATOdZXGdZGpoSiTUjKwXNNaxa3cU0lRLCwIRQAgBqWtbnSL0z0NampVUVRZRQgEsXHi9nijhnWLJLLALrOzr6/N6ZePm7+cxmypnWSSkyCQIQEBBYFgqUWC2C3NKgqAgqDxigCiUIoSwxN5Na59AWJQAkYrbmNRouOmTNtOe6LKICgijM3kuueyLk3cbHTn0FlNdeXU66mhZS0SgWUiwBYCTUM53DNSN3NrOsbOiUqUoRYKlAAAJnWFzmwupoKMzUJNSMrAC3NrVzTTNLAgCACgus7N9efWNbmlupYtlLZSgWACSxeXi9nijlnWLELALvGz0ejh3l83DtwMS5qSwksSSwhBLBLBCggABYKCoLYBCxCoPMUlQKJQlBKMWqKgAUgM8+2axd0zaIsgKAS8xZTRQBKMakOmdDOs01059BZTXbj2Ous6Gs6KVAFlAIsUCAk1DM1CEhvn0rYLZRZQAEqCgEJnWVxKLrO0FJKXM1CSoysICorVyNsigAAWUvTn2jp0x0NampVC2UtlKAACSxfP4/V5I551myCwC9MdD09Mal83HpyM5sqQSSwksJLBEEsBCwABC2KohYKgsAQsDgAAAUiwWAUllIolABKEuSpokUAQrE0M6g1cjQKQY6ZG+ei53C9Oey2U1249jrrOi2UoKEWChUsBABLBLDOd4hvnuulzU0lWpUWFqUBABBjWFyDesbSgSxUsIsJNSMzUJLAg1cK3cU0gtzSpTXbj1jv059TVllqUtlLZSgASlmdYjzeT0+ZMZuaAJbNdOfU9S4l83PfMzmypLEksJLCEECELELAIKgoKlAAACKsD//aAAwDAQACAAMAAAAhEPPLzjIoU8OWEM0gg4ksfnb/AH19/wCsOrauf/t/vIK45arf+uOvMILaY4MvPOc88+edPMNOMcPdtf8AfVgQAAgw4QY8WyC3Hbzcr/nrU7jHTbMo4yvq6yeOq6AoEoHjzHzDncAee7KSa2+I8o6KC7bboECAoSaab3Lz3TTb37PPP7z3HrXXr8AA8UAAsAooi6nvnbzunnzzOoEI0gMW/wCx9+8onmvmuFAABmw84JAKy9x7FPMNHLEktu6kmDDAFCNMLpqz38gspp+z/wC88sOuv9ePWkBAABywDixYaueNt8PvvtvhOww6xw7fOHXNf8O6J7YjwCywti7XcvtpiTDAAQwD5bK5I7TjCTgSihZJYuP77KaZscuOPeuuvttsn184wzhByDhZd8vc9M+sc9MATDzwzSs+GFUnP0mdPuZKpwhQDYne/NuYu+4DBQASTLOLMrDCTAwQyQCqots896YZaJvP8vceeOedc0PPKIR3Byjxde8M/teaePuzDq7BhzvFmE11F3m1FMap5pbADlcc+ucPet+ISShBjrLLJdIgwxCAiRTBo4Y4qIyyJorI8dN9ttsudvFFwnyB7gSipP8A/wDxwy5pkBIMBtjMMtSpIIYTSRY23zvosoAb861087027UBGDCMDjjju3xPHPMFKLJNBupksBJmhouhqk254227296w4z38gHFul/wD+tdddNhwruNN2CrWy92k2UlUUVGXZ44T3scfMPdetucRzxQQRgI9pOPZrwwSwjRhgiBCJjQyCoqJqaaYe+NdO9sfvffoI7iSsNPOMfttuveVCjaJqpaBv/lBjD56IVnmkfbZxhVfNOHgRzRAyRDBDihyj+Nc7KAhCRiyTBjTCQwjTiRCShiatdsucvcve8dzo8vM88/8APTrjDnUY4wqyWEqgsmuOqYA+anwE6GK2csMbLR0EMAAE4YoM8cEemPL7cgU8wNwQcskIYw4whd8o0UcynnvXLvDzPSyvbzH+/wC4w0/1641CKPwABEJCCIsgrgslnnhsqksltkME99/EFPLCPppILkEDDCES9/goRfbUDEHFPOEOABHMDJOEA31107w87z7/AMP+888td8MeuutdQChEiQCzAj7FWlP+vOb9FkO8JbJjRjvvBhTzzxevISByhDwDAMO7+01mwTwByAgDzzyhSjhSgI/sufO/PP8AObnLzzDDnfznLnrrfkEwSW6eK+87R8xhxlrhJdvDvuqyMk67bBoc8YwVJWsQcYosMcpuapAldqoo0BR+BRwAAcEsA7zPnDrXvP7++j/H7zfvTDfnfbbn7btwlRRlvWEK55JBBZ0k91lLb/zXOeEyvXAoAhB8B1Ic8yYEQYJ2i5AA9tpmif7+ezxR4ZZnD/jPefzOGOCCiuTXD/jPzHP7H3XPTfVwrDTnWUWeRwBF5AksIAws0VLaCCKIfXVt115o8+EQU+0QwYQDMQ0ExFa6lVXmHHf/AFa6912/lkrgnvvvigunum273/8A+8udceueNcNZ9IJJoV7s6KDa1mkFESjAVWEU1COjSZcP+tt9FMjjCAASyz6gzRlkn4MmwVt/MM+NeOueqtqq4JLDCABoap6evf8AzPPPnnbDeXTOOYtB7k78eocyJDLkaeWRNBtMscKon3YMunHXrdf4A3AsgUokGDUhtnz3LzvnfX+HD/Lv2mni+G+iCw8oUUqWLnnbznfPfHf77L7TsynrGb3WIztgC6iVOnOj8MIMA05QM8DYggYiApSg6fzXPTLIabq+n7fzDfvDPiyiCOC3fnXb3S/rDCS+eSqTXLrDH7DRrT77fXnzUNckkm8DrKGIQI4Cax3/AH5H0N2EC9x8DJJNkwMkCHLrk88HEfIx9z82wwww+8+08/8A/wDzbbj3D3DznDLS6eyDfnT/AH9zW2Zy0x55z0662aVTuh0PDccdOHfNrtkkt+/8/BCPNtyPHJDNhGIHAPAPwqmn7y/cwxz8973wwww431x/143438z+4missz55w96kh8zy8758z7ngZaPgjI02Rpkvs2DTQWsnJiNpt0Fy5wzF9lGIKEqwPw+5Y3155wwxz07x6w//APP/APLnXvzbfHf7HrbzbOyuP7rvH6E4yOa3Pn7ztvj+UQXH/wBxug4zx80cZUdRbZXHV5C1XNky6bA9wpLIKsyxCnU67zz9/wD8+dcPX1HHVF2AK1eve8+cmn+eY84tdN5YwyRDiyR9e4uy9JnM2oKvQL8W398+qxWnk3n3mu9hzcvVjzIJOtCcCvv/APJs7Xx4UgYK4P8A7YFvhvmqnPshtHsMPgKNOMb9yt/8KJ2Zbc92/wC7wgJtkb4plQ8NpalHQn/OpBSVUn/2a4/aDzoeGXnEo8q3WvASeTccdcTiA4c7eHvDTxboe4ILaDi0BzDARjROcbc+KyF45/cv9aBTh31SgSq47fi/dbylXPMOo59du+tda7cDQQC6NugTXBVydehP+P8ATbDPmzRjQS8FIueWiefvL3LKS8qWuu2uzPm7P8BL39nnzTX/AA60h+/AAPSRh/U8pCQTYRztsulsk5uIiwHREKELIogWcYKLyXO/Pwx//vvreM/SvAgtJGO4p/3o9jnsjtvhn6Hy60Yjx/eXWQQd+23/AMOYgQCIev0A8wj0nlFfZYZJqL8gyqsG+RDCjBwAEjBAetOPvL+/7rz4J+2/W2hL5AqwxOmtb4byhZaY6apj+8Wz1cMVVk3UlOefctvIJjTM5ZWhnynGmFFpaL44Z6BlQ0JVsQjF2RQHv1hmedeIcgdLABTxS/uOSBSaRRTggA3Lr8LyxRZYIdyDf1EK5f3W08OJqZiYqaKDiAqLY5ohOz2nWkGCgSbhbjNGzx5sG9P+GkhXNciPFdwn+fQQghzxbtBfwgJZ9RiUwtWI+ILTwCwILt03sfwbN8PSPE5oJizy8ca2FoRFa6LQqn3lWl3mlAC0TFMOwRQurM/cPe+eTcseyjSPvtVRbQjwLuitChRSxRxTxDzAAwAARxIoJkWkdk2yv8fA4PzD5adP+NXXQjkbL4e6K31X233WEShUmucfxhl9QuNcv/shwNvtgButcvOM2zxwZeidKhRZQDzzshEhWDAhSjqpbhu3sR7EvdfBzQjOdNPMfMdSWArEbp98P2h2n2lUFkGnusNnCB/WylM/MMvwvRPiyGP9/wDvPDh8pcKHDXoQ+3scgf6qAkk8YcoqqaCitH5esjvBlrck/rrrX+uXxJCNYWiuXd9t9hpBdBtpBGWrTptjfsxBr3TrIH3TII0zD/8A/wD+9Mk5FhPsOAZ4dRwSEEMfZjQgCSpSKuoGFqQZevhHOTNe9cf955eDrTl6nm4z70B2mlH0H2F2rbX8mSIMijRFM9fAr+9QpAX/AP8A/wD/APPTfEWDzXACSuYM/tXrT6ewUcFIBSfJ/VwGe3rx3X4HPTXXr3yC5dRdLQAUB6EJ9plBVJpBquHFz/40D8gkUNQ8c0iT0s3fXX//AO2970xSQ0+QAFnegPrMh17krjFORaTlYKyVZq+xSStlM/65/wAILbao47wAyg82Lm1Tn01GU3c55PduOQSsxCiDBhAQjSAjRff/AP8A+wwww987102fAEjYD0fvt1vrhgttLTRHi15cQz/weZJAzy5x68gllsUTT0sjvqu87V4RUclqgOAMAJOCBY192/1w442EvLMCB388x33/AP8AP3j+tCFsU8uuGiuXG+u+88gB95urrfu5/wDw2ENPt502jvvmlnK2CCOmCEODHdBLIYd7unotqJCkDM+09w0uGFLJHqxIEzms8wss05+7+rUE5OPEBpktmkvutvKGCDb3n96THY8zaR5Jzy7xokpIPnMGJffQRWWWVYSfeYKQXCPJDrloqtYOCdfdDDXP1gIgi31sss8s88xwwh+UqZWTqnvioPuggvAPCWalsV4bdV/2zyxM282+xvjFCsefbWcRRWZZaTMZRWcZTCPjj8MiIvGBbTbUTbYJFEYkLR7+x/qkspvzl25rdowfgrkvlpinrmoPLYZiA+UadTg/SPxc8732NnCumLTTacYZTWbZWTOEcedfSTjjilrlqoKUbTVbtuCxaQGd0T7UeU65h9x5u249/Go6EGJjpssjCNlvIcTrA77f3RmuxVE/+52yJDPGksTQcfbQUcWdUSJAQSQ8UcNNrjkpmlQp+4iU8/xxchuSDXx+T7w0c+869g71xzVjRFupItDDEIGMcFuhMz3cvSOroyLwy232NDEBFn25RRfTQRbZfcXfdcccTAgvgrvhijwTyn4pMDs31xteHQ6+8f8A232eOP8A7bHnbVTIUE8CKAgBF1996qg7fhia+OUSp/8A+15MLDBJMBx8UdTSVbXVSaUdYSAAAAksspktkxATF8spuhup32abDtjplwrjxRxeYUSQTc0ascCEILONIFHNaUiUH87agtjvRJzzz6WJDNEKLHbTDeUXQcdWf+ddbXTTcssskqsjj2OItDDMFuxus594TgkiqpmoltvPddbacSadSrFsCNPAMbeTYfKbSw3U5r1zZDzzxWHIAAKPFAk+eOTc8QRY6VfTTBPLDjnjigpjow7ggghFMBPKg01iWvjllkmmhhigitp940aRRNeHGAhfv7zUVQG0610nUl53BBzzUNJPPAKPAPvjz88d77/+m87zzzynjjj3085y1LhjgBHKBPsgjgjYxgvkiptlrumqtkitq0TexwLGz944y5/0zUMo8+8aAql7JM48bFFPDBJKPBggv/6iwxQbkt3zz25sokw08bz05JhoLAPBHIAAqxvYnjsirtkulkhovqktmmi5509x3wIGHwptwaMm2z5TDpt82H/6VFANKHFAKMtrm86tryALjjhgglspu89/zSQcWODtkpJFKABDjho9YmqpGroqukvBkrgqkptq7234xz5896VLlfWBx22fclh3zw0zEALDHJHGDCgsqhjrqoMBgmssvjigjznSccMKTIOIkjMGBHMMNmlmt13InpvlGiFHgENPrCJkhth/74z3680yxcIM53yTQmsuswy6KNDADOODJPiwwugw1vvvvvvikss888cUfXQUBjGPsjNHJDEOhnolrDKnhvAKGNHPiAPPPMFport+zy1z/wBNdM99MNcOkFcLLi/+qCixwQyBBwgL788MO46aJ5II53kU0kmwAgrK4yJyyywDgjRhCCwraJZ76JygDShTzigDTzyhRYro/TaBw/t9Odu9OP8Abv1KmlgXfmmEAQwEwUkQeSOWvPvd199wwAEc4wAEwwy2KCW6kAUU80UMwwwgUOcYD6E4A8UEU4UAM888oWWqqWZgBkcMUFFFfbbyGvDv9pX/AMmKNPLOMHINJPffdeNPMPIAAADOMIBHODrjmsskiokNHFJtlpjDOMCsOwk1AANAHEJHFPPONLFlqLkm3n+l/wCYl30vUMOf/fetsOuabYhDABRBCyLX2hyAAAAATTxziABjCBzKJL6oJaTq4RAyDyZ5VAihoyPZBiwjQDShmhzgAwjRwazS5IDo/PN93kU6D+ttkEMO9et5JqgABBCjxYJWEAAAggQTzzyBAxyAQTro4pL4r4S65zTCgSCzgQCSIDs4+ZCxABRSVWETyDAiThiwyZHrPGEnXUw+LOecKnVt5Za6aqgAACgTxYYABwSyxzzzCAAATyBTz4ZLL4YL7pYLQ5QyjhSgDDjDgDD4oOzQizQDHk3A3HBxRRhJZ4eBX1GFXDIVpueVm84evZLZIaATQijjhT7zzzzzzDSAABRzygziAAAYLb4JZIIxAhSDxCzCCDBZwRALNRAhTxjIlUiVnkijiyQwqKPi0kn3k7onJkOWlur+tctcN5DTyijhTD7zzyCAAAAABxzzQTwIIyj74Ja5Z5YighyzyjwxySCSoAhecPhiViRaevdEnHyTzR7JJoL0uFm3ky5noku/0cj+9P5OuBwywCjyyBIBDwgAAAgAjzyADyA7wBTz4JapZ4qAhzSRwTgLYCDwZBgO99EW0yC9MVGVUwzBqwbrZrZN7+G1kTZGuiqcGED/APDiriqm88MsUUAAAAAAUM88Us8wAc8gc8g80+aWq+iua0AAgoYoeWoMQUyiOXTW01E4BJpxZlZM4YOMQibivtoJNB6W7ipBBbV0z/rD/Wm+88U0cYAAAEAAQc8ksc0QE8gQ8A2820C+G+MaUAwccEEkTn8EkCoSRCvLzwkQ9RZxZFtIkkqqswrq6F+91F+SaCpBVklgDb/PUIU8840YIqAAMA0AQ0w8884gU8AUoAW+6IC+W2+wEKIkOkkExLako2EABNib04sltxZtdhNReUqG8IqK+J+/Rp2GGiJR54ltDDH+S48+8sIooIMEMogEsoU088sgA8AcMA8wUQK+UAmlBr+6SSYInb2AG0c+VNtiXMIBXxd4BVhV2AmGgAUiyR2pBpeWSWpVxRy8HLHzjqW/8oso0CgAsQgU80c884skQMowMgMIUoqK0AgTQdDumCIQf7nw4oAMtwEB1JUd7f1pBtB4SsSYAAUCCtKABt0CSu1ZbrmU/rPXbqC+8sUEW2aABBY8w8U4QAAI0gEAQSYUUgoYUY4vQLmW2CsQ8fTscUWyh1c2tt8SXPRtBBEosUKg8sUKmJWIIp8av2Vp3TqQ3/8Ay+69PPFFEKkpguQFPNJDHMFCIDHtmrrlDFFAKCPAM11kPKtjNGKdXJITj/YVanntNM871bRfRNArJPPFvtvfHKfate3laXZ6iQ086969PMGCKqjqgiYBFOMBCAEDODDDMADHOAFOKIMANGObaDvKKFGdVdHevfbUSWgsrGMW72eeWGLkFEvFrvgstKHbHGXlfXe9oQ6w6868vAGqvprsghcADKCAOMAIAAMMOOnmCqiKKLGBLJDWVXaSZaLRQdOY/bTdy/eXgsCXR9xTaYFiPCvDnudgkLFSeHY2cWW4gh2467/wgFptttvuhqIABDHEhDDDHOBAKPutgjgIOOJGFKBOBFFkKXUWVZCT3YjfzZS9jomJeZcYWGCoPKvOh7dhrBbaYLCvFZ07gRww+5+0gllhlksgvuMLNdXbXcNINKAliKAIAKMFrNKJKCHomoBnrunEPKITDPjHDGCpiAptnCceVJEHKhrEhbrngHeVPCL/AEDY1YEMMOsOsNdpZLa5rY7iAFnAxWzzDDCGRwI4Ayyhjz5TgKxyAGvX0TDYpQKhWFkQwBCGgSBwKYqCznUGTAJaDZlLLK2H1BKZX1Eb2hTusscee+8qaao4q4K312HFHoRuMbiKYA65DwDDAwCioITL7cenUyzRwbBhhxG1nX3kRzDDwKZLDAgjAzxQw+SYoZe2nzaZ3f3y2Sj/APvXTdiCSmyei2WqLH/jjDtPX7/IAV3tICi4IA2kAousKoTXrB0AI04aaW4ow9NBF4w55I8Km6U0MwgQo6Ny2qUX9h4+yhVxRIYLDDTP3ney2kSmOamSDj373v7j7jDTT7LLYeA58EyMYsQ8oAWTvAUkoUA2IncZsI119U0JBUckCSSaso0oYC5CeCAB9YGTOCZRtpYzzzrLnXSuOySyy6sY/9oADAMBAAIAAwAAABAaW3EHE6nkW8Ol1Fn2E7pEk3Uhw8+9mBE2EN9VnwQjBATHH8Vn3AjhVSm2tOtXksPQsPOO8t21AuopB3EFFc7CQynN+WxilUZXU1lYnnnFW4XVlzlvuves+xhqqnmVkvvEMoYQ1DQAR19MuCgA9GWrf0N/Qgx2ftPl1nUef/fMvGG1H+PumkH1UXwRQKFveDiimFjEySnxYJ7563NxQiSxEXEOs+ElvKRk3GJlqnl1Eov/AL7DHdoUlyEeTDbHjjn08T/lUM4QXjvzjfnJBvXP31UNZBVgsXTF3vDYEgpNZRRXslom8itz0VWqU0A4BV1jNVSK2VuH3B95kGaeiSK3PFtAckoeL/Xn3zj4kQzbQwMUeXnHvt1Vt/bzTltuzxxZdhlRv+zfYAc48D/bW4MSyGdqs7ELi0STUoI9P68cqB7PJrJxoxdsC+SVrjA9QR8i+rbh1rH3h0vVBNYYowcf5tlhdwHD3OhLyzv5kVBpNmjvQsnwN2a/cQz/ACCOSjKeQaQG26qmBUZzllCQ708eaQWadYOgj3+yEKEAdFs8yAT8z71SCAOXT1uEDOKXWdcI0591+ILcHYY2WSQxt7zr21/73YnrF6rUWXRiHGZ9wyIPMAW42/K2T/8AGE2XW2e4rNe6JjDBB1Ub98s88/uNOTSiH+PUWHjSDAkHlsBF9ed+64K5d2UdMpONcPvMYFmzl318rgOFj+v1Etv++cqFlFFP1DTRFWk2H16pYJ7YLC1xPVgjc8fmWXfO/bqTqbrvG3F2TChHnUHhsOfc8dsfMGktc89uy8s+N5A6ZyhDBwalWPcyE+vE6fa4zG/ERcUgltqK4ZaopZp765Ibl2lQC4d9VVlOPYYbrMcacdsdMLAE0G1CeffdLulsJr4PPcOvzzdcrk8g6TSxrzox/wDDXkuo0FOgHZRDNc6x57kJ9xhlVMQJt7OMwhRduW1pPopd7by3jz37SaPPyzGQxxrVh/vrif3ir/aPPrvPbvD7rxNDxC+6uyEFP3PPZTp1lPnf1txLoA1tBGYh1tZ33517tMossHNhgAtFxRZ5JD3vzPF9lbppzaa9lNM44PzfOm+fDDSGGrj/AJ08z+kRQ5XAJNMFTdsuoDFKBXL5+OLTb4QgmZWsyQffYggzWSQGPBBiRUPfy02PMfXCvngTQRVEbYqpMXbQKCe8zv6y2zy//wCZsdOMMsPb1mkd9kWdJGxooS75KQ/f5Cjh8cP1aQGP8OX1nWgy81EEWCoAQuSyuDWvgIo7t/xe0zCAiTJIl1U2jddsPYNeNVNPxCBzBI/v+v8AfzIJNTv60Dd3i1Iw0ng0djXhMgK23TsYPdpBNscVA0FfR7ACuExEkTco9RjQw5xYc1zRqdrp0ck2FSKvXPzzfH6DXUsgo0qnkbDX378JgBcIP8vzzEFYNI808EsBQXg5LHXXl/cUIIEBBr77BDpYURA9qhBoJ10En7BYJFdp+A8Qws9/7bDfT/8Aw1090ygh3vPG5NJ1y+tx4u3heQ56r9uvgGqov/8At6CxXyKfHLFQo+p4aovkeZNV0mhASxAwGUE2Oym4RtUAyQDhAjzAmDMfu9vGGF2t/fs6M8zQQQsgis+OPvnuzWfhgTncqEUewI3cc/obJ7ywxMBU+YsC3m4WcQmUaHhRGRoBnYvtHgSQhizZiGQCyTy3XzmueN/t3GjXUd/LSiDCizgQmntiO/NHNSC15z8Ck/y9fNOvwtIG4br7ReaqlE5+3kP1MVHsJEApLRHjFSg2RgiBziyhm133G0QTD5Qbu5b+u9Mtvd4SAjThgFJjX0hTBP8AoBQoY7sYyXf5UEw2R2kEiIqVfBSRFRqkMR3tq/sxxL7iJuWoC1Rthg84wQswkIksQwwoAAshogviErKnrTN4IIkwNZfUbsFNAIUwigoCPFRrcEQD6C73ts7jTtXKusSlCpG06JJVZwTo2hoK44VUko0QEiM848A4gc0888ZEsYU9cYYYor3nDH9go8sQ44klVBF9gko8fdS98S7IW9qJ2pcxzBRp6+EmEnnpSt5qCZPwaRFCYB+BpFjNBNsoQwEM0kwIcFJx8thNx1BBZ38AgwcyCBhfIgwkR4Gu8MUxFFhN7oYtUAGMliTSHXuYhS6+bbTRTYPNaqvYGWmvQzr4HCOkthmXXK84EIgBQUA41fdT7h5nC4H1V1dp1vL5r9gh8gR4wcs8keKqlNIFkcHtYdDfUlqrQU6WyFTuSGLT3uiY9phdvsBtyITkWeFVUAvlZZn+aMRbsMgbs7/fN9Nn9/f9z9tT58YaL04ZY9CoIqG2csyOzdhCYQZ1jVUUY3W9EZc+Otv/ADqpqVvy+By3WxJx0YJRcx18brcHaUSdPXAS6u1F3GVVf55p/wC+cRxn6bICSJagB1hDRnsY9hor680ghlT4IsTk4xEyBdSkh+fPw1xHhXzCPuACck08qZs+khHoODq6z0UXLzCvivL6xivHW0dZuSgzhh1H2+tdN/dAyHC1pfwjJ31UzBBZ5/xl6bNwomztCNgHwmE8zl2F03l+WcwBgpLKXWbRetTGZlt5QT1S4Jcc0owlsnGcd7W1hcSmHafGNddmkWiThjE8bZkObv8APLlJAC+W8CW+Oow2aAZo9g7RTLBF1DlUYKDkDfOu6+t8Yn4jYZn918PQmjHBDX0jdb3NHbqI2K9Bwprv9prBh9lpEBMtQfVxzT/XHndoA4AwwA2OwNxqTSJLzCLROjfzDDZ0T+YfX9eGrvk4pKPTzBCHXAhenN9pVB4Ck+AFnIpFNB2NhtqrpFxD/LQIoI2djbpzXVIcNbrN3yy+G6W4NbPFFQg9pcBB48EOoKY4r4FL1b9l9H7+3uBb8E7p/s9qHFdhV/8AMTJsa01X7eFRfV6n/wDX1XmuuQU8AlofiGkTjmlcc33yt9Me7y9aud2WI2vHWl1EGhSXTbQk4qAFz232W2n4XbjJN6RQClNgNL1WvQE3glWmEvuutO2pCUEUmVuOvaa/i/0sgG3gvqm4QDFk2Et/ZGb5leSN8UP/ANtxZJ8ijjsUIKqzZm263JdhtTadi9NR04YAsn5aAngm1DpVrpG6u6E6319VZptTDrrk6Ya6XgJp4elu9pUUs1VNenpFy1HQc4JW3r53jgzDs4GUeO2sb2EaKm5f0i5t1xPYMg0sMwqgLUrRNGpRDNKqmMBHhEoo0J9T/jUi7Qf+i1RThtpO5pwxSznopKWB7xX5k3VTVjf7JIV/WtB8orR8N64c+meft60EjNKdcM8Y0sEjSzkxQihH3sEVxKd0YDFEwgUWMj1iPHkICNRuL0VNpF4vij1gY6MjX+bjsRB2jrfToUUwmftueuizhhldEK6it3coabQuI88oAQckxYDE1gAL7PJRSNbg4V7hwYNwtKrJUvgjPJRb0aqFN1xTHCdV/dpRoEAuxTsJVow8EgIEVj4+4pWllx9Hv8htNVDq/wCTjXFPKBNHKNHl3EDkKO+FwR+PpPE2z9VJf6WjAqb7YDBZl9+9hUMH6+0ydY30wDIShQ8nYYkbc3AgpN81DKITsIVRay016effafNUkFPPIMMMNOITKEVmALr7EM8yQPb0+zxwG0XHQTM7SNTX8+FWTSDL1806x/0ugHQV5b1KFvQ0qhYypBhOEbKMd9RsvoiprZYmwnh4eLAAJEFPMHFBQa4c5QPIwhgzSrc0wxTVWRLYhRJSliOeQlgaGSRjy88xw1WhdSY9XMXvpXChEchHWWX6yeY1ZvMVWSXMsJMNHpJYBO60hMQTJFGMBRlMMIMLYRRez0yxy1adfJV4oaK9D2Lb+1KFSG95341QI6026jthmqwgDJBNeYH4j5317bRVXG7jo96xlNwpNzOw4OJcbzv/ABwgjinRvqbO09UvstnseNNVW0XEpbOzdE0z3HRx4mhcuafsXXM7YIapYpqHmEzQWijSBT9PH1w9VsSNJu/F+NN/gTAvMqOwBhhmtvPkQnBQD3/geOvedPMct+eun1HUOQz4/kmUwe34MkGOt0e3uP2Yp5pK6o6rUm1RhCggQ6Z2zx1mWGl2u7uY7NcgreNKuC9BcwIzA1RTh9xCHUKUTxkktfcsP3lvOBn05xCDdel4HAnTkluO61Xg0Noa7Y7K5KJSpgVhj3WXALLPcmFXGmyxB1FeMAwSBPfifAfjwrjCTKwRBxXwTAGOOvk8vkeXuSKDT2gqZgXxrJVANewJm8fub0XiBwqyir7pIbL55776Y5aBL7/GHxVRwSyIrxsg/lBdQSENvRqAwj5DrC5AiwDAxT1VOhjVl1csmAH2c2ELZZmBIxO+5jsc8tsrGMkF0lWTQK7oIq6pbr6L4q7c/tsFEhCyDzVGKUxvKtstHix9ez0Xk2AVHzYyZpbSduqhuJeX3ei7bqarqhWJVaXFPmXk+P3FONOzdeHofEVqJf4oZJZZpZiIpqpIZq3zjxzAQzFQZmTzxIvptHTBk1H1mU2Gmn1mP6IaJrrZcn2SL62b5L+FRRPDJ8Rk9w9Qwf2kMIi1tOLZZWsmTbdZ4BIJoAarJq98dNEBABhIoI/Hv/8AfJsQZFrcEjXTPrHNpV1dJZVlRQwsi6LU/wALAvGxLSLhgsIIYASHZ8jDltTzBX3+slml30URDBGmIMAKQGIIAIOXAKr34x685W3z8OIqmF838/y3Ey6m587y22R/dSZUUGpsBKnVkPIKIEIAAIAyTBW5P/xCnr0yRadqtmsnxddVXPKePOrrZWEGtKlwWoeb3Yz50R29SNlmLohv1k+g588524mn3yxysVUZbT2POFMBJanUWh8SKkrxVfGXC7znRk4oPz7pi5jl6PfZSBFWbK97SRR19a7il/8AvM2lFXr++sMY6KpDnPPMhudM/RcvvKN9QaZL9fsN/oLgSOZKuWW/TNqP2XOC/E+dbAnuaXmtra6Lqpbv0mkUGV2vvWGMMZ47oI+5lkExyHbKFMfBqJq4MEeuuFL5jvt+vAMjppSwgdCTON9NoO5r+P6oGkdw4/8AcnxHD5dFDKBBnjOSaaWJzYw5F805hF5/jTLmOPPjBNswQA70+1TXFuCiehLnHX7hcTbnpq69ciqI+AUgMXbHbs9hRL7XD8wJJsD7nrw7O7J37jN5ZRJdmWpd394MkMDj9Rni2ytIU88GnDL5EgOIq5F1xuSaqgRdzP7rXXbZWC+UQesq+KegUV/PvE4XJiA00MQwwf2GOMHKvrmx6z3pNV95UxNtGiikPXPEW6iPLznfnP8A5zwzOCNPJHlxaSkohhnn0833kS75R6uqrlOilsgrghA4/v8AcMnzk3Fy2vfUjrds6QyMPjbcEXU1FnTiVG3HnDiWkE3F/vOM/wDvbHTntpEIA4ME8XPq+AUogOv3pjOSuoV/C22eSymqGO6maDrxzvlnKlUIFSgKo2g00AU8oMUjzTnlRwAMY4pnIAVhd9X1xt3/AG9243/2/lHLMKLKJrHOsl9IlIMxpcb9EZKeW4pjsrszpmhkpphm6QV2YtVKBGKl5SrOIFB/0D2gvpy8+SRTaTLA06HH/cWaRx69837z229x4eDDLEGPJnFBsSWTYNeftqexJWOy2Wmvhhuy42hpqrknEUQS5xdDhpp1VJE6RBGZM0Jbzzzw1YQVQUKPxwcfRbYVfeT36wx23144bPDNFNFBFGB98bYXorRVRUVdjvJBGNoktjl211h16uNsrb622QQg5kl3A4hxfSiB1mPmx3550bdSBaLOe/dfaQQXWX/41341z5281hCGNAILHC2IQYLuwvjqdU3zuyIypJjispG82jz8ylpfTjW+0Bg+mm5dp35W2RJr4kK62qki8ZfKBJCJQ0UQX3//AMfvN9sMuePWE7LzhSiyiDxUaK675erKat9nPmm1oq1YtZbQ3F0dt/oxZjsPcOWOS5cjQyGblOHlavQGy5OetlyyxDWjjW/20HMsMNsMv+ttP983P75KACiiiSC/Zzp5a6bRirqUMlyZD7u/epLGSee+M7qg6CKXs8VBMzKRMjXaQrwkI3CHxM/aseLTxjswhnHX1Glc/wD/AF787+34y240qipGKLBIOKesTBCMlnAFtpTO4V0Jg9C5it2+1y6y6oAF6HL+nfCY9kFBldASU/6OOjQK11uz+0dLdNMbUQxwQ03/AOe9su+ft9MOrSpwoBRDzLTNVhixhrJ3kpoIvVFougRr4KrO8t/s92TDAsdA25UXUGqRw5n0G9W0/JziVc6F1W0Hl3G2tEE0HMNPfP3+Md9dvtdf9TwHdRSDSTLW90D+w66O1AaSNhwwPd7DJZe/8+OGXFnYiu8DRPUG1nxCna0ml+90f68RzpceX0+EyE111EU2mOe+tXGftNuOuMvsLu/qclQ4ahAMzfcMYxL32x5tgC5JBauBgIc3PfoGlnV5Q+diT1l3mG6ih5nxb0PPSXYUjs7b9e4ATnyF80G1GNf/AHd//wA1zy29qiogkot/IH0po+iwO2ViDhXUegDFHHv3zghlD2dX6/0abJpDjAADb/WZwyBdMerocdLwckaHwi8w41OFUHy5+QAH61++1+68x1+x8n7G8gt7sr4mi9sbdrHtJAhXWJLFv2pI5VkaJEbJp0/5MJOGmPLII+TSR4SeAf1hRfJ2RiGFH01tSRRbCC72y5m1+72+0/8A+uvvmlTkwIYqMc6MM64xJTAKZRCBOMZCNOQDjIy2mRYWiSucfmxjIQyFQYWHEOMBT4oN4H2pMl9yyzN5fX3HGBY/MccbPtNcMe/sed8vPP8AfzjuWCvqbbqS8LfkG4AI8HHzU5ZUAU/SqR6YCzthvnHMMukynUe9pG53B0EbxSFpE3T/ANFP02ls/Qd/6s0zw0n476++2+w6x1/8yzcR2CEvzy67t6vwz79498uxz5B6GHghPCv46wJz3fd786qnON1MjbovW+VIb+n2ceB/PGJHAxyywb844o1x7x51+404d417ax7z63XPAOP9570tkrjrCMMgO74zw3K6BovkDk9K7/oMS9727jmiKF1GhGlEW0IIbz2vBRw5q+Wf8zx8x7z/ANec/PNFn/BSjpQdGWHNaZNt9vO/f3PPaL9Ft4KgY755barCMBeMBTzx6fhJboQNffIzZpftjHYq60OYTh/Of2yhjOuGVUOs9KqfPcHVc+s2URB1ep00H23h2n2X/wDDP3fJbqMN0yLhbjeki6Qs2XbzIsyiJQIqaSa6Ee/Tbmu3rlRpkpBakogApxT5hOZW5oMvLeiq7fLP5DbLQ8wg8UZLqOLftV3VVbfLzTfPfx8vIIFZLniaC8e8OOKnnrbz3mOCC0COa4yeSus9phY4QhZAux8aPLZNbus2RQjjHIbzjvXnvn3XSGzLrPMyvrqTf42YHtcX3/VXXqQTgqxBtfmumSk3kwiiCTPzngaLb20L+PwwmiTnx7eLDVrgybg+NdplevIpx4tXbXTD3pzLz3XfTbHbjnLvHvvfDjvSDVvkHHVDLHu9CWUFlyUO2+O7AVyriaZ7nM6LfeGsiiH3EEevtzy5JhXWCQ77X6NldqwFN8g6/Obf/TLX/wB2FP/EACcRAAIBAwQCAwADAQEAAAAAAAABEQIQIBIwMUAhUANBURMyYGEi/9oACAECAQE/AP8AJTZ9menOzPsF0ZJwfUb92+xJJO83ZL3M777Ejdo/zM3WaX+KgggjBoi0kk2m8/5vSOk0kbCwS/xkbkGk0mk0kEWQ7zecJtP+N8nk8kmolYQaSP2635JJ90tmcJx8kmo1ZLB9Bf4aSbIjBZPOBbCygj182nbkknrxlF1d3m8Wi79RJJJO9Oc4vbey912j08kkidnvSTm8J3nirz6yMlZ4ciRBBGEYSiSSRMkbykkTs9iNiBLyT6rUzUzUKpEp2Vm7O6ZNoIIIIIIINJDIYhYSSTeN2CPZwQIpq/RMkdSNRJJLNTFWz+QXyCqTJJsrxaCCEQNGlkMdpZqJWUkkmr3MEWpc2rX3hBBBF5Z5NVSFWz+QXyo1o1E4ReCCDSQyl4wQQxUmn2uk0kMh2kpcMQ1Oy7RaMIJZRU7VVQpP5UfyIknCCPfQjSjQjQaGOg0EDKuSCM42aeRHyf1vLNdSF8rF8y+xVp8e2nakkklEk2YyrnoxZFfF4Iw1VeGin5G21Aq0+BPNmopqndm03nOelN5xaqXKNQqma2aylyQPi1XPTp4KuCCMIIPjiYZT/cahlFdUxkyZuqiSSSSRObtmokkm0kkiZJJJJJJJJJJOw2SSSSSSSSSSSSeR0p8oq+Jrgn9PspUIRVarkXSo4HxZ2aIvT/ZCadX/AErpaZS4cicqzrKam3ap4yah1Gokpu3aSSSSRsTJJJJvJN5JE8mxskkkTJJJESSSThX8eoiHDEzUNn2PkW8rtlHA+MotQv8A0hU+ZZqbZqYq2a1Az4+bVuyyRTyKzs7xJpZD2FnSsmydmditKZFf7HzsPNIi9PBVxi70f2G5UEWV/jtVzs0c3qZJNqfjUSzSaUOkdKY1micEU4tj6VWC53YyYuCvjF2go5zos/OzRd83jJ4q0YoWL6beS2ousq+NihecEr0cWZBGLGULxd8jtTyebz4s9h3YkLBjeMEM0mkg0s0mkhkPF3dkLOB4LOvjYXhEQ/NkK0FPFoIzZTxZ8WZBQvN4GhpwNPYd2LBjxpIErRhBBGEja5uxi3Vil5GV50ryPymcqbKyRArwQQRd2VquLs+PKT5II2li8GJCtGcXhCSKqpfgV2+nTzavOgX2ijmytSs4Ghq/2K1WHx4MqYibPB4pCweE+RC2laqpU8jrdXgQrMYuNxXQ7U82q5Iyo+xuHKE0vNkfYtmB2jzerCjjBvyVWnJ4IV3ap4LkQtr+X8Q/kqZFkrsqRTuK6Q7U82q5zp8Dw+xbTVqV5vVZ2p8LB8lWE5sQhE3eFIhbSPq9PJBA0PgS20sXanm1XOw7K9L22ilebvmzzeKyZSJYMbuykQtrSjSjSjSKmLsq3Fi7UDHzg7MVmK9O2yLvnCZuxjynFlIrOzxpF0UVFQtqLPKkYxYsR9jEO1O+7oTaFWvs1IbKuNxiWLHghbepmpmpmpmpmpmtmqebSSSSeDwePwUHghEI8EIhGlEI0o0oSi2j/ppNJpNJpNJpZDGK9O+x2VmSas1nTjUPBC29FRoqNNX4aKvw0VGmr8Iq/CKvw01fhD/CH+EP8PP4ecpJJtNpJ2IxhDVqeg8HtvBCxbwQuo9lbbPJLJxlmpiqE1aBdBoi83YsIFf7uuRXdngkL1D3JJkXQZFoItAxDvNpxXIruzwQvUO0WVoIIIIwTFZ2W4xqzIzgiyuxCuxjwQs4wnu1cCukRjA0RdZztQNDJtBFlhBF2UlN2Md4FsTux1KuBWV5xgfWaurMknNlIsKicEslvz1GISEtlj6Ekk3Y91lIsKroQtiCB9+oSIxjJn3vwQRg91lIrwVc4Ui3I9JOVSKeerA0ReCLxgynjGrCkXsIIxq4Kees0aTSRtU4NjwpELafYWMbzKV57MGkgi0EWdqcHwPCnKMn3o3qbxjFlhG/FoIGrLB8DwpFhPqVk1d3Wws4I32jSJYPGlZT6R9CnnBdKSd5rxitmSejBBBBBBBG3HkYttc9Z3ndgg0mkXQgggjKOkz72Is7vwsFvPF4ySSST/g0PiyfQeL2UxVC7itBAuvJJOMYPi1LsrsW01k9mfIsG0iemsZJ67wi0k3d6uLIWD6LHmz7KcKykXrIwjGM6r08YMW1Ob2PsV2VclIuvBBHXeburV3pFgtqCcmNH0K8WXIhXq5KRC6cEdh5RjF5KuSLrfeTHi7LkQr18iF1F6irnCl7sbLxdlyIV6ykWxO4u08VlAhoY1dMW69h4uyFaRFYhdJ9x7bFg1F6XvPN4uyERespF0Zymy6k3eyxWYnI70vztu7ssXkxIQnesQuwuoxsWCzmzGcCc2fgTExdB3Y8WIVpIK+RC9Y7zuMYxOBDQ1BS5QukxjHZ2YhYVf2EL1jusFsPgbHZOLNSU+Bbbxd2PFiFg/7CFuP0DIErOy2auB4Jxdbbxd3kxY/YhesZF2RtV8Yspf1dPbV0O7yYhYLkQvRR2a+LQQRel7quh3eTEK/0LkXWkWDzRItuSSSSRMnOviyQkQQaSMZ2XZXbHizliFergQuk7N4N3eL6EEEEXkTxakjGM1uO7wYhCvVwIQurNousVsvGCNmcYyYrRtPF5spsiLVvwIXYTGsEpNJwKCSerFk9tXawWwx7KEK9YhdmcE4HUTddZqy2XjGE5IYx2d4uhYVciF6WbrFbjFvvGSbsY7STebMQsG/IhdL/xAAnEQACAQQCAwEBAQACAwAAAAAAARECECAwMUASIVBBAxMiMlFgcf/aAAgBAwEBPwDJddaowjW+qrPYsV8KLTZ3jNkk3WiPqrpreyCCPhPqz2krT3oyjoRpWc4QR2nvgi0bItJOcdZaV3G+pPSjGNsdpYQQRrb1RsXxYxgWmM5tJ5CZJJOCH2Vguw+5OiLp2kkkkm06IIxgggj6UEa56EEYSSTm/jxud4u+/B4kal1pJJ7cEZRpfRi0CRxsXYjtz1Y0PKNy+BJOmScnsnQ7eJBFo2QQR9Cc5JvO2N0Ii6wgefojrxm8njJJPTknrOyeHBN5JJJxgggaGiLTlA9Su9E9lLoQjxPE8RqzshXaIZDwkm0knkeR5IlXgggggi7fXndBBHdqV1SzxPESPRCPFDoQ/wCZ4NEMhjTxkm0ibPIVSJV4IGrq8EHizxe56IvBGtZxtm9Si1D/AC8kkkk2m3ohDoTP8z/Jn+bR4MgjKSRVHkKqSpYyeR5I8x1T33is3qk8jyJV6l6snabTaSSRE4zaT0yulQMpp8j/ACZ/nUQRjOifirRGmTyZ5MVZ5nmeZJAuLTZu6ykkm9XAz+XI7+NI/wCSY/4v8HRUvwjCbzZrou0b4zgjZBBBFoIFyIXAx2YrTdYzabM/m/dpJJtJ5HioclX80lMjoaI0eA6YHeCCMYII2QQQRpi8ZQReBVUv9IHSjxPBDUEi5tTwMd0Oyss5tVyU8k4SSSVelKKv+h5FdNLUkjErr2JReqki0EEDV4IIIIIPEgggggjOCCMVZIgggggggjFJIVTT9Mp/onyQfhVamy4GMYxcjsrLTXyLnGbMb9McqkpcoftQNQIp/mVUJKbU84weIqTxtVelWgggggi0EEEEXgggggawV0iCCCCCLQQQQQexEwj+f9fFQx8ehoaErLgd2JXWpFfJTzlIyp/8WN+oRCRCKqE0eAj+nFqP/OaGPi69iwlHkhO0bankkRtaXqLIg/nU+LodnZn7grTebPCrkp5P3OrgiPZIh3/panjTVxenCqpzCJJJE2hOdrHZWQt3uRL3Zn8+bo/LvZOL5KOT9zq4HxhNq7LQiu9OmnZVwMdkNFK38iP/AJalRgld2WpvH9KOdFbHdsQyvnUivm6u+MqdaHZ4JYyjyR5HkjyR5I8keR5Imyd6ebqzwWxXRRzlNuXJM3dmyp+xHkTmirmywrfrFMpjWip4IQroY85Js2Lk9CTKE1dCHgtCyfAijOrgXppHDizs3A3ebSJieCHZYV5QUN62PCnBDznB8i9CbJYqPFXQkPZOMFXAiji84VD5TKuLO1THlImSK34MRTh/TBCRBAtVWNOH4Meqpez1JRS6uCmlUoquhD6MlXAijjOoj0Q3zZ82elMmz4GIpw/pzghXi6yYxivTgx6/8vftlNFKOLVO6KR9KrgRTxlJUsfwelMTExv1ZFOFXONJGc2mzHjTdFQx7qvRJNqR63irVcCKeNatUtSs36sinB4060VDusUMY85v5MVTPNnmx1Tekp2PFWqELjbVsdkU8WVmoxp1odnZCFdDY9k4TakpeMEa1aoWxWr1od1dkSeDIYkQLWmPCCnF7PFHieKPE8EeKPBEQQQRaCL+z2SyWSSSyWSyWeTG5t5nkeR5M8meR5HkjyQsKtjuhWeEEand4IpwY3aNXkiUSiUSiUSj1b0eiLQQQQQQQQQQyCCCB6JwlidqudaG7qyYxb4I9DGKyKUK7HZvB5R0XqYrRj6IR4odJDsmNzih2nQhdL8HjTgx5Ppvcynkead5GpGtEZq6ZJPQfAx4K0iGMfxmU4skkkkm0Wi8bJJwWybuzwVlaoeL+Eykm7ZI2SSSSJ4PnW80LKbSSTjVisX2ZwknUym7Y3opdkPoK6ZO6rGnnBjH8dlLs2N6U/d3unFC2J2q5tN6cHZ996GIbJyjFH51UydE4IqHZWpvA8JJ+LO2lj46kiFm8qh4U4VYR1J1TlI9yfsq460nkeROlFXOKwqH9ZFT9dmSSSckVYIWFQ7z9KBFXHUkWDFeTyJJu8ELBj+O+k12FokbwQsHd9t4zhI+k166qII3IkkVnd9ObSSSSiSSSSSSew+OqhWgjTNpvImeQ90okkkkkkn4iGPqrKEReLPKSejJPyKebNdVC0QQO0fWjVTzapdZPQiBrBJsh4vah/Kps+OqhaEfgx3pGP4j7FF31lofA8KSodo+1RZlXHWWSs+B2m1HBUPFD+tSTdrqrND4HaBlBVzZ5P6qeFXUmywVkPgd2UFVnjP1kJ3Y+qnkhseFA+bPB/YkTvUuih3WKtUPCgdnd/FXTSkagTE5tV1Vgr1Dwo4GO7+SrPciJGoExM5H1FnUx3ZRwPF4R8RWaI2qzUjQnape+osFeod2U/8AXVOp9pWketiFdqycD99RYKyKh4LjQ/jJ2nbTyLBqesskPnGPX3GUc5VLqrJDJv8Ao/nvdTnUtS3qzHf9GP50EbaObNjqJJJG+1+WYiBclQ+ovkSST3kPgYxWp5Hpgj/0xZKzHhRyPRJNn0IIvPcfaQslZjwpHofWggjtvjSukslZjwp4vPzHtfwkVYMp46n/xAA8EAACAgAEAwUFBgYCAgMBAAAAAQIRAxASIDAxQAQTIVBRIjJBYJEUFVJTYXEjM0JwgaEFYmOSQ3KC0f/aAAgBAQABPwLyKutb/s3RXSV0dGkrK/7FUNdAs6yoo0lbq210tFFZN/2MeyjTwkttFZvKt1FcGiuHQkacmxvySivmi8kPhJb0yyh76yvhvhpCWTf9m1soryRISyb/ALPIS6OiiugoSyb6Sv7FJC2Vtrpq3JCjQ2N5WX/ZtcWs6K6ShRKobov+0KF5Eo5N5Njf9n0LOt9dJRRWVZN5SY3/AGarchCRWdZUVtrjVurJvKUhv+ydl8VCL6yiis2xsb/stZZqNRqNRqLL2IsTExPiUV0TY5Df9l6KK22ajUaiyyxTFMWIKZqNXFrjSkORR4I9k0o0Gkr+zNFFFbLNRrFiEcUWILEO8NZrNRZfFoorZKR7wsMlFjwzQymWzUzUWjwKNJpNLK/sxRW2zWzvDvBYh3n6neCxRYp3h3hrLL4TybNDkxQorOjSaTSUUUUUzxNTNZcT2TRF/E7v9Tu2d2zS/QrOy/7HUUUaSmaTSzSzxLNTNYpms1ms7xneixTvEatlZN56CuC9tFGk0mg0GhlSPaLkan6Gr9DUvQuPoeyUvUr9SimeJZZZf9hqO7Ro/U0Gg0M0M0v0HD/qaEd2aGVlqNZrNRYpMU2d4d4axyLKK4THsXDoo0mk0I0Gg0P1Kke0W/Q1foXE8PUo8crL/sGsrZqYpGpFoqLO6R3P6ndyHD/qaUd2ju2aWeJZqNQpMtiixRroELpqNKNCNBpZ7Rq/QtHh6lfPqWVFFcHUzUaj2WPBgx9n9GPCmip/hP8A8lfoaP0I4Yocd5rraNKNCNB7Rf6Fo/z88pFFFFFFFFFbqKyTLypehS6F7F5HRpRp9Ge0av0LXr86UJFFFFFFFFFFFFFFFFFFCRXRvYheT6UaWuTLkjUvmSsqKKKKyrdEoRRRRRRRRRRRRRRRpK6VjzXldGguSNS/b5iriIQisqKKKKzrOiisr6VjzQvLaKrkamuZz+akIREXGvqHmheYOJbXM58vluiit72IQhC4t9S80LzJxL9TnyK+WNJpNJRRRRRRRRWaEyLF5Mx5oXmdGr1PBko7b+VKKKNJpNI4jQ0NZoiyL4d31jHkheZvPDlb0v4klT+X6HEcRrNEWLgt31rHmvM7XxJRKIR9pGKvHa3Qvltj2RZFi3ykWWXlZZfRUUUNFDQ81w6KKKK8lUq/YSTXgJUYnjlQ8pwU+fy4x7ERFunMbLLLLLLLLLLLLyvgUUVuZRpNIoleaJtchYq+I6eTl8h10Hdmg0GllcF7EIW2crHsssssssssvdZZqRaLW9jHsWVGkrg2X8/UUUUUaTSaDQPwzvakJCyWUmMo0lFFbLLLLLLLLLLLLLLLNRrZ3h3hrRqRYx7FvoriL59oooocbJRoe1CFksuZoO7R3SO5R3B3LHhP0HhjgOJWyy8rLLLLLLLLLLLLLLNRrNZqExPhUaSuAttGkr57cbJwGiskiOFYsI0lFFFFFZ0VlQ4L0JYSHg2PAY8I7tmg0s0mkorgWWWWXtWVikzWazUWWWXtoa4Kzo0mk0mk0DgOJXzpKNk4jWSMN50UVxqO7j6HdRO6j6HdR9DuEPAHgMeC/QeGzQzSUVxbLL2WWajUai9jXBs1bKztEqH86ziSWcGQdroJC31k0UaF6Dwo+g8BD7Odwx4MvQeEzQaSuJZZZeVlmo1ilk+FYpGo1ms1Fl/NXeI1o1Fl8BmJEeSMKQuPJC4zEUUaF6DwY+hLAiThp2UUVw7LLLNRfmNfJXeHeCxRYwsc7875HeI1r1LLLyxF4Es4Mh4rjsrjSEtjGYo88KKceR3MPQeAj7OPAkvgPDfoaSiv7C2WajWazWd4d4d4d6d8d+/U+0MfaPAeIahMgYXLqnse1jMYeSMDNFFHdp/AeBFj7OPAl6Dw2vgaDSV/YiyzUajWay8kQMHqnwGPLFXgPJHZ8mnYs6zooeHF/AfZ0+Q+zseG18DSV0tfNGk0mk0lFFbrLyQiJgi6h8FvOStElkjs+VbFsrKiiju13lMxOz6VaZ3bq6KK6CjSaTSNfM3cndHdndmg0Gg0Gg0lFHISXO6EIREweYuolwXsxF4jy7O/azXExVTUjE8cIw/5ZL2nyHgeg8Oitt8ChIUTQd2SwyUaGivL6zrqaKzrdXGrKv0NKNCO7Q8I7k7klhEoEkNFFCyiYPMXUS4D24y8R5YD9tC401qiav4dGF7hiKpi5FWSwV8CeG4lnwHVcFIjESyoaJ4dkoFFFZVsooorfRRRRRRRRRRRRRRRWVFZ0UVwaKKK6Siiiiiiiiiiiiiiiiiiiiitsf8AkcN84yF2zAl/X9RST5NPOhooSJRMVE14jzWUTAF1D32Pbjollhe8LJcXGhTsw/cRi/Aw/cWfaOQ9lFFFbILx3yhZLDNBpKKKKKNJoNI0PakaTSaTSaTSaTSaTSaTSaTSaTSaTSaTSUUaTSUaSiijSUUaTSaTSUaTSaSiiuHRQkaTSaSjSaSiijSaSjSaSijSUUaSiiiij2nFJqN+hKowWqLu/UwpqOluUkrIdspt84/sQxNcFJcmLNEjEZPmPYiJgi6h73ux+RLLC95EeCt2P7pFuH7E8RSML3M+0L2R5UKIoGg7slClmjDXAocBwNBpNI4EYiiUUTHtjE0mk0mk0mk0mk0mkoooo0mk0mk0mk0mk0lGk0lFGk0mk0lGk0mk0mk0mk0mka4dCQomk0mk0lFFFFGko0lFFFFFFGk0mk0mk0ns0udD92Omf+JeDKnotK/EWuvGIpNX7Mo/5MDtsoJRcW0viYeNHFVxLEyRiEx7EQMEXXvdj8iWWFzRHlx8fkiK9knh6f2MKenma0/jlPxJwplFEURgVli5ogvDhUUaTSOJXtZsm9qILOiiiiiiiiiiiisqKKKKKKKKKKKKKKKKKKKKKKKKGS4SEiMSiiiiiiiiiiiiiiiiiiiiiiiiiiXeeHKXh4UT8KTj40PTpVohWjw5Wcot63f6nw9+mYWJLDnaxLMHtEcWP6iJGIyWayRAweQl431z345LLB95C5cfH+BHkjFl/SYeF8Wd0juv1O7Z3VksOiiKI5MxH45xFxmP3hZTY9iEiIvI62smPgoSIoS6uWmvGDj4F+ylHE8PRoep+7JLw+J7VRVRk/0Gp6EmoLx+J7TXhpFen3V+xh4mLHlEwcZYkP19CZMeVZogYXIXXPfjkhnZ/eQhZrh9o+BdIgtUs3m0aEKNCykS554a8egayZiPYhIihLgPGgv1H2r0ij7ZP0ifbZfhiLtsf6oP/BHHwp8p+P69YybHwEIiiK6zlUY4jJRk+cVKlziyWm/6io/r4I9ml4S+pUv6YnwTr6CSa8ISOzYiwm5eKrn4EsVSVokx7UQMLkLrXwMbmPLs69oXHx/eQ/EhHTHN7llie6x88kYfRSJvx2IghLf2ntUOzQuXP4Ixf+TxJ8l4H2rFfxR32J+L/R9omvRke1x/qTRHEUvGLssw+0Tw/dl4ejMLtUcTn4PqWSJPgoiiKF1kk/wfD4EtPrpfoyT0yrVX7F0/f5IbXh7X+h6KWqxSVfGi1Xx5kZSUffpPwIyrw16l60N7kYZh8hdM9zHvZjcx5dn94Wa2rfi/zEJeOx8DG93NEOXRYhLYjDXA7bi992qcvgnSzsvJNp2nRg42v2Zc8oy0yTMCdrSx9OybHwURRFdb/V7sjWrftSv9htf+O18fiS5+8hyaS/iDbrwkW/VP9z2tP9Jpf4IsUv0qi9yMMhyF0z2sb4DMX3h5dn59BP8AnLJZvas8f3c0R5dCzFHsiQ5b5Oot+iHzyXwv/B8f9eJ/SqH4LKHhOL/XPBftRH08ibHwEIghdamvxOiT8a7y/wBCXvP3P8ni2/CLY7VXCI7f9Fn9Pu/4OSfsUeHj7Iq+AtyMMjyF0z2sfAZi82MR2fa+HL+cIWb2rPHzjzF0LMXYiJHf2uWnsmK/+udFbMNXix/fPD95D6ZkyQ96ERIC4t53vvd7VtWh3qdwXPmYiWt+zKx18dXJFx0x94uP6irnqkavZft+ApS8am/8nN296MMXIXTPbLatjMTmMR2fhLdL+cIWb2rPH55w5i6GRi89iIC3/wDJuuwyXq0jSUabKj6MaooowF/GWUfeRgfzEPpmYhLgIRAjwbLNRqNRqNRZqNRqLLLLLLLLLLJ6fauL5/AenW07/wADrV78l+w//tX6s8aXjE1PSrlHn6F+HKDR4aa7tc/U1Rr+Whe9viYQhdM9r4LJjEYHLjykorxHNd7ZHYxZrZj+9nDn0UjE57EYYt//AC0v4WHH1ZdI1o1Lll8M8Fe2/wBsoe+dn94fTSMQlwEIgLgSY5Gs1ms1ms1ms1ms7w7w7w7w1neGs7w7w7w7wum/bZO26co2V6Rgyn+Xf6eh8P5f+yo6aeH8TQuWmRpjX9X0KivC5Wzk/wD+i3RMLmLq29q2y5E8kYHu8ftEvbMP2pURVbHsWbZiO5Zw5lll8efInz2Iw+B/y8/4uFH9Buxc0WRXhyIqzxywf6nlh82dn5NjZfSyJj4CIkBb2TY2WWaiyzUWWWWWWWaiyyzUajUPxb9mLH41/Df1JxXLRI8NNe2kezSqdlR0v2viKtNaq8RJaffdmjVhN614eovD4oXLaiJg8xdK9z4U+RLJGD7u9bVlN0iacrZGDq0YE9S8eex7myTHzziaiyzUWWXw8TkS2Iw9+JLRhyn6KztWK+04uuXh4V4GlFZJ0Kdev1LNXgYeMowp3Z9oj+pHtEF8f9GD23s8cOniqz7Z2f8ANiQxYYnuSUv26RkyY+AiJAW9k2SGyyyyyy91ll52WWex4rxqxqClep/QxEnO1io/af8As9v2fGI09PjKPMV6fCUf3Oa8ZIjJ6Zq1JCjuREwRdU3w5+6SyjzML3eGs8d+BXsGAuZXdYlrkLxzltbGxvYsrLLLNRqL4WLyHsiQ39slp7JiftRIe3+nfh4ksKWuHvIi9UIy9VfRsmS4KIkBb5E2SH0ntfjQ1KMn4r6j1KVXD9mTT8aiin7N4Z7Ve78TTNq1hePpRHs+NLnDT/ocK9L/AOoo18K3IiYIupY9y24nuksomH7u9b8bxmNeBgc2TjqiYMvDTnLNEmN5Ph2JiYt7MYeyJHlvxsOOLhOM+XMc/H4Fsssssvwy7rE/CzRP8LO7n+CR3eJ+CX0NL/C/oYeG8TEjD1E/AvomYhLgogR4EyYx9Ik9Xu8yV6v5Y2tTjpv/ACfw14ytr9BYmHGv4KderJ9qv3cKK/ZHfzp3KRqtXql9TCh3smrn+pOI9qImCLqW9624vIllDmQ5cJZsfji5YXhN5P2cW85bJvOXFTIvezGHsgLfjy0dnxJf9Rb4R/ixRRQo+I0aReAhdFIxCXAREgLgTJD6VaS1fhZKXNOb+g5NeGtrwHL2V7TbHbXv/EV1Wtf5MKE8R6YyMLBWHh6eZirxJbURMEXUvetuLyJZQ5kOXFZ/8gheGLli/Ajyylm+RLOXGTE9zMbYiAt//IS09hxP18OB2f8AnLJL2kYMbmOA4GgoXRSJkt6EIgLezEJDH0lu+Z8f6PoNW37EPqP2m/4asrl/D+jHH/xmB2aWN4aKXqYXZoYEaiOJioltREwSPUPgLbikssPmR4K2M/rImJD4oWJ6nvzFlMWUuQ85cZCYntZjc9iIC3/8tKuzQj6y4HZfek/0yw/eOzR5jRRRRXRSJj4CIkBb2YhIY+kSX4H9Sl+XNfuXFyXvcx6PF3LmRw3OemGp/wCDC7BXjiSf7EY6VSzxSW1ETCI9RLgrZikssLmR4suR/URWTgmKCWcueSJjzl0CYnskYvPYjD4H/MP2sKP6XwOyr2JP9csL4nZ17DH0rJkx8BESAt8jEJDH0ig68G/oyHZMd+NeBDsXaG/apIw+xQivaWpiio8lWSHliktqImGQ6iXFxR5YPMXFZRDlteyex9CmJ5z5GJz2Iw+B/wAq77ZXpHgdn8MFZYS8DCVYSH0rJkh8BESHAkTJdSt2KTHsREwyHTsexbFtxuY8sHmLjafEjtlsmPN9ChMTLJvwJc9iIcDt0tXbcV/qfCt8FWHFfplhe6iPhCP7D6VmISHvQiBHgTJDH1C2sxSe1ETCRFdPLYuCzF5jywOYuK8ltlksmSWbF0SZZOXgPnsiQ4GJLVizfrLfz8M8NckMfSyMQkPgRIC3smSGPrWYpMexEDCF0zG9i4LMTmMRgcxcV75ZLOaGMfPo7LJvbEhy34j04U5ekXwMNXiR/fL4owVc0PppGIS4CIkBb2YhIY+l75Heo71ep3q9TvV6neL1FiL1NfjzNf6mLL9SctiEQMLkLppbEuE+RPmMRgC4ryQ9jyWcuQxnxF0k81lEjy39oV9mxV/1eaTfIaa2dn/m/ssoe+js69sfTSMQlwERIC3sxCQx9L3h3h3h3h3h3p3p3o8UlMb2IiQMIXTS2LctkuRMYjA5dC9jyWcuQx5Lo2SzWUSPA7Z2OWBNtK8N8sk6PhctnZl4yeWH7/8Ag7N8R9NMmPgIiQFvkTJD6uyy96EYZg8hdK2PNLhy5E8omD7vQvN5rOYyWS6Nj2xI8BpNU1aO0/8AFp+3g/Qng4kHUos1N7Ozw04fj8csFeLZgrTh/uPpbJsmx8BECHAmTJD6bSUUUUUUUUUUUVkhEGYMvAUjUWWWWWXlfDY3xFnP3SeUeZhe6LoHnJ5rOYyWS6Nj55LOJFi4M8KOIvFGL2CP4b/YfYYfBn2KPqxdlhH9Ssuz4HgvTp2ybJcFECItzJkhj6bQaDQaDQaDQaDuzuzuzuzuzuzTkmRmLEO8O8O8O8O9Z3r9TvWd8zvmd8zvmd8d+d+d+d+d+d+d+PGR3qO9R3qFio71HexO9id5H1O9j6nexO9R3qO9j6neR9TvI+pOa08yTyiYclpXial6mteprXqa16mteprXqd4vU7xep3kfU7xepqXqWWXmxZPNZzGS6WW5ERC4UoRl70Ux9mwn6r/J9jj+OR9ih+ORDs+Fh8o/XqGTY+AhECO9kyQx9NRRRRRWVbqKGskLZZZZZZZZZZZqNRqNRqNRqNRZZqNRqNRqNZqNRqNZrNZqLyTFM1ms1Go1Go1Go1ms7wWId8/U75+ou0CxzvkxTXqWN5rOYyWS6OWS2IQheTSMQfAQiAt7Jkhj6buzuzuzuzQaDQaDQaDuzuzuzuzuzuzujuzuzQaDQaTSaTSaTSaTSaTSaTSUUUV5FZZqNRrFiCxDvRYopCec8pZLo5ZLahMQvJKJGIPgIiQFvkTJD6f72xvww+h9643pD6H3rjfhh9D71xfwQ+h964n5cD72n+XA+9p/lwPvWX5UD71f5MD72f5Mfqfev/hj9T71/wDCvqfeq/JX1PvWP5H+z70j+T/s+9MP8n/Z96YX5L+p954X5MvqfeWD+VL6n3lg/lS+p944H5cz7w7P+CZ9v7P+GZ9u7N6TPt3ZvSf0PtvZv+/0PtvZf+/0PtnZfWX0PtfZfxS+h9q7L+N/Q+09l/M/0faOy/mf6O/7L+b/AKO+7N+avod72b86J3nZ/wA6I59n/Oia8D82JqwfzYF4X5sPqXg/mw+p/B/Oh9T+F+bD6n8P82H/ALGmH5kP/Y0w/Mh/7GmH44f+xoj+OP8A7GmP4o/U7tesfqd1+sfqdz+x3D9DuJehPDcefhmkKJoNBoNBoNB3bO6Z3TO7O7NBoNJRWdllikRxBTvLEyl0ssluQn5NMxR8BESAt8iZIfUX0t7rLzsvKyyyyy+LZeeFG2LDj6Hdr0O7XoaF6GhehpKKKKNJpXod2vQ7qPoPBR9nQ+zjwGvgd2zSVmhMUyTtDH0jJcFMXkszFHwERIC3zJjH8oYC8ULgLeiho0k8Neg8EeEaSs7yfSMeS3oTLL8jmYg+AiJDeybJDH8mrms8D3kLgLcxZPJlFDgh4ZWb6VjyXBTL8jmYg+AiJEW5k2SH8nR95Cy7Pz47E9j2ygNFDH0jzXBsQvIsTkYg+AiIt7JskP5OjzEI7Nz4dllljYmWWXvcbHEaHw7LL3vNcJCZfkOJyMQfAREWVll5yJskP5ORHkROzc+DeVmo1Goss1GosvfROI+fFssva+NYmIXX4nImPgIiLZZZZJk2MfychciJ2bgWaiy99lll758iXPoLLLLHkuKmJi65mKyY+AiO6yyTJMfyehEDs3Le2WWXw0XuxOQ+fkaExPrmYpIfARHfZJjH8noRDmdn93c2Nl8axMWzE5D59TfDsTExPrGYpIe9ESO9khj63x4leTLLD5mB7m5sb6BMjsxfd6my8ryvK91iYmX1bMUkPeiJHa8mSYx+Wvw8i+OWGYM1pSFlY2WN9FF7MX3eqsssvZZeyxMTEy+qZikh70QI7GMYyQ/lBc8oGAvERY2ai+jiLPG93rryssssssssTEy+qZiMlwEQI7WMkSH8oQ55YfMw0lEsbL6VEc8fl19ll5WWWWWJiYmWX1EjEJD3ogLcyRIfyhDnlhcyL8Bsb6eLz7Q/DyOyyyyyxMiyy+lvORiEt6IkBbmSJDH8nwywuaFIvqIMQzH8kssvKxMixMvZZZfRSMQe9ESAtzJkh/KEOWWHzEy+oiyLGY/veUWWKQpGosssvK8r6CRiDHtQiBEW5kyQ/lCPLLD5kX1KIMZjv2/KrFIUxTNZqNRZey8rL4bMQe5CMMW9kyQx/J65ZQI9SiDyxX7fllmo1Go1ms1GossssvetsjEHuREwxb2YhIfyguWUBdVHKfveXWWWWahTNRqLLLLLyvNbZGIPciJhi3yJjH8oLllATyssvpURL8B8/MrLLNRqNRqNRZZZYhbWTHuREwxb5EyQ/lFERM1Go1Fl9LFjfh5teVllmo1CkahMTEyy8mTHuREwxb5EyQ/lJMssssQulsb9nzq8rLEzUKQpikaixk2PciJhi3yJjH8rIXTWN+zsrzuyyxSNZrNZJj3IiYYtzJkxj+VkLp280SXs+V10dlllje9ETDFuZMkMfyeue9C6Z7ENewPyqjSUUUV1KIsw2Jl7WTJD+UFvXTvZHmfAnz8qRRpNJpNJRRXTpkZixDWaxTLLGzEJD+UFsQupeyHvZYvPypZ0UUaTSaSiisqzroLFI1Go1ms1monIkx+ZUUUUUV1K2IXUvZhe9li+VIW6ijSaSiiiiiiiugssss1GochsfklFFFFFeTrYhdTLZg+9lioflKFvooo0mk0Gg0mk0lFD6Ky+u0mlFIrzZdVLZgc8prwJc/KkLfRRRRRpNJoNA4DiOI0NfNCELqHswMmYi8fKkLbRWdFFFFFFGkcB4ZLDJRH80RFwr4z2YGeLHypERcKsqKKyooaMRD4FfLS3ITLLLNRZqNRZqNRqNRZZfBezB93Oa8CS8fKkIWdbqKz+L2MxSW+jSaSivlddDZZZZqLNRZe15LPC93NmIqflSIi4teOxmKSHuSIQs7olhkl8xUUVwrLLL3LJGH7q2YsR+VIQt6z0rVq+O5mKSHtREw0UTiTQ/lxIooSNJpNJpNJRRpNJRW2xMT2rKPMh7uyatEl5UiIugZikh7URRhrKfImP5WW1CQkJCXAoooooorYhPJ5LKHMXLYzEVPypERC47MUkPaiBh5TJj+W0IQhcWsqKzTFmssNWxbcWI/KUIiIXGZiktyIGHliciY/lZbYoWS6Ct15LLAXjukvAmqflSIiFxmYpIe1ETDyxCQ/lZbEQj4FdUhHZ+W/Fj5UiIhcaRi8yQ9qImHliEx/KyzREw4+wj49UhGB7u/EVokvKURIi4zMUkPaiJhZYhIl8rLZE11FLrEYHub2YkfHypERcaRiEh7URMLLFJD+VlsQmLp2PNHZ5exwMWI/KURIi4sjEJb4mFliEhj+VVsQhC6d7MKelkJalvmvAmvHylESItnx4MuRiEt6MPLEJD+VlsREQunYs0Yc6ZCWpb8WPCXXoREWxcBkzEJb0YeWISH8rLlsQhC6di24c6ZGV7sRWiS8fKEIiLiz5GIS3xMPnliEh/Ky5bERIiK6Ziyo05IwsSiMrW1oxV4+UoiLiz5Ex70YeWIMfy0iJFCL6ZiyivE0WiUKyRh4lEZXtxYj3oXkCIiFxMTkTHvRhjJkvluJFC6d5RyiQJ4epEo1kjDxKIu9kl4E148BeQIQhcTE5Ex74mGPkTH8sWIRBEYiXTvKOUEQyxcOyUckzCxaIu9mLHyhERcRmLyJj3xMIfImP5XYq9BETs2EpWLs6Jw09O8llhkULLFw/iSWSZhYlCeeKrQ/JkIiLiMxSY9yEYZLkTH8iWWX0SQiB2ReyJGLEa6aR8RZQ5kRZNGLhfEayTMLFE7ylyMReO5eQIiRFxGYpMe5ETDJ8iY/PbLLL6b45owzsq9gRQ8NEolCwx+A+hkIWUCOxoxcKhrJMwsX1E8sZD2ryGJEQuGzFJD3IiYfInyJD83sssvrPiIQjDOzL+GLOcEzRFEpD6KQhZQREWySsxcOhrJMwsT4MsxV4D2ryBESIuIzFJD3IiQ5GJyJjH5dZaLNRbL8iXPJETD5nZ/5a2TkSkX0chZ4SIoW2UbMTDoayTMLEsnyJ89iF5AiJEXEZikt6IkORiEh+UWWWaiy+PZfUrnkiJhmB/LWVkpkpX0shZ4PIS3zjqRiQrOMqIYmpUYvPJ5IXkCIkRcSRikt6IEeRiEh+R2WXxr41ll9HHnnEwuZhP2EaiUxy6Zkc8H3RcCcNSJwrNSolK0PNC8gREQuJIxCW9EBcjEGPy2+FWyyy+pjmiDI4vso7w1F9MxZ4Pui4OJh6kSjW9C8gREQuJPkYg96MPmLkYhIfk1lll8Syy+vjmiLIvK8r6RjI5IwV7C4eLh34okt669CEIXEnyJj3ow8sTmS8qrbZfk8eWaIkeoeUcomH7i4mNh/FEkPahdchERC4mJyJj3owssQkPyOvM48s0RI9RLKOUeZD3VxGY2HQ/JERELi4vImPfEwh8iYx/Iy49i5bIkcryvKyyyyyy+JIRHKHMjy2WWajUajUWWWT8UTVMfkSEIQuLikx74mES5Ex/I6HtXCWyImajUazWazWazWajWKZrNZqL4MhCyh7yI8srHIchzNZqNZrNRqNQ5GIPg31KEhCFxGYxIe+JhE+RMfn9rfXQLnsQmaiyy+BeVmo1Ckai90hCyjzMKVxHIcxzHIsvJypFlmo1DZJj8iQhC4rMUkPfEw+RPkSH5hQuK+HWxZPf8clQuDRRRRRW2yxMT2yELPDnQ5jkXwmMfkSELjMxeZIe5ESHumJyJD8orpazrhUUs1wPiNCW2iijSaTSaTSaTSaTSaStliYnslzIizTL4jGPiX0qEIXGkYpLeiBHkYpIfk1eSVtQ8k9i57UJGkorOt1FFFFbFsZHomPyBCQkIXGkYnMe9EBcjFJD8x1dEy+K1ks1722IuhorNZvmR6Jj8gQkJCFxp8iY96MM+BiEh+YO8k/hwW6LsbG87yeS4LyWT2L3tsBdMsviR6Jj499AiIhC4+JyJj3owueWIMfmDfhkufAbobvYllpNPHQ8lkve2IgLqPiR6JjyXGvjoSELoMXkTHvRhD5Ex+Y0aVwZK8kaWKPBeS4CeTWSI89iIC6mPRMeS6xERIQuOzGJD3IiYRLkTJeeaBRrirfWSzRHnsRAXUx6Jj65ERC6BmMSHuREwifImP5Cvbz4iyayhsRDqo9E811iIkRdAzFJD3IiYfIxORIfmdVw6b+Io5N7tI1svc0ULJohsRAXTvJdE811sCIugZi8yQ9yIEPdMUkMfkn/8QAKxAAAwABBAICAgEEAwEBAAAAAAERECAhMDFBUUBhUHGBYJGh8bHh8NHB/9oACAEBAAE/IeVIghISJmEIQhCE0QgxCEwyMhBrQ1phCEIQghIg8D3eqEIQhCE0QhNExNMJiEJ+Fn4xYWtavGmccIJCQkLCYQhMTEIQhCEIQhMwYaHmEIQaIQmqCCCkew9KEEsQhCEIQhCEzCYhMQhCEIQhCYhCExND/ohZum6bh48CSEmQhMTSsIWUEiCELFicaITCZmEGMZBomYQhCDRNEEEUiG4U0zEIQhCEIQhNEJrhCEIQmIQhCEIQmYT4k/FrKyuWl1plEIQSsYa0rCFgSyhNoMTCEzMdmiDIQawYmuEJkoQgUw8QhCEITMIQmIQmYTM0QhCCWSEJwPROGck/JrVct5pSlLjbgm1ExvbRBLCWBIWEQWwkg3CQhNEINsG9LRCYa0oQaIQhMoyA9x8ExMTVCEITMJrhCZmWTExCEJ8KfFY/w94HwVzRMoSEEIQghMoTg99EJomIQmJh4YxohCZmJlXtge43phCEIQhCEHxQmiEEuKaJofxZ8Z/g7m4uaNj1TEIQmEIQhCaREJoSw9MJoEGPTNMGiCogPY9eGy8kIQhCDbRNUJpWiEITRCEIT5E+A/xFKXFwy6oQhOBCWBBYSwmZhMwhCCRBrDeWNEJloommopCAxjGHrQmhF4JiEH8Oa4TExCE1zVPhP8ddcJwrCQu2EISEswhMTCEyQmGQhCDRMQhMvDWDGKGE2Y2NjepGxcwa1rTMPlnLNM5pmf0A+CZhCZSEIWHbKQlmaITgeYQay8MhCYEkieyH2IWBvKzNVLwL8E/hT+gni5hCEIQmIQmUJghKiExMzCaYQmtsY8TCMIKiTG8q3lL8DPitc8zP6JhCEJhCYSEhhG3jULEwnAIQmYTLzMGUudxIj0DwM0r8u/x80zlXyC4uqYQhSUIIWiYhCC1vRCEHhrBBiU6KiVjbrzCEFmfgJ8Wf0g9VeCKH7kkaBSlGFojIWiEIQhMjWYQhBoeGtLR1nmseYQnNNa0z8FCE1TM4Zic0+Wl8WaBDc3RWWVoP7ixFCl5EiK+wmXTNEGsJoYxsuIyZiWEL3MVeSx9BuivXyJifgXzT8DOafIpSl0QmgUQrKyhMhMNPsw/aIpRIQThdcIMY1R4IIPEkOsQ3Y0MwR9iSe5H3RY3ZLJeCl4zSlKUv45/Hg9L5p+FeHqubqmSEynQkCcR+wQJvYzzgSsSexI/IsV0wZCYM2thAJDDQ0MNPQ0GGuej7CoJAvZFu0bzwA18D1MafBMV6Ny5KJ65mEIQhMz8VPyz4Hx0umXQaPqEz8H0H0ET2UhKF7iRIL0ZXsSPInEiZ5EjLiaA3TsXsQhjwx4Y9BCQhBBJA/sfYQ8m3ySPegz9miCnwLwbPDKwWCrTNEzCEIT+n/PxEIli9gpC++D8B6h/eKdhk/RjT4GyKykJkISxfc9rCTCwVNwqFGGPLHh6RYLMxCEJlHoaDXBBPvAl0zae8R5P0M39D6Mg3yXM0QhCE/BzWx/knl6JiciQkJCFcK/eBAyC8mFkbetht4D9SYxdh+top0xqWzpPwRPaE6E/QnGkUHsKYYxjwx4bGPmIQhCEILMUINPR9Qy+rJ+TZ9n2P70bhRuUvDCEJ8uEzCaWP89CEJmEIJG4JCC0EwkTMC/RL7R7UsCw/thqe7G/kKynYb6Eokw8seGMeGPSJC+CtMxMQgfoxNl0yJ9lLsfxCafhm80zCEIQhCEIQhCEIQhONj+NCaJ8p6IQhCEIQhBIgkJYUUU01aojxCaBbeRohs/B9QavBFoYx4eHhjw8HhHcXO9Ky0Tij0NxaCp4pPlhP6/DnoeHzTgmJifJeXphMQhCYQhISFjILTuh8IwRWKoLqY8sY8MeHg9sL4I/gzVE/A3HmB5iond1HfTv4N6GMfBOaEITRCZnyJhMP00KYJEELYWCCcoEsiKCPQ3wPQx5Yx6BHQXwXzviasfozytxO7HfX4FjHhj+bMwhNEJ8KEwgkQg0NDRMIW+VRBLUCEwhNA6HxHljHljGdMl8IehaHwvkasvczR4G/aE10fzni4pSlKX5s0zM1PjhCEEtiYY/hghCYYbvG8sY8NDGMaxeHG+C8oXDMvmaPKjpbkJrsw80pfhtjY2UpRspS4pSlxfnTQ/hCYhCDQhMsNoy4oNjEINcT0MeWPDFGsnF8NC0Qmpj+BDyITrbevZsla4NDxRclKUpSjY2UuGy4uLwX50JiZhOO9XzDLLDwQ2+iC4m4N0Sy8QhNT0vDGMY1gg1h9/hHhC5Ghr4LRsdWwp6/yKOzTPQNZuFxSlKUpSlKUpSlzcP8bBrM1QhMTEwjMw9QUTGwUFwtxDwUpRvVCZel5YxjGvhjCYeEIXI+e4gkG0N77DPC9P2WMIeaUpS4pSlKXD0P8GtcJmExCEJiYmmcUQ9FmC7HmJha24i4pSlKUpeBjRMvLw1hiCEEsVmEIQhCEJmEGhrCFxsfwKUpsGrfte8a/U8GYY1jNV+UmiEJiEIQhCYZCEIQhCapqox4INEFkG0weyLuLQLoFKUpS8EIQmV4LxUwhBa4QmocGNYQuNj5qXNP3fJFc+wsbhMlEUr9piUSS6Wm8b+ZOKEITEIQhCEGiYY0NExCDITjY8jwsWHE8weypTZaXLhAFwpdM0KEGhoaEGGmDBNha0xNCIQaGhoeELiY9FLouLpubhrWjHlsjOymmSMR4G7+NglrhCEIQhCEIQmEIQhCDRBrMIQmWj6CvRJqY8HhaOhCOjrLoYbKXiCFKUpcP1PozFWpMj0YThZHrTEEKMY8ISJhqk1MaJppSlKUvDc38dCaIQhCEIQhCExCEIQhCEIQaGhrEJmagwNfQ1GEYbGxhseEs+ghMX2wbDbVL8B//wD7H2CYjFTyNBtBCaosk4GPJZg1lZY0TE/IwmiEzCZhMQmUiCRBCRCEIQhCYhCEIQhCDRCDWIQhCEJiEITSEw/A2PCxUQSwpGN4sAwfoP1CXkMGjRuiPFwQvOH3X7G/srBKJFC4IThS0Ub1khlhiaX+CmiEITEw8wmiEITEITM1pEzCEIQmYQhCEITMy0MaGQmuEIQmIQhBQm3sTGJgl7IeRRmRQQQhMkJfgb8D0RPQ9ej14GFH1FjYb+iiPRSl1AbLhMYTE/s9osn0T7EvvIhS4iZIwZRsQmUuGWJi8d52jEP5KZmJiEIQhCEIQg0QhCEIQhCEJomiYmJiCQkJYmYTVNEzBrLzBk5YQhARwTDeEiZEIJE1Qg1RqMQ1faG4fUJAZG1bHpeMgPQGFjcohOFMosilKfsJ/YiivuKi52hrKYnoToQTQhQgiNhgwkfxpohCEIQhCEIQhCEIQhCEIQhCYhCExMTMykTCQllLVOZ6povDCDRZG6NCIvCJCRMQROHtjCEIQgw1g/Qp4DQb6PUx+oSCHgbDdDLQ9NxSl0hcEy8if2Jhb7O0d2PK1J0e3GxuNxuMUfNCYmYQhCEIQhCEIQhCEIQhCEIQazCEIQhCEITE4liaZzMY+JO8i9wl9iV4UupKiDEmH3Nw6aJziEzBoaIQhBTc8J9Df4Dg8Slw0QgheEZNNxS5EEEy6Y67LoXBS63yQhCEIQhCEIQhCYQhCEIQhCEGiEIQmITE+AhZXDCaYTLw8PhX2E3sYvIz2M9i9hAn+RAn2ThS1YMTN4eGEiciVYJEEM8Z8EGo9CEiEIJiohBI3chRDwWV4aP/AIAS7Ybl4QmlMpdSE+N/AhCEIQhMQhCEIQhCEIQhCE0TEJxTkXx2MY8MfBRoTexOIr7C+winXkr3gfYPcQszfgYfoIXNNDyzxjuLQS3PGH2PtgmDOxuTPGE2N49w+0om8o3dmhb2O0YbFYTjXA8zihOSEIQhCEIQmIQmiaHonFPkQmZpYx4eGiapqpcbKL9lZU7gw4haFwPU8vPcWIMmgwyg2jOx0Z4HVlguwiYQh2Gj8Cbc9sn7F+ozv2WSYmtcMIMNcE54TMITMJiE0MeHxTEzOJYWELWswmWstDHlrTCadWjNaKPAmdse42510oeFpep5eXkWX2eMPFRlEkxnYbZoS2EEibjwg0TBLB7hqy3jUR0j0zziezbhCEJopS6YLPeK1phCE5JrnA0NaZwzE0TgWUIQtEIQhCEIQhMNYY0NYmqEw2XgbesXhf1HgoZZYtv+wunRvXvQe50fEvDHkhZaohjHy1sSfBHQExYTcYhEo1hZaxo257NonpobLuHNumjaTSumCQsW+LQ2yrIgkQhCEIQmuEJiEIQhCEIQhCEGiEGiEIQhCEwhMIQhCEITShCFhYhBIhMkJhCEINDDQ0NDQ0QhCEIQh2GthJA2PoY2Fjcr0NXgijdyUFEdzqOuqaHxs8ZJCx4z4HG8vQMAQ8iytPkm5MXUNLftPY6xNPZuVj8yTQ96CutbDD8qhoS3zlZSEhItkJoEgPfkmEITSbWiCXwQAAmDYaJoEIQhCEJpCEIQhCEwsoQhCRBIQXEFbwMMMMPQDEIQhCaFFKaRX9BX/bGXfY8CSCbj9oz2bU2NwIQmKOx2R11rLFxPPcWUM8DgfceYdGT7P2ddB9C2y+sLvM2IbQ6Y5Juw1wNDNKvZ2zBBZCQkLASEstDQgQHpO4EFQsMTviEEsC2fCQaA/gGXZ+mD1RvJCEJCEhCQgsFcInYYZYYZZeF4np3vIW90rFUbovSCeB/U8DWT3NvQXdF07N6bwoZ+iz0BCwUXfgrL42PrHbS83oWhf5B0IImm707E0eDp/ZEfkKEknsdQ8Vr0LuQWBYX1E3o3DSEtUGUPUuo89nYdsQSEigvgAB4wwwwx+nwEwg8DLDwHhCEIQkJCQslXEHzLDLLLLx/qPUBep+7ybfJrt/2GxT6to4Nd+fwl/kRslJvG3EsE3rdiK+omCIMNuzs8l2I7YKNvMLSsvkeH3p8DY248+RdHRgz/ADsCPJTwJDPGFh6OsKapq7Dnv9wp2qjF0kKvZFJ9FFYobwr0SkNHpld+KQeGCDYFASx0LMeUhTYEicwACZGH8MAgGyyyuDwhCEISEhDfwIrhADDDDDDD4g/TccfQY9JlD+CSL7t7MZWVrunZEou2vZCap7xTybj7+S9sTtPY6EnaNuPSJ0IPLfxrWXofAzxlD7y48sQujxOw+z/MxLC0vsRNhY8Yc/4RZJP5Ono9Df02huukH5GNfIY+6EN4TY8YWfCFrFi5k2EHQZBD1jwkJiTbBaZiEIQhCEIMaGQmIQhCEIQhCEwhCDWDDjyhCEITfNyQkQhCE0TQ0NYhCEIQhCEKJ4tVuNOol9QZCjRtC3/k7VpX07/goH7qnRZO7aNI3iq25AlUGl0u/wDImuzzCbdj74tYJCO4m4uZaVrfAx9Fy8NjbjwsQ8DdYdhP7h1wYusPOhLMz2PY+h9315Fk+zyKYwXl2Jj3BFgtT4GXYlsdDeHlNEiWrpV9Hvf0Hr/lMfg/sEe2/wB0PdL7am0q+mxkw0PDGPjmIQmhj7YGwhCEIWCZBLlYxjGPD1Q3kSS7b6Nw70ka/Z5qv+B7i77sHCzbKr/yNV1d7tsGGhXpJFB7D1MW+hlBtPc7oTbksUTuFreHqY8LDPA43oR5PA+Frc2J0FhHWhdjF1pcXcqExefOepMPCEw0BwjsLtfgNYbbEeIKVwpEITPYp/5Rv0enSGz1fwfUHl/8Axt9j2hHCn08OzP5CFcT3+hoYx4fJCEIQg8HxPCEIQhaBpzMbGMeXrfW6twUeR0pVO38M8JpvBbK/Q9myLd8zcoUk7vdIVZL9DKu04cLf/BvB2l7Q3H12wUxdHc7CbdDcmVlZWXl8BjbDb6UTcTbR02HUWXnLO2PAtG9JILR8aF2LrDRx9iwWL8FjRDV5SFwJE0zcbY6H9IY9kt9+4WinsMog3tD22PVrzj/ADJ+j2wusGP4jznyhCEIWdBC43hjYxsY8XgqXt7dwaXJTbblR9sqPoO+o28OwgFbdQcRw38oT7WH6bGx3KT3k6HCw/TH7La6K03FwsI7nZHTzFl5eW40hYYfdiuxAuhHnK6Kdnk8C0Ps3Auzpo+Nd+mEdxdvwjbDb4QhdxNb7vH/AIHrv26M+g/2E/Tym7D2Z4f3ETFPP/5h/pFw+mNTP1g/iMY+2TcoQhYLyClxRsbGxspS6boqr3XdGbEruyHU7/BuiwXST67IoG3ldC+LD8C7JvPsRNN9y9l9eejfW5/sfbSjud0dA3EuBDPGV0ONpWFg2J2F3EUR5wXWETcojzl6eeDw9J+sI6Dp8K+4+xZLuJtr/Z5YmPYabUHWmmvNISP1xLt7Op9ncfxj7D6CEIWRROBSlKUow2NjDY2NlKXClKUpbFbvsoOjnfCYbpd5NPyPGzduJ9FEVpYPZ67tVNU7ep5huRbZpdMSSPReBH2D+haVj3WJp0LgYtfkWHrMPLwXQxHQ7sOx0ELDwhYXWHnQ8lNtDvD0nwR0/CdBsELBdzrwNQhIv0JeT/7FPaqfkaDNfoTeN37BL+3B/EeLYPCwhCyoLsLW2MvMeBhn9hh6X7c/74ybn0iofoFG3/KHWFsl0PBq0/YO79z3o193bukL7IkWyOyFql/3HsKFTE19C0IR2E3R0FFwMXAsPrDaGx9x6EtDxHd4dhcV0IYsISx1oZcMNeim6Cz1wYxDrFGwR1iKXn6jYIWCb8CHvLGm4W8Dl9P+RNNbHbr+cQ3v1/8AvG9PpHc/SGG/iMYbB5QhCEFFF2FqZHG/sNxmx/cf3G/sv2P7lZG2P7Y/toDXZzsbSo9IQu1H/cTOPYPM7KpOdngGqslpyUPYVPds4bD+1s6JL9UnYzvmsfoTTlXV43DXfQhHYXYLsLK1MWvyeMPDefGJ6EEhjEdx2H2dzYLueNHkQnsLs8j6EIY+lejY12SJetHUWH2dRspMsCzLAhS8r7hsELFBa5oeHY9z/KNze4ph4F6ZEcx0+xL/AN/co+99H+OyLzrLGOPu8XlCELBBcFpY2TZZeW9w8bLx9z99bn7HYb79E7VFFV3Il973/wADTI0HXmDVXafa3Nm6tfAiN/YCl2mu1sRSm28Cq1Sejrep2QmwTYWE6LQ9dz50mLDex2HhYQh48DbzuM7nRjxlDOgseMkX36PoDsveI2JtmJjrhsXYuhvKvXFhoxZaCzLxPuOwhCO4mwtDxs9bwSHWwg/E2bWtxrcYGI06odXv+4mUCd2DbZ/5IvVkJQKvTLdEkbjd0L4joNoIWUdxRdZ5zb4GGHoBspRsugUugNq2NPIzsZT8hgo/yhpxJdSW9KjUU7272fqg6ET2HY3ba6umbmVt3IW37/kSmt7o6C1vlYzzh4Gx6EIo2eB9x3Hg6tTF0LD6wXZ0SVexb69nQKR3B4uW2LhdnjRs3uLK6AsSCKfAxx3whHY6aXij9/5GdtJeReWlYU2JfR2L9B/3IvwzjjyhYQsFE21mdDeGGGxjGxspcUuLopcuLO3u/wDQzOz0nQ73obiEoe6+zqfuY48b/wCAnjG/ptEHltdh+1v9AZsf9rsep3O64T5EMZ5x0G3HhannD7sGdzq0LCOwzwIR5GNBZAoL+x3Haz0yhDE2PhZpSlKXCONtSwbYbfCEdzq11y+p+h1bRdhu8Is/U/TCth2SxUv+sJdmXl/uhOE1W9XS8sWkS2S6Qvgniw+48oQhCxQXYWpjRDbsfB4Y8MZeTZGirr0bxOFdm0/+S6M3l7BbbJFsPJ02KLrXFutfY9k6vuM31DTXYbs81uZDbsTQsvc6aFzsQxnnI3wpl7DOg6tCwhbYuC7GdD/MHuPALo2ydMTx1z0jdG8NthcNLkU9ZzsIQhNzrr+pmGjT9bj3dHoX2If2kMb2l7ZZRv2VRK2QwwmXneDDDysIWCC7rFaWMfbFxjGPD52aTy4lsfzP3sKcR7G4NgVY1rVB7+xoF+wa7Q9pUbrrb32iSEan7Niqgmp3Q+50Flczwh4fYxuQ+RQmwQ3lC7GeBCy2w+37N+Fdh9zvV/WHLvkbfSXGnmU9PUbcfYhYLuddf8SB5hMpWek3i37CN/fO9/OKYpeZjj74PCwhaCuK0vBtjuPkxjwx8qYtXv12bw2nV7W4qE77XcTYM2VU9rJ+2QdNm/yxn5TemiQ/2/LKIg3i8rDxG3OgsrleUPDHG9LyWWdct6nQWEtsrQXY8dDyO5RLsQtLY6NtRsWGwSNg74eCFyNk0xZ6jYIWC6zN4P8ArJrT9SMJf1RuN6WBl50xRcrHH30UIWFgguC0vFh+9Mx4fN7N31BKbj3/AKCR0ksNVDs0TfklT+NP/wDRMmH0YuAkl4Q0x2F1ncesvsLrK4XqYh8CYel40SbTpnxhY8CELHnAsZobdCnZCQ9kbgjoPsdsPBC5EJ5JMWOrG3YQsOwtdfTYPXD2MF3f+CLPbEGiEGhoazS8hht9FCEIWCi7azOg255aJjw+d/eH4LY38jFG1P5oqx8jZMS0+j+D9Bvob2O7O48rQXFyPUxDw8nhLL7ELDH0Pvmm06i0I84Qso6sb0uaQS3z1H2JCOo8M7iFzJ5tMo24avhCzLS8fp0hpy+MPSn7deP71n7hvg9DQ0NaEy8TrpkIQhCHiJsLUx9h6xhjw9D5l0eSjKF3KhMbQ2ht2dsLpExQvgvD6ww+hMMfeCy+hsPkXadRDPAtC6whZfbqdDyISE2OwxncQuajEcKx7hCFnWl4+ipG6ngiEJln1SmFFYsD0saGtFE8LC02O+ghCFgoh0FqY2w4+DHh4fPsKUcwcuEPsTY7M7DeVgu5skBa1iXLPGl6zEEMfQ0IXQhnQ7sV2IegtCysIWOh5y85bbN7G9EBjO3wSE8neDBCEdjqLSyx30fdIx6fJKXs5h9M/shs29YPVCDRM0TEIWk+mQsIWC7nUWl4Pti+DGP4WwuxyChFTYSGtxNjuzzG3ExMWKC7CC+E8tpkwx9DF2eBDH2H3YdhB0FoR5ytJIQxZbNj0gL4peRCEdtYz74H+MTDe+iTwSqPbSIP7xY+FomUxMTELDOg+D7yhCFkXBaXiw2Zjw/go1fvGRt3Kg1BrOomsUY2UTHx76IviMPvQLLGLsS2w8T7sOwh0FoR54K6EwTwzuLUnUfwilGxhCwR3XBPXdsvCxV2HaLLEqv2PCVf3TafW+DHwQg0NEwmJiYhDH2G3G7HhCEIWCC6zOo242ZjGP4P7Feyz9z9yivZXsZ7GPHd43DoR3w7j7YL4LwyjZXYm2hj7wXQh4+7w7iBdC0LE3QhZQxCwWH0dhYPRep5+IY7CFgjuddf76H9mK3oQ19iqk7NVLPZ+qJLC39Qm7elgx8TQ0NDWEJiYmNjbD7j5QhCFlTbWeD5GMeWPnpSlZclFGMdb7a/RakvCFj3G+MHga6BZYx9iFhnedhnYULPgQsoQssQsVhth95PHTJ5+IYfcQhCO42wtLwxJM7TGLZH5cev4IfYdmw8sskb3FvC6N8YYfLCEwhMo9hsG4NlCEIQh2E2FpYxtht2Ngxjwx/BXjRWFFagQTDcEeYj2R7J9kkaBcKUpSlKNlKNkouxFLhj0PIzsG3H3i6zoLseVii0IfeFgtAsHjpxh8j7YFghDb4GLoeUTyr7g/W5e9x5h+qS/wDsPLK+xwRtpJVvo77r2/Y/obHzQhNGxifceEIQhCxQ66jwY75mMYx86xGE4z6xnNBOjbcQY9eRvsTeyvZXsv2fZifcfYfdmr+iij+B+h+pPoj0PDpjeAL3n3H2YjA/YfaL2iAiP0C9sLjY0Z1IL1BegfUPrC9YXrD9I+tiL0hO8BI8OwnoGdxZPD6BfCY2w+xCELFhhhZeVn/JgjrF+oNvSP4RXtv9jdLP29KMfwIQhNGceEIQhZVOgtLG2HHyMYx6n8ICYQhCEGGGk3EZQmylZRWFFF57xooorGxsNi81llllFlFlFFDdjDZAchMUX7LLLLLKE4mGryJHkIjPoX5WE+N5ZiKMPDjDC+GeHnBCFg4wwnzMfwoQg0Jh2yhCELKvR1FpeLjZGMY/hV6P0w/Qv0X6xvGz9CvRXorF/U/U/UosoosssooooooooobljYojIQhCEZDfEJpZRsQhC4qUIoJxMfYNXkTexD7Evzio2dxsYXwzGyQhCGxMMJ6Vrfa+JCEGF20ywhCyLrM6YtgxjGP4a9s6xLX+tP8AzMX+3P8A1M9/9xn+zC9/7gn/AL4vN/fH0Cj/AGPiP3hTv/lP9KF/2iP/AAI2/wD4n+pR/oR/7J/9Ps0Nyvr5f3n/AIuf+jH++H/gZXGl/wDZn+2zilwbz/qj/Tj/AFo/1Yf/AEI/1c/1Uj/qid9V/OM/dEFSPseLD34EwmKKKE78H0H0M+hjf0UX6KKRZWgisViEC4N4IXwmNkhCEIbEmJ4eEL5kINCbM7HfKEIQsO2ZaWMPuNg8PL51isorxTchBcNKUpWV7KyspWXJS4UVlFaQpS6NvRt6Rt6Rt6R/CKX7f9ym1W3+3TxiDfZN0F6R9I+sfQEnoRZR6kFvAbV1NsW7FPI3xMUavA3RWEMRPeLBhNxCZfhGwhCwhCeJhMTLhC4X8VnQ7M75QhCFl6azG2GxYYx5eHz3VeK4uLi4pcXF+Su1oJNhISHwFjwNCZUNdDI9AxeBshYUYbypS/AbFYIWELDYEEKJiFrY/jM6Hd6KELCw7o6CebljYHx7jGMYx/AX4K8D5d/7hC7FwPGqZd6XTCHgTBhjwQ6HIx4PNKUpSlLwvDsLBCwspieBBMTELUx/CWlnU7vRQhYWVxi6WxOONjwx5fFcLlum6rmlLqpS/F8/2MLsXaI8aPOUMQmUbGxUek0JFOiYwmtSlKUpSlLobGGLBC1JiDDCYmJ8j5VhZeDvooQsLI4mJlLhsfEw4xvDGPD1XF+LfgXTS5ubyU6TrTuJtFpQxCLgytHqLKDyxDFYcsINE0UpS6BSlyxx9iwQtNExMbAgmJi4Hl86yxtx2xeEIWFoKYgsFGxjcGGGxvDHwsulfhKXFxfg9xtp2EC0rC7HsLi8CLxrAsdLhYgwmCxsQhCaaUuRBMpRsYYhCEXFLilExYDDCZS6XqvGtLwPoIQhC0ClLkeB2D4MYxjw+W6r8Kl+XdNO51HcQWmjeDDLNKUpS4WIoJ4Wk7cwaIQaGiZpSl0BhijCEI7a+sUuLiieQYTKXS38BC09CCG3O2EIQhCxQWKUuDGxicbGxsY8Mpea4vy78vudEdhN4tcy8VKXVRMYQTE9RLSxog0QmaUpSlG8ITExMTLi4pSlGyaZdDeq8qwtBh9xsIQnlYqJaKNjwHGGxjGMeWUv4C4uKUpS/ZS6ri4pSlLilxdVw6YlC0MhiYpeNMWoO/AuBjINYeaUo3hMTExBMpSlxSlExaAlKUb0UZS6bm5WEJlKPsMd9BCELIuyIQY8NjDD4Mbw8MY83m3Nzc3w3NyEJCfZPshv7ITCQhCaIiL4M5SwbQtDZv4rzU3BtHYPsXA8vDy83CYnggnhcE8KJlEyiE8KFLmlw3i5pSlKXQhCKNj7DD75IRRMWXqQaGPBsbE24wxvLy/jXF5LgpS/CpS6KUuldEIbcVs3GLkvbhb+AniWe8ffMxjWHquCyEylyUTKLSMUpSlw2XFKUpdFLiiZSlH2GO2SFhCw8M2PQHGxbGPDHouL+Cmbi6LmlKXFL8DrFg5qdB4LDNzed9xtsvuPPwGMY9NKUpcKLAtIFlaCZSjZRspSlKUpSlxSlExMRR5zbjZcIQhaoxrQu8GGPDGMY83nfyb8il0qFsC3Fls0pfhPuMLDTlvQxjHwUpdAukFoOLBRso3i4o2U7KUpSlKJiKUbGHwbQmJix8MVljWmGMYxjGN/iLwUpfirCsEVyt4ri4pS6Ux24hs2GLi8N0sY+KlKUulEFnqwUpSlKUpS4pSlKUomJiFGxh98HhYQsinXLwxTroDHofzLopcXFKN4Xxbx+bF2MG0Oyl+BS5ongbY6D7pC03TdbGPlpS6BdRVSl0ClKUpSlKUpRMTFhs6D74vCEIWCi7YLQ9D7D0PDw/i0pfhXFzcXFxfiCOjOpcUpdG/h67m4pSDLI6Dhari8DGMeFwvVSlwRkfeILE8FwuFKUpSlKUomJiwxtjtokLQJuLtqPB9sjGMeXh/hO3FuPbv8HpjbDYExMpSlLmlxS6qXQ25tDbG4FmlKXF1sYxjeF8GlExYEVlfvoVKXC5KUTKIQhYePbF6FlQ6iy8M6DnbIxjw/w6c6G23Xml+d1i7x6CYmUpSlLxXFLi4bA3sUbmpR4Y2PCFxzgpdUkV9xakKUpRMWCFhnTWo7CbiYrS8WPLBjw/n0v4zqEzuOJlKUpSl10pc3FKUTHKPXxdN0XNzRsbHhC55qpdKrAWJZywJ4JieCFodjuPhRaXpZjwx/jr83oEdyAnoFKUpS8NKUuExhoh7g9bFLyXDGPKFyQnHSlyIrAnEUEUUEGGExMo3j3xehaQWl4b3kY8Mfy7p3/FrpYPhX2yIoJlxS4pcXFLm4uFg3o3v8FjHlfNpcLggigvvhQ+3KLA2OdzuPKFl6YLQxnU7vIxjHh/0UhPAigigwwmUpSlxc3F0XFKKDffrmuljyhc8y1zUuFEFioxyKwOdyGHqvvkWhjOo++dj/ACN0X5C7whMTExDYJlELRdd1XDfiy9g+VjHhC+C9D+BSiYgisVQIvZ3ibSsvTBajbDXMxjH+Iub+AXeEIQhZEIXw2zYFlsx8rGPCwvjTBoaITEJwIpRPU49KwfdHQYTLl4PseeRjw+acV+NfniwhCyIQvhvsNix3LDa+VjHlfCemYs9R4GIQhOOlKXhFMCFKUuDjYsYx8U45+QuvthYQhYIQhC5bp64WF2jVKxuVjyhC+MsjQajLYvJCEIQhCcqFgksX7isoLMMPvgxjH+Db0bm5vi8F+YWRCEIQvi1jqPAgfGxjHhC+E9KwWHksMsvMmEJhCcqYsgiin9iMiimDGP48zdFLmYnBPon0RlH7H74QQQnyiyoQhCF8WusJtPAo+RjHhCF8dsFiEGsGGGLz3oDDQ0NcdE8qK+4vtjQpg/iTUtP8k+ifRH6KKLP3IwiIiL5V4umELKhCEIXxHkWFp8G1eUx5QvkNiswhNZdei/WRl7RBoa46UpS5GxvDw/kv2H1EeiL0T8gsLJCEIQvikLQ2YSchj0L4L1oc6CzCE1nSNB+Y3HDKPnpRv5U/MIQsNuNghCFm/AZ3ELCbvC7Mm4+NjyhfCethxZmRImRYFksU8ZB6EGtcJyP4i/MrsRcobBCYmUpSlLhSl4mzsIQjph4n3wsYx5QvhPXsGGFlIhCEEsIILA0MM7Zt9CwaxCYhMITkfxV+X7YQsLMXD0uggsKKF1s7C7EIXtmzEG4mMeUL5KxfJIQhCCQlvggkQW/0EGiCCbCxjRNCQqFWDLDXylhfnCFlCYmJ6qXQUUEUEVpdB4IXYu3K418bwhC+SsGwSEsQhBISIJCwtx+yDQ0KJsLvlCEEswYkRGv6WXeVlCEJCWFYQmqlEUUUKLD6H3gjsLMjPMJOBjHlC+WjvigkISIQSEIJHgHsneEQZBMV3EGtCC5+0bjFHxPmWhC/MLKwlgQR+kWkD0YzRMUosGgsPoeSBNn6y8JJ8LGPCELkhOVLREIhBIglhYhMwQU74PEwhvYoLuF3F7H8xfnSE0gEJiEITgBzCY2BMbYeKE2CxNCVYx62MeUIXx5iC0kkISEsJEEiCRMvjy6kOp3wel6n+dfKsoQoggnIhMJgxBYGGPvBEk6aaKib62MY8IQuWEJpnA76AsLQlwe2L13XJ2eLGPLHh6HyL8+QhGwJuJCMXLCYNDRBCZ0Hgi2pYVB62PKEImZiYmIT4C0khImhIhMwmPY7HYeUd8euOh5jj7GPL1P4C/OEIUqpsEsL4EGhomKUbBCtLWx5h6Xl5Qha5qmmEJrWlkLMytLE2NzahaH4OuHcYx5eHh8y/oITfAML4UGhoaHlht+DqEHqYx4QhaITMJqhMwnIGEIQlomv2eR5WD7jZudhjyx4Y8PnX49/AI7m3O4J0QvhwaGh4Q+/ALUSD0MeHlC0whOKapqWLYoWFlC0s6HfgHcc8DZnl4Yx6H/RhCHm45jiwlifCQSCwwiBPVCyE30tDHlCFic7HxLBsiEIsQlsLUzrkY9Cw7Hgfgjy/gL871whaWXxWLuLCGgnYFqoxEQmWMeEIQkTkml6pwgs9x63ELUzuN2DHoR3H3Lsdzvgx6WP+juuVpJfAWlnfCEGg0k0QtLRv0azBjHhIQS/ALYoWOt8vcXA6HbB6V2dzueDuNgxjHoY/wCglyyFguKiQuZamjthCEEP7hS1PTMJDCYYx4QhcE1zS+ZULK1s7Dtg9KOx0Hgbd5Hh6WPD/otNmEIXBBMITlWpnYQgqGxBoMcVZC0UREPLGPCQhfBfKtBQhcLO47ncelY90eDszvg8PDy8P+i2LoQhC7iYEHXwFpZ2FJgLxhjdEGjHPuISoWYUQm+GMY9Al85aaWVrZ2HfF6UdxdzoPudhjGPDy/hr80xdYQkLviXYS4mta09B9iCQm4uxvC7KoyDQungSlQsPbsuxEMYxjwsF81Cz9cFlamPRb0o7Hc7crHh6Hofw3+OYuBlgsCG7mJ8BaFl5EIUYglsRVIhiB0H0JS5aJMYxjHhCF8F8q0VCytTwYNvi9K0F3Z3GPDy9L4l+UqLlcTx/3CiC2kKi2IQmJonAhZWfkXZCE3yGqV2EXiBVG9i6FlVjGPseUIXwX8FEIQtbwbbK9auPtixjy8PD0P8AK1eyPeS8/lEpAUTdE2wV3h9JCEGhrMJoetY6C1sUPAWaRCJ9C0wlEHGMY8kL8ECEIQuFbfB6zrldxjw8PD0v8fSBqfqUV++TxpWhdMIWib4iENbj6exB4sar2Qq6CExCYa5HY6COx1FmiLKuiWJMlsKD6N24MeFghfOWklhC1PFzvg9CwUXQ9jwx/FXzG0vJONlPzyUupcopuiAQQzdhM0V4HuITMGhrSsrLtgjex6aEpGV0hiZ5wVIsO4xnkWCF81aRQsLW8X3yPlYTy9L518WPZ9xMK9YqfnlpS8a5E6MJCGxCxvSmJlri9hCLLB00pWMe5B4mTRs3FIwx6BfP7aCsrW8ezxY9RcL7Znl5f4GPZFJG3osp+S8VKXcbwrKITgXwM7k1XQmOVguG+NjRMIWl3EIXAWpMGNeDWKDeXeBsbSL4D56CYoXA8dDs8XpWHbG+ZjHl4fKub9cbK/fJcK2UuHdEZCGxdAr1LhWezCO2CP6817LwvS9TH3OwhChCZhCDQsHO00NYcx+yGHhsEL4T41mXFCwuDqd8GPQsOx1nfMxjHhjHzr4tXvClLomIz9iYqWSis3IQmITC0J8fk8LHeRsRU7HXnC/EZ3PEQhdonAxX2D2aGsUbHoF8F8qF0JZWtnYNvi9KO50YO+Rjy8PQ+VctRBJ+utCEIbFRGNG5uT4EOhcXXC7GN4uuxMQuCZfhdTtgsgXC0SeQi+h7DHlDCYvlrJcUwXExw++L0o7i7o8D4GMY8PD+EsrXfvS1RbiENjYjCvTCfDWUxcD6zrJ1EIuEyl+D1LvgjsLP0cbR4Qhg8oYYTE/gviWK7CZlla3g7HcelYpuh9D75Hl5Y/mJjYqGUvy6tD0LUsPrKsOx1ExFxcUpSl5W2PJ0ybP0aaUpcsWm8a6FHoQmJiYn8F8K02hcTGHbB6UeB2Owfd5mMY8MfOuWlKXM0Sj22ILVOZvxoM2neLhC1tJDqwhHcfYTwuF4DlLxOdstynRlvB64TEhYwehMTExMvG3ORCEEFzoQtC0s65HpR2WHblYxjyx4fzfOtnkQl8R95VpSIYtaNiwhC7kkQSRnrCvZeSiisdLr6nY6iHhMKPQEeFfYWW8bczYPSmJlEE/joTEomCELiMPg9KO4mw2Sx4Yxjy/hLg7y1sVPUyYT3yuuLwfZqawg+tCQmTY6YuAosJiYvJSlKUonhRBBYKoWt7nTDRWfwumAeKlli15l5mhMTExP4qEKKIIIQhC4T7j4PSsVLnvgx6WP5nnLE4LU0UId8dGbe+U9t9cP0EhteDdiTQT0otwSN3vghC0QjKw/cvSUogsWhdLudMId5aJ0pdbHTBrCxM0TExMT43woQoogkIQhC1vHuO2D1O4sDjvgx6GP41zdEmG11pWF9HjD6xCEJoeYTBp0jLJMzT4N3b0THgex5ot1o8ShAQhCQmEUUUP04QGYotJHqCQ7LziCJpomJiCfA8XgQhBRRBImELh6DbvB6Vgm+NhsGMeGPDHzrmSa11iYmua5xwJTD2EzcJjemjpyhC3GkEUEhLCEIQmDDLLMwmMJ4bO+Cyi8j0CwiE00TExMvwEJklwWhcDOrGwvSsF3xNudsGMYx4fx7r861obSVEjeicN3miDtOCdeROrga8HkWzOxl2w22d6ZQhdxRIQkLjaGhh4IYTHkL4D0CFl4ehMTExMvOhcwmCFhC4GPvHO49KxTdCD7vI8PDw/gXjuJxt+hOzWL7uFHYSdGU6gnpFbZYiraV3sS464mtMPjcxMXvToQgmELmY0NYT3GG9h4FlabwPQLS9VE8Eyl0XgQmCiCCEIQhcDO0c7j0rFB0jsd8GPLGP4d1UpeWzEZvx2JohJfI3JKsR4ISJCIi0NpeTvrHWhqHkbYW4bfTLUF8BoawmUeBZXK8O2S0PXSiCYnyIXEoghCEIXCx4Ox2Y9KxTc2h9xxjHl4fPdN0UuaQhCcDhvf0QIRXUxibYrwqxebYgT1wPFivAtLP2bXeIPDVHblHbSIXwGh4p5+EekLQ8PVSlExMvGTEoghCFhcRtuKFwN3g8MY8MY/hURS4umTKuYTRMzX5Ib3aIweFuTD0Pd3JanIsGqhrc6HdlHY8MEIXwnhvDZXM8iELSycFKJlKXiFEEtCwuI2Z6ncTYeBsWPLy+W/NSPMw/rfTNE9Z/Q/Rbi+8MfQ227Go8KQWVl9D2YzotzzY7PCFh0FhYXwmPK4XM8GLBcEw9NKUpSlLwotCwha3i++R61YXy2PF0v4FxdVzdD9l0vSkyhF6HqbPgiH3+yCV9idXU0bPaiRYIiYTpwTuqoeY3Ds8rQFhfCY8KMJ4ReRjwYsFwsY8vFKUpRPUtAWpcDOo27WI7HbAw4x2Hh4eHqebyUuv//EACgQAQEBAAICAgICAgIDAQAAAAEAERAhMUFRYSBxgZGhscHRMOHw8f/aAAgBAQABPxDGyzn3HnZDb1ZZBE0QWvmCIEDsYI154dX6u3KYkyZNLGTAfXFrks7hviWbZeHAySSbYT9WWertHD9Cxw6cUfEM/cMsNPXu8zfNnUn/AMzZZwFv3E38QuHy4B3ZiwXeKjLMkkn6WXk9WZZA+LIhMjr4u5ECyyzuSz4nuyTZOEk2yeMvXGWcd8ZZJZZJrJZZYWWYZdnYLLOrOPdlnuZLO5syZNmeG/fDDb5i/Vtv4kXjxD3HcdR1Ed/uGHq+RsI/++B13DssNn3wstA/cuzfGz5t7dz5k6vX3xs/VmFkG2WfXcFmQWWR0jtxdl7W6QSGw8xS5Ex3OOeLHlHWYxj4sb9bTbE8EMmSYxjF3ueJmSZBtlkJu02JfBbPH8QxOqB+me5JOHTx7LI5BxB9zd71biHSyQu04/VnJmXa7cCHaOA5GXaxMZnDJOpgnZw2WXvjIPngO+Mss6k6kn5kknnLMs4zvnLO7OuGerJJmTJnuRtlt/HOuDzxpyXv5tvMdMMfMMdw+oTRh+Y8Q9yht4bbd2gzF66vM/vJQnR4nZSuQxgfMC54vWeDO+AWdeYD3YQ0gWKHiHceINlesuvxEbzvET1dJuQZ13ZkQDY5nE2bx+xI+OCySzolJiWWlzJ+s8SINujPxeLGH49z76su0Mz1dh/mIb6nD1OzL3ZvDI4PWKfGHmXS8OT97LLOrsT2skdsssk88CG4BEO12g4a4e/BjyE+pJE+Uyc5wflndlklkkkzLL9cZZl/EFllllnXCHufEz5mZ+JJZ/I/HA7Y4OTj7EciG1bZsOQ/Vpae4d9W9W292yzHTnq8eJQe5fDkvXKfMF3nD9b9LAsRx/uxc2zIIII9RwG5Lv6sg6gst7gWzsvEzz92I8aN4W3xsM8kakyW2+bu29adSZMjsphJni9vJYerykk0mZkuzyGugkQyw8l09QBkXcyAk5D0vCB8GWOAAQdXlYZ4M4HJ6nUzLLtZ3ZZ3do7QviH7hfq6e7H6nMxx3ZZYZZ1ZkhskLGRku1n1ZxnUFllnDLPiz+p/DNsssnh1+bfTyzPUsy9MyzxnfG3nnq3uPwJ8RwRENsRC2/cPxDHjh789Qw228NZfuD1aZOPeXS2fqZjzBGyHQ7O3d5Yv8XhGQenuUj2yQRwAwy06n9+Iw+7o7D1BY6x0MAzOpbAnykk8ph0T3Y7dum6IxItPEkxZpxtZh7g28GZ823b8Law7TYZ59sQfcAIvSbwM2Wd2NlkTHgGXys5yCG+uO7W8Ek5Msgsg7gPiPpEJlkzO7xD4mIyiyZ3nPqYknnqyTZJJLOMizbLLPif1YMj4ks4SyySBkbLLLOPUzw92QNhJPUzM3ieUs48WcHvjvjsgvUDEREQ8Dd/GRbb1DpbMHZbZe56mV3q+luS7bY2WfuNPCy2Fi1s4B3ZDZVsWGHAbOmthGCy7gzjqXtZPxYxcHDJwz6nUrbVnUxvhN5weDyu/cYkM+7JiQl6JWzLB2dZa7ujqXeM2zgcBD4ebxtR1+44hlkEEFm8N5sGxPSyzuyPTbF/ZBkEHGNlllnDLJNn7XrMkmE+JJ8WMklllnmyyD8MvHmZs3q8JLLLLLPVlnHcnGM/czMkzMJJPyfxO+T8RSI4OB2IhhyG2Hh5t+ZmzFfEs9r0yttsnxBhC82R8NuvmaTIQyMPUN8Wth8dxx5hBsfEmeOA29rYfFiS7vEF88kPrgxCeZJdeuDs9ySfUhkCzuyS7WnuO3d1OvcI8bINouutl9xdkjZ4yCyI82dQY8B7y8YU8JtgPe/uzESSTMbOo4yNMkssjxECzuDqyNWbEiwGfMnB4HExJO5M9yb5kybLOMssksssss2STuThu1mWcJPOWcp5mfE8HxZJyyZJ+Oc5x5g+bODj9QW4R3xnUR54I8zDL3b925wYzertbKfa3u13PVveWm2X2vLxwNXiZOrIO4ILX8zL4ZDtvDwDZWAfEdLOBrHysE8dmZ5XeWMQEsmXdvcdOFqJO5NlfE+TIfsskM7mzZ33ANOyD9/U4m4fVgNu/qRbdtiCCCIQPqyyWT2/EvMHBHhiB8SWWWcZBERBZZZY2WSTMsdk6s6k2yfaYkxNngetlkFlllqz1ZZkkkxO7L1JZJJB3Y7Zw2TLJyfE8PGTPGc+5JLOMgtgs4PN6gzgOCI7svcHcd2w9W2295KTahaPmU+rwz11L1bLeObLLL+4LpssvKDzbZB/yjJRm83R3e419Q/ZH1sWWnxdrZbh+W6XS6WRY1PWa3QlEn1MZk6kNnCzmlt2dWtPic78Q9Hb8xD1szrGDk63kt7juO4Ige7y0IhjAQHxIec4ON5+0PBZ3PAcZZZJZZBBBB3BwyyyzCTqyTqyzjCSYklkkxO7PqSyyyyCyyTqRbJeSYT2z0k66sySyyy3u9ce+HxeZmZmSeHzJJJxlln4BHXGcn1Eceth2II7hyHp/A4e+O9tvE9dFktvB8zL3wHztmQcMsidPUTPqDveDpNfFtirHwiLZhLC8xqwLzZEBdZPKSWECSSY3pkybwm0vD6kfORd0yBj0nf1NdN1Dd6W//N7gh1BwdvNhkWwwxide94G3eCTePLjLL1JJYc5eJs4IjqM488vclnCd2WScJJ3DqSSySSyyzOM9XdlkkE57n3MTuyy6kJO7LLLPqzTl8z4meGSe54T8P4ks2yS9c5GcBeog5IfUeODqCODjYct7tnttll7llll64+1uyz/Gab5u5445kj4vsQPiDItmZbRA4v6RnqMwd9Xj3JnA2BZySbLORCSWMlk9S93RLZbZxe3bPxWJw2jxAF1IbfJsDPGSO97J823vgPz2OBt/DIggwss2zqfMnOfVlllnB2gj9RlvHXHvxw+PwR2zeGSyS6JMkkkk7ssgksssss64JkkxJOrJO/EnV4sssz8PUzPiSzud/wCLOpk4ZLGzhLGyyyzj1erLIs4LLIss+Ivdv4ZF7t6ZerrH64Xr3bPCypbx5sgLGxCPWet0vDxwCRvmsIAXSbFAdhdzqM2ZmoMJlbFlerZd7pI2MxxJ1JjdJJJqIgyJm7wadWK9cWHdh0THDxL3MEEIi2143jY5COMjzZBBZx6mZLIOMs/HchjzYwNjB1ZZJZZ33Z14njCfNkn1J1CSSyeMg7sssskskkJJmTSySz3ZylnUllkkyTepJmeMsssss5ZN5gWXqIO7Lw8HG8e/vgN5sj/PH1x+5yTZ4W2cnq3Jd4XLY9SA+GKJAhjMukvrOHFhwVqGwwicCekN9QQLZl4T4ntMe/RCz6ss7s4TSWSs7JIZJJsE+JnxbfcPvuA8Rt1GHtm6RL1rOqrn1Onc92WIhBBB83ax4yyz7gg72w3jLIOrLI4LYn64Tl/HLLtBBEcdT+bw+eGZNmJJJZwWb+Gb1I2STZJZISfMlkllkkndnCScPGbJ3wlnCSWT+GcHHrg82dwR5/A48cFnceONl6t4WZ4b1O3l1b3L8SzbkF7hyfqwcHPlgfK6PDeLX+rHqCv3liyyCBCdkR7/ALjXtigcsoQjxJYzcln1zDt8jJ3xafVuY3CEjIySFhZIvV0Ju+/4hMz+ckPGXZZHbG1wFBkRdRluyG2QWQQWcAxgs5zlllnfBPVllllhdbZwcj8WxwfglnXCx54TZJk2epk2eQwQRZeFnVkx+pLLLCbzZwyYmebJsvc2Sd/VlnCScEss7smzr8ciO7OC/mD5s/Es46F9cBe/wfEy9TJMyzP7nzw924P3J95yubYuXwh/6o+dk4D3DzVYwGd3z0h58LMfWSeV/i1HZ/d0WNs3mN8MTBfcTdksLOGT448o3v3wyWEmkkZgaw51O520fF4yT0RB9fUrwc9dSJr4noDsPStXSfwy/bb0DOua2B+LIthhtjIj8Bt438AgLI6SXaTjLD4ssk74yIiOR/Dr884STjOGdyTerLLxBznCbOJJLJLOMZOEk7k6yyTl64SeHvhss4SySyyeGbHdgTBtlnVlnOR0+465d8dQe38PU/gqeJepZvPmc7n4unJcl6vKO8d/EUdjxYWMmIbP3OTgUOZAe8sv1HzXtN+YPjqJnbL0Pv7j3zt1b0/mJ72zHcvykZ+b7oNhjuzlJJjBkeoOjYkh+oaQH6ussafXoh7jZMNbVMwPiD3j9Mg5l6OP+ZU7eoN7GNuJ+72v8lnYZ/El/wDV26P7tvCM+w/qVGr+ruFth3FxY2Ae7PzbZHjkiPwSzuyyySSzjO7ONt4Hu27h65bOc4bJk4Qkh1xvAWRxnGTPdkk+Msskgsk4YHxZMn1e4ZPD1y2c+5N/BnCScZtkWd3vjLNsyyOrOPXO9zxvXi9ffG8PmeFZ8z5ng98PfA2w2LbeA77vXHUgmT436Xfw29z3D2DLU8LdUN3nuA9zKG+T+o88mX1g+IePhe4vlvefzJfAvBCF9lj54b1PiRZOu5+ENZ3DCWGS7kEeUAUcizvuwPFh6umAMz/EnOjnzd7Df3B5vhZ8yd8pZ9MEOMBkEeP8Xp1ujAf3Den95evMf1Ktwz7tL2/TPqn9wXt/M+UpH2/qA+nq2e4R1C/cH5hYR79RZeuWZYWGZqeBmWQrICD8B5Z5bJOrzMnDJJZYxZeuMs4yTuyTOcksmJZZ3JwkkzPmZv1ZJxlknDw3iZ4yzuzj3Z1ZZwfzZ82Fl/H5fzZ1l7vXDPjk+ZO58yTPBwIsv4td+uBthtiE0ODgKlp40k70ZaXru+M39WXlRWij5ib5yy73+50dDPi95X6lJDyf1fpDIOnD7g+FgHpwBu4nl2Qg3mQfzdEPfDpnrYyQIzokVisCJdh4BDgkImSQyHmE+YO7MDwfV3K+S3fj9XXgpek/leDIN6X7GQ9E/wCb3zfnTiDexbddsp5R+o17S17KIOF16I/zJ+B/uzyAXy/6h/V8vUH3CeGG6vNnDPiSzqJkHTa+LX4DLLLJLOM1kyeE6knjJLLLLLPnj92WcZZZJ7sssfOWN6k62yThJnwzMklk2WLu2RM+eGzhJ4brjJi8Wch1Z1Zdc5ZznCbyyT4nrzLLhLO9pZZZ88+rIOTzwb8xbEMPOeWZN7g9jy9Wnows6S+C/i9qh70H17h0MfZPfKfAy+tbVex9SXY2fv8AceE2F2/ZfPBOluvTCRPCfebBDuzm2mdeZ2eCT26tLrubygi5KXUuy9Sl1PjguvqWzHHGQIIvKyxvB1dJPqQ94W3pJ9F6Jh8T6CV8N9kbLxAn/JGnz+7HwP8AFqeC08h+74D+b5A2Xg8WjyMY+7v6gvTaZu8YgsyzYmLy4+HLxnITpN6nhJnxy85xnGWWWSWWWWdTMsk7kkmHBJJJmTeXhvc/jjtn45ZxkGcE2e+B582aQF0cPScJZKZM3nxeUskpdvE8A7mB82dSWWZF6iDgN4Gsi8iXgMk9wfhFj4WH5dLA3uZ97Ug/A/u/4stO9X3FcwF/x+WNFj9SZ1LYAp9r/F5SQ17vLRbwDcjxhmzdjwp3IDonzLqRL1LJZfHBbaemTyWG8o7ER+PmyxwfpxY8A74A+L4klPEo7HxK9xDus+P/AONq6eW+bMfVoOt/Vr5NPeQJ0N9XwYn1YPIwoukZ6jssjnBsT28cOkmNm2MknckySWNnzJwkFlljZJY2NjY2YWd8mSSOCWScDqxPDJJPKT5OE749WcJJJY2QcZ3BZZZAx4us5zYLL98erJOXxL1Ms2yy9zNkmTZkQWQcMcmQRqKA9cKAQ6LRg/mYPEY92MG38GD4gfLl0gy1PCkK87+4I7DBqwuxaGGaemJ2h9LeCwWKd9hYjsP4i9n9RPTD9X0RE9hZ8CXgptt5S7nuV5Smc5Ww3nllCI/LeDuyySSTL3eXBrxk4s4ZHSU8hJ6xKnXUhv6+5b5cTL+Qf4XgtP3Anjs+oUj8e28pJZJJeFn1Z9TGP4Bh4do+1j8Yx+Ayyyyepk8z8zPAdcMzP4JznGWSWWWSWcmWWcMss/As49Xmd8cMttveT3JM8N3knTwZs2PlE+kTpamfSO0cAn9NvI4b0eYDvLo8W5bPMrI6+7eaEMj4pLyWN2jr3HxYYmkYrwFig8w21/6LwBu7cLwdTPm8uRvLuQ3u77Pi1vBnLP1PW3gsjjkt/Ittk7gkvA8edg2Xws4ng4zZk2Z78yrqJDcy1ahae/5Y8hP1eJN+Hqx/F43jfxSThLLLILO+Mup4ySyzqyZNsmeCTJeU+OC8J3J9TN0yWXmS8csSyybLIMOGcM7mZBxm2fM2E+IOPNqceOH7lmbxJMtt5TLwZ7szqCJ+lncbg5ZZxwOv3C6LdzLxfFif8SdCdW3gtB4jrLfFshnssfBC85O/JL+LB6v14eXDThUbBOPEvLJeV7T4s/AJC6TxGjETyHcOu4I48H5EdW2d2IWpJhiIeuP5kk7/AByRlfgRPmCe3MYXpPrZ8TP9XTafvsjBpD6eMs2TPyzhnh5y8cdcZy2fgyze+Cz58S9w4eE9s8MzY2tsss7s9z02WSDZZ3ZBZjH8OBwZ14sfizh0sm1Z9QWce+Fnhmep8y98PmfE8Iz3J9NkdfHmIH4h71DIP4tZv+Jx6/c76ye3i7YxHc+cjojvcO8eH15l9I8Ory3LL6v0u3q8OP6Xl4n62H1xfDYQB3OeEjPLZPzsnBme49QvUmrDgfrgfN74Poe4+Ijgsj8s42dZIRkPcR46jxwrZtn4HJ/LLJLyxZKsfGN8Efu64q++y8NWnyTZJxtv4Mucb+b+TPDMz98BwYQ1kyTZyfN6nOHhnOM3n3eOPuLLOoLO+PNkl2s+rOGt6JVjZ6svCVZ3Jwl6nqZ7s6mTzMzMr4sgnqCwPcZOoEfmLnPEfx38Q+w2H4ukF1Yitb9Qbbr6soc7sQuB9OHWfr+D/Sx8QJAXoJeE/F8W3lMkDIQ7nzkncV8wh7ga6hL3Kegl0MYj8XvjLvkgnMh1N4vfAOogGEkljePwfwDwRw8JZ8lt6EsUP0x1MHwd3j9fj3MzKytttsvOceud59W8P4ZMyl6mLImI9zUTF9yy8bb3bbxvVtv4kEEWa8ZZtlmWQRMs6682SX2s4f6WSA9zMmv6vCfEyT1eZ8zJZJa+G1sYh5fC451AjJZZDjxY5s8JbYYII4yywssn6R28RECI8SLjfweGZ4PmyEIScBzu7RvNDNvKLFLcIiIuvyLzZbw/UJjj4QEkk3rhLOCScHkYh/F4SFOwYHEdhuH3e72I/D0yJ0+YfEkrw3t2h38tt4238G9W9y2EvC/aY3We2T2mL73kYzX5lbblvG28eYc4M9x54ODuzgLLLLCTu8ebMssksmIZ1xnULLJ6nzJJpJJZkklnGWrUIfmF8QO9xwP0uzu+CfabbGN8zQNdsudyyUcbb+ORAJlwtvHCTjbZeWeC928hJJDrxBJj030d867LvJ7e4j8Dkz55bZ/UjKRw8eWQs8M+bLCSEJJ88HBbDy/ihMSB7MT4scMPTyf9x0AJ9r4/5uksRby228bbxstj5kTGOLdpKr8TWL5kmL3M21LbbbLl7mZvG/h65IiHg9x/EFlnGWdWWZPGfBxl5T7d5Z1YkzZJiMkwkvUnUklmMndjdDCTPF0fd1ffARLzMunAkPufqQ6zq7JEZd2A2z6YHE6u+WsiPyIIx3K/qA8+eHxAkkPHVkjwzwXvjZ7vPgXYhH4vMQez4kPNkx03U+paGcHAWSZ738Qseck6hHKWe5JJJNLL3ym8onBZBZZeOX8MkyBPErRV8k6zp+H/AFLQR9WBo0zZB7iN9XTzw7Wxj8QYx4H7TGMVOpZZi7LJZ7llZ43r8PX4fr8jzwR5gh6x4/XBZZeuPuSyySzuyzbGzZxJJJpMSeyyT+7Jj24P64Y546v1s/HVt6k2b6IPi+iU9SfEhrZZN90u9+rMdy2PwLIII9mReeocPwGlvDxhMYkkfiTHjzwTORCOcPdD6gXuWM9zIiOcJLLOAyLJ6T0sw8Qsx4eZeV4nxJPDZBwk3lPAQWWcZw28bbw6Z2SK97+rDWx+SEtvQ/ZFF/uyEJ85b+IdpeDXgcTFlLLb7lMzPxMzw/jvfO8bHGwRwcB1FkQWd2QkssfVn1ZZwYnDwJ8Susu3mYxPm18SfU9LLJLJu9+OGLOcklo34mxw2UPEhbG2drrawdQ4S/Asgg2ZF+IEcf7XhPATbeWZIclMk7j1xnUO5Gy8zHRmzOoRntdk+vN3Igbtb/AkODw8WWSFn5WPAHHwjxbIJN+5Dg79WScjBBZFhMzNtvC22oZ7gGH83SjTsHuH7nQHemwds82xghdmxHU6DV+JTXq37t6tttttttttlfc8MzMzM8PVl56nnz+Z/mzg4Dg7jgOoIIINb2s+rOMcPZkl+d53tPSY9rIdeJUre5w57kb9TwJy8dss23vcjxZdHzb+Gxpx4LqWxKuRDY3x/M0TJPI3Wa7aEREERGzIydWLHzftFODHEoSD8xc2yzM8ZIkMldvG3P0hzxD8XnyQHO5zeu/UkLIP82ciCMyyOuAPHex2hw/i18SgnHIy6dwjrh7mfPIcMuWQRzszMzLnIst0l6Jp/wDJd6nt8n7ndzuyj03djrtgPMhheNPGDr2QGsDA31zrbwW9cssvDebpMsvUzxmTw/jmt6/HI7b3BZ1BkEQMjzBB/VkGwWWN9oD64kSOnidR9J16nN5eJnbOJIXZvB07k7meUH+JLyNyNl78cbxsbdcnz4HL1PuWZw9PmBIY7iI2Pidq9WEp9x9obwl3ahbHGGIfe/bmWZNslrLfUfKCWZ4Pd3ea9uRvqZvUdurr9ELDIH8Bzt8szuAwOPXx+SFkN6h1B1J1Oe5nggmU+8l43gTZZeGzFllt4bbw2Ju/wP7sV6vTskGE+mdEcxa/Unl5m23lmG2XvhnhmeGZnqeEme+PdlnGdScJZZ31ZZZ3BZZ7iaQdwQQOQQMdLpdrpd/VojhPrb4vfbVpH13wSepjH/KR8WHrqdcCfBJp3Pa/S8r6SDxL+ZNko+931NnHu2Ufdi87xeY1vDxHrqaAebwtr5hGDWRKMy2ZZW8BX7xf2hRQwYEHbPH9797cE8w9sF8QnhLS62ZnuTg6y6g7J3B34h1EEsepDxJeSyPwJPmUhzuSnXA9ML3HviBJka3LB4JDgO4D3MZtlScLbyPA8DFlltt53gtsp6V/u9SzMONu8bNtv4vL5mZkk6mTuST6sskss2z5sb7ssssssgg7g6iEDYIOoPuIQonqOvfV3MsbE8uTI7cP0nHD7EmfScziR8Wlh1fR3Jm2k8XhZ82Gz7cGMS+pHxKepZPhs4dP9zmNj1dd1O2/6lrZtu9WtgFlH4sSOiQY8RXxOgepfxb+GVI/ErzGLPzHyvrFH8373733ZPzdrFj5vlto8KC9mB57hvJCPxesZBojF3IZe7dgbdMER44/iW9SfUu0engjI/B4XlJCGRPBvifxDrgQSTEm2Xu2W22WbZbeNt43jZtmfMz5vH4Pzbx6skssyZJJJLJLJs4dpLN9WcGZZY4ZZw1tnzGomQXRHbgINtHgcjz5MbZw7Rl4M8Lpdpw2k/KZ0SZ64K4Mfl/Ej1fKyeQ/WRMY6jTrueXHLQt1ba75efcSF0dF8xDIxPS9R7LX2Sp4Znhf6vmDepr9Xlg/iE+IfqE+L1DIPiWcwmSHa+bfzLt2vbaO4fza+b9rz837WJ7dS/nJL2gnlI+UtfUp7Mlp3/crwy2ON4LIsPqUPufhfG6jjZ4Te4R4vVvdtaXklPUo5e5IfMkzJPLw8bLPC28bMv4bJPCR1JZZMLLODHpMyVJCySYzLNk4eXJnBW/V8rLOGWQQWdQSeWIEHfiNR4EY9RqITIDMz8F0jg1dLLJ6SSBrl7CHqwhs6ntIjJ/8WTniyzOD+AZwYx3AImkbDo3aMuy8/EK9xaAIyLr+IxGIPxfRZ+rqsI6368HD4sp4nrIy8h/RLNGMg67jdn8Us6z+Inp/qz8EbfKz9XwYEQkPVjk7a2tm7+b+Vr5tW/m84e5m3Zkg+Zw6YPtCYe8GG8qF7cSzQZeF5wJBgXUk7CW8OQvHc06RG8oLs2XUQ1x1O4x8ZZkPogZZ4Nn4ob5G0wDovSdzHmSSSTh/BmZMnh5bLJssZmSTA64ZPI8LXD9OO98dfMvJ63yE5mseF7cjPhPBlkkfSyyz64ZECIHXDo3kAiAQRwZlllkG8Msk4J14sntJ/En1JCTOpNlfML9NsvdjuWd5ZZ1ZZZZJJyO4FMlb1ZM4fq6plkB8MScTXqMcQTi6QdWWSQT2nrCMy1eoCRnQ3e436l/OZPAP7mHp+pwpLXcP5IfgH+bz6/iF5Z+yJ6/xJ+SE+JKVK+LG7+JXZfiWV4OA4hiDBg/Md/MI8L+4fyk9n9XzqR54PCLr8yKSL6uyRjg7Ibb3eDY3z1K8MiCjCS+JR7L3EvTklwuszM8PDP4JxlllnGSdcEg0s4dpz36jp+QO34RjGZk7McfgHXMzL5cnZs6zhhwyD/N5QQXZEDkMi6Nggw4yCJllndhZZJ19zZMnUk8U1kmySfk2deLMdk7sWlvOTIWcG9NvuWa6sWWNg/UAPu05IZwHAOM4zuSySGRd5eFjJh2k5ZyDervtiD4j5f8ARFeB+ryJITUf9Xqh/Te1/wAEl2gh+r1DKHj+pT1D6s7giGFbE2ETULgBgwPmU6gz2vm9XQsGTwf4jhXhEShhvPG4yHTDmeVk8WUz3M9yvdt7mdp8TPLZZJJZJZ1fbhm8Ms/ANPrfrxK46j8PaTXH68Xd8ZjGMdt2SWTwPA/Dh3ng1vDLwsgzxZB3BBB3BsEII0WZBZZwyCyCyzbLJJJMJOpzuF0tZJMllmSWSWf3eGi6n0vAJAszNLY4ctQtPjbZzAG+bvAg6g7jpB3Z1zlkEndkk2bdWHTjtdJOuHtxdT1GGBIzhkLE2s54ljwl+2/i2vD9MgViXBdE6bNmGpMHG+iEcGviy7Lu2JrHSMxCJnmwfMxqH6Ze/bhsMMobbN5W1JW+bTKzPllmSEk85zlllm/iGLHxfU4E+hxPrJ49uuPhxb+k378fOccGPAY8hiTOkm8MsksksssssLIIINghCCCEeIIILM9WWQcOlllnVnBiSQ9zCTgllklnGe7GXPL9Qv8A24SFofMJzpPO+r4Z+5uYP7hvAujyWH3ISLBebPtyydlB9Wqg7uiMMeILOrOM4JifPGGW6OA7hwJ8ybHRnEnmzSy1IFheERG2RHdLvLtmEuRHY/c7HV+m7Wx+yX7/AJko+X7SaA/ZDfEl6lnm3asvUeIeQQW22GGXAO8ZPCNkzMJ88pJJPOWWWWWchwdufx7s0675Dh/X8x/H8Ix7SSZJMSY4kssksksssmZZ3JZPAQcEeIR5iIIgggvMnXiyLLLLGyySSTuSHV0FbtD1ZCHdkklm/cnxZsLAkO9dgzzAf+UB+vpl+WfO/wCzYmEQ93RbP5gzzP5gT/tB+RN0HfbK3Rl8xkD3dpbwIdWdwWR44yzrg8yQSSGSdssjhnVkO5nuzBsGSdsNOIkCEKDWHBvO8r/JdRJ0gFhiJ42bFdn+MtAH6HZ9P84yRcH6dzWAfsgdIyHqUW4IhjxDHBDD3wO+PM8+YdySTEySZJJLLLOTJLLLLLLLLJHOjWIT9OB+aDPwCSSTE6kkh3J3JZPSSSySSyySyZknGWQbBBB1BEfEEEEFkEEFkQcmWbPaSZJMhD4hjJCS0yenVjI2b6kghWN7++O/m1+YRbhB0o33fuDMGRyPydXb5/mNvGbpaJvV6I9Qsgk4JHmzrl8RDuSbLIIR0XuLtmk+eXnV2j3wPEXXu20ldz8Q03leDg5sImN9pIZ3YIzv1E6F4+LD4xmIT7JfhvydRSqvgbaGR+m6z9wSh7ElnrgETuIIII9Xl+DNsycN/EnxdPiT5skmyCzhlkllllllkeYO7LIOuTO7J6cmWX6cMmMT0ySQhJCSSzjJLOMmZeUkk4kks75CI7g4HAh8w6ggggs+rIWdWdcOjZJwJ8SX/wCEOrtJJwJJjJZaHgEsPGH1KPTL9HU+DJf8yj0yviQsbOpElfNl18QvIiPxaZOeRPI2bsI4JvK8o83aTG98F5SSWRHmMXhh1Es2e4ZOoJZPItxy6N0T2t2Y+rQPi6qS6RJuEXxzgwhp3edh1sTSXpY7WOsgkTT4e5QBHjrr9TkqPIdz8hf0l+R3LOchAi3g8C7PAaxu09QnxsvNxmPTKepR8SSWQR8vwCWWWWWWWQQWRMsg2yyDgEllllkl7OBJJJJiSWSWSWWcEmZZZ9TEsssgjkHUQ64CEFmsEcBCeF4/gGPSR+OBPqHF2eJO5x3NmyWKyT2v0suogjtf1K+Jj0z18STH1LzxOj1MerA8Nk5CR12a62GWRmTSCOt6SrjxizqLOonzZE9l74JO5Op4LO4dReV4QXQh3ectuFohnmPWzAbRk7kg1Zf5j3Puy7PJaGSdtR7CPXULx7gK7I8cQx7kFhSUw6fP7IXyeETT12vV2r2s662XtNd4+Z8KfZL9LZZjwoSog85EXzeJy39WLxZkeo1ody+Cx8SjeuaZOP6SuDe/q1ZZZZBBHIyOUfgWOXy4MeI9JifHBU/gG/i87tx7z9O74zfF+ZxJnBwekEAsGx1wHfzyBsO7Ig7SKbj8RNa1r5JvfB8F29kanXA78Sie37l+rXm8+569xFe/ifXQ3nBFT/WzvUH0bp4lk6D+Jcc3Df8AWVlMsMZeg8xh3rgAupeJu3DF649RPbfcHV4vV5Qx4mfElkHD4jgwnvVtDHhNgYzh3LszctGTrh9WG/kvOHG0H3l0QF8ievU+Ia2Z1Bljv1BrAmJOFOzxwzqxXz5P3OSQqPkvI32xEHWGxgdIPUPR182293w+JR+yIBxbHQ3yb3Zhr+iGLwggtOH13S6tcciDIOeJHCAUDZm9SmGcPi6fzHE1rTh/Sen6sGzgIixwHAfS3t1sX6cn63fwW5fvqaudHd8CX4lSvOTGfrPXxGWe9u/WacT/ACv436T9Z+MueJ+nDpB1CCCHUOoQ4DkGnqKfWN32Lv6yU+u79Z10cE2e/wB3t83ScKnrqXZfxn8Ton2sDct9aXv033L9ZUF9jGMmpBD2PJ/mGoHyDIx0Wce2TB1YXXcnPLDjitBnvL2T4i7OryvKHe3xj0hv6uA8xx6jzPBi87yjh8STEz4s7vKfEcBsx4UcZmC16cN9WMJsBZ9Q7cjySHf6Q6yYyvLeCWo7dntIB9o0b2JeUk6jE7QGeL3+7ouv4vvHdr/gywCCNLh5TmvzGsRrwmQ/i6cIR7LYadRlhBZfRfXGPXcuuupj1aPVr4tfE9LZaerpdSvqc+s/didgGJIhwNpnwv1v0j636W7fx/iH8WvZeN+t+k39J+s9fHcxz1nXAqWPZP8AOR8X6Xn4tPj/ADP1j6T9Ltb3xb+Mn6eb9cnD1q18S/EtPE+mTjyS/wBy/fRYfqTILyhC7CHAOuDS65E8QR9In69Wvi/lZkz3zIfiA6y6UvqsPUfx5sfnL4CfXP7hV8H6uhJ8Z9MrNx/iTmF0e/EHPGN6ApAg5mYnXnoyM3akXqzpH+5uDDGtxuPh9/zPTPIUOvXW7ZpA6X/n4m5xT19z3eLp8EJJsXmju/VkNcjgXZtkur+odXuHg8cPBiHcGMcPifExM+I8yNkEG7QMk6iHG2l6njOeyyUh1Dpnzebkvc9/Quw/U77h3l0gXg6IOtmC2IkDFju9dWZwplxT3D/7zBja3Wy5o9u93hPZYZ9u7FcU9Ey93S6lfEXDZPcGRDW0d4DlknfqJ8l2gSi4dSz1Lu/qTFy6DIDNLIeIgerBT3d0wbw0nbYRYdQPiRZ+LB6v0v0gfEY9cM/F4+LPxJ+JDOPVp6vog+IfKX0zD9J+s49Mi8fF/W7fF+lix9363b1/F4+L9Z+sueJ+t0ZlrniY9MRHHIIQibCGWjwa5eK3zru28l0+In6X6T9bfxfrO/U1+F9N/A8PynDjd33KzwTvvG30T18bK9l2T1CFzqOvuMZXKoge3n2XYdaqBBejtwGdI+7FGmiB6beYgOhtf0/XVucARO3WAyKwKJD4/d8+0ExP2TsvcZGoCW8LYRweSHZdex/ZnHhwPXG9cGJRD1PmfE8HD4ifNvTPFhjwZ3Bpe58zMy3nYicIdgg/uvNljdv0LqP1doHt6u10QEk7HpL6bq3nLsQZB1JLPlKxuh6NlArevh9XSQPXzf7tdXR0P7s2LRjN0Dj0kdo4cCbdGHUBDMGe4uh1YBg6jlksk5iG09T8EGuoMrIs6mCgWEHcHfF2xGmNIMDi9L9OBwo4fpY9kifhJmI+OAZ+sman4m+c78EzJ65/O/WPrx8e7HgLF03T4g9ncJMG7NkLwhCEXF85aTw6RgWPiL+vP+nBiPiC08HAHxf0XfdviT8WfiS+STsv4/mceTu2w/GZfrYid4sieHo7zqASGg9du8P/ALqbcSRDrrDS10G1jvn15P8ATALEBoZd9dvSdWhonQhHTvrzFn5Yj/sNqx6wPKAnqwfB4gHyQt182+DrH6j393ZMtSZL8Z064J8x44bynjyiPHHhwxbLDL3wWPmfErp4S26NnPvgu8e4TxF3XEdD6Xi4pHq3YcMg72IfwuzwDq98PV1D9s8E+EHYA7X/ABD46jY5/E+b/dYyZuN0DM/0ek8NinUqTLMSQYN2P9Xvhi2KfXBHL+CWWWcLKDrHC1+M7N7trQt06sBeBDuLJLOAcjwPA4mMHADZjEkzwZ5CmOQx6sWOd4gA7sDxbPfnbyjuIQ64GNoLa1hA4T8QZZJMSSTg6JJjEyJH5OZpJ0L03Qx/4Y+y8Ju/k3fPuwlmhbdteloDBvg+HQ46w/uKASIdGBgqnb899WUiUo0TPv7gU9TLNDvyO7D3Xq5g+x8fc1+lmmo/EilXi7RuwFu3btZHATqWQt7yY8cPBt6t1jjZWdS8Ex4vfBR7XkhvOfFmW08OXljt3PU2R9Xm3ktPNDlAt3epZjYd8XqemzWce/F5I8R5Nl6yDn6xbG/0P9XalDqshgQXhHekGdoHEE+JT0ZdmHfzGzqer6tF+4vMuw+Lw5P/AAPecjSzUshdVeBs9ZNs74NssQc75ghh5URAHlXAtXF/ph/bKuE9br/iJ/yz/wAwr+FIYD5Mf+Dk8Er/AO5lB48yWHjgw5GSSSyyyyyzhl2unDLJ4Yq1fNs8Y3v8RPUOy8Rb5Zl9UEFllnCTMkzwHV04CEkJLLLIOAplZFZ5Pg3PPqyU+hAj4hj+8veeA66PXpty7H0Cfwvvvv72QsVHOnfx6/m6lB2vb0+y+iFZ4e8f9wMwGZW4otkw5B0G+s8TP6WiPm3LaN75J9IbWFeHJe5IQrDZ4PmXqPPJeVvUuCb1b3PqXXHhwu5Ysmy8mXIuTbB8XnaTLvnXhPbsNY9IO9utme5sgXaHc9OXrjQPg/5nhYPq2w7dzMIuijtsnfDO4d5ZE+LYfVovngJnR45OX8PX4Zb2ZZO0XfUtdsu3DoOroOrGPwGwX4bPf2/Um8t00D+DWD6h+z/thX/Z/wC1k0kesf8AtLij/wCXXcjB+l2xnZ3ifE8CB7v9ni6Irw3f/wAcQunB4M/mHGfkBgulmPdovc+7bw4eV4c4tHMtrDIMj8tmZZZZcC4KeT4/AIhq4ZOmOfWzD0iBaHkPH6fcyame044f382hIkYT/wB2zGwXZenXxM5y9A84fL31Fbg6r7+fiQGiB6aGvl4nOzBU+T3bzG2+p+zx/V8qUW8oYeo4B0sP1Xjx3nVjfqOncGPJ8z4hw8HzPiVsN5Xq93heDF374HqHXjh5WkXvh6juLDZhF2D4vOzvq8x5yF7M9TPc/ad2B2G+7pU3I6xdJNYm/ih/uLbCeydQYT7yDJmkjt4bvOsXq/Ypi7wvO8S/HeH8jjJI9Wr3bPfBdl2F0jCEwMiyS7E3yy2S70Dounf+IDk6Do9Pju3eU/cvAqvQWt7M3v8AiNmPtxvT90WB9ifMMxL0OD5Xn/v+JUbQ1/XxDkfMz5myznLLLLIOAs6skj5ng3YnxaHxLbyLlPRHQtkzzYEYI/FZZZZSysJXRKUsxZYbbYbbtQxGu0Pnc8fu2Ukx/wCnyJb9MOwCesf+oqJiHNGwc6LIDfQjXvy9Xmui4aJnXi6rl1h/wI7Eh8kMeM+dgYt973hnvGzEuoq6fzdA/V4ch74npHxRz9HIIL1yHXDHDwfM8HqJd29WyWyx4jzLu6J183ezuyxjhHbdfA+XB5/wXWn3Hc3HCXO7vqO3mHUuHCCtYe8uxhmnSaJ8dZZejDpe58R722L1mXvufMPceLbEfJvLxGiw/RbH4bzv4EHCXg2aLZ/MQh3aDqzGkEnJJA/0a/6U23u2v2zh3sw+I3Mev7zzP7BRcpA13+5ZEDQudH9/Y23SuR3xg/7buU5RT/kP+bMevF/jN7mqkji/XFmZnh8fgcBBEFllkOICu7x1st2deII5Ol5wu7JtGOdREW8bbLLMRLPA9HIMYxbZYeGw22PjACa7vh18QXgvZNPXZdgT7H0/e2LALrdIbvf3IHE9h8vXf/cIoXTumaHZjMcQPk+3+tgFBLPB896nUZPRBrrvftJBGyYuev6ujttuxHnh4oR1/VAnTHngmL3Hjh4PmYnzLM+eHlw98WbrHiLO0tl7ljth1PD3tKcNFgnOsk9Rgyftl34S8ZO73DDfmNavDCyfuI+Zn3LR37IujLSOHmQw48b3xPEvV1mPPA6F1PO22n/gI5XTdo5hDxbD92BgmTg4whxCfz1O4bOr/wCdQ8RRKh0D6kQHUlOx47kdKZ+u/wDizAldH0/uOm+Af3I1nzOfMzZwz5/EiIjxHCdTPBsVdvc8euD8R8uPcNmDDqIedlmNaia1OHttPMPz+C2vXdsRf34kI60ggUxveddxio6Ggb06MlGGOWKD0HiKu6xEPTof6tK94Jnn4f8AiDrccieB29+P/c8A3Tv2H+GHoYie3esfP79WJ2jpDN8G+ZBwXzgN/qfrORjh5nEfXfiRZ7WuDzMcB1PmUpmJ8zPmWLqXuXUZOWDu9Rdl2Lw3vgO4wdcECWWufNuEHd/ReF2Iljsi93Ug6W/Vgp1n4s9JPcnV49z+fsu592EzuY97LqfEu47Y4S4W2wPqPPAb+y8LbfyfyOMlitVs+fwGh/cOTwNsoD3/AJzbp1/rLDsO7I+PIXr/ANz4Dt+Hf6hR9B4f/MryNn2EiU0/x2f82wx/V/rv/i+eBr+u5dzlnjZ4T8iIiLOSwWH+PctXPM+298C8S8r5XlDcy1QfG2IvGI42WWxgPcPzI+ZHzB52R8wfMO+e/uRA9eYE8z82ffZb7kD5vkfNn5g/N2gQis1R3NGvvx7lnMuAenDyefhgyBYATx8v+vUMyUOC+7q547u006sBTrx18/7uoIBz8R7Dq1W9ELovvZxmoQ0HXnt59ZIWZpuLn/cEoO723Carp4j8HlDpbdUHPU52t0iJiL1N5XpPnl8yzPm8J88Hi0LyxPizLWLq2HHuO3j8EvUTLL+68r4rzvlviGTyvOXWW9ww20I84Q6nzt5I8S66nGAsBdp9h4TzLCPFnd1UhZ9ztnY6S3hbr9R54GH1xJtv5n4E+J4/1bvLe+Qdl0IdRwz5iLsHyp+i3CwPMM6Wf7iEKY768+1qEMJp9nX9n/r/AFYWUsMvgB/f/pwf2B/4jrvC/wDXILsvDy+PyIiI4fHHAu1fRL3eXByC88uwbu27yyF4fhss7G2PicXJ8jD9y+d2W9y53F9a+rtdt/c5eHUr35T5Flbq3Ty3Q76t/NrEw/q39P6YM/Zjx9/zHU1DrxsBq2gnT78wUgZdDr1jPvLTqMutJXQd8eJR1OUL2+n+eryu7TA8Oo//AHU7wBXV4zyOXYM3J8pzIA6+N+ffqEiAYIb9+Xx/MDBXFDX6SyfC3LY5T0tI68ciODwT4/AfM8PmZlgzZ9Et3R54XJgzVl4fNt3FLJWsljfUu054f3bBDrY1F8IcODgtOrDE/Ke4p2LwyWDs4DTofV6n1mtg7uAjxer1HXLFJZ7mADg8IS269beUTDfxBnmwwRDUPVtv4HBwTYRsv3e+H+UNS8ScDhnzwTd63f5Z4vj0fENB8Z3+yCp1q2/04dtue/zfXU7Z8Gp8Q9dN1U+SfwbE2HwAf5n+5jf88CHhst65fH4kRHA5eN0P6s9Pueh8y7iPMIcPKL1aIXj68Q6hyzwwG8/+buzbzd3e49Se1l+1nf8A7bEJ2Wt5P+5Twy9dqSvmV23+7o/6WvPq7nizmG/qSZ35gPt67t+n+oGAjq0vf6DiD+Ga4wdkwfTAYWARfCGJ48eDfW9n8w3CPM68fedSxdKdHyD3nxCfqCIhf4HxNZwoWcHrd6jGhQO4fXuI8TON8fzIQeyONyHb05gdXh45h4PPJiXufFshZmZ6jNvKfF5Qmyj2M4xILECd2ZJcn9DOecdN1KAO4d4F5RxjVrJjZ5x2ebpeUCfgXtfy17knaPv5mHR5V9nzfV02LI72ti3bcs6WFgeZe+59HzxLtr5o2eYpfMHzHXzG/diI/A4J8WdNW3aEcj0/EHl08xCcHPVgsQ8GB+4w/wBvLuB6In8SbejWBQd6+UncyZpjqdIe/wApf7u/Hfn4iq0AHTr1/gL7z+6brl3y+JUtND4sA9SXf5Wn/EWM+RT9k9C2X/xEQRHDweL9RKnu7rwQxhHURyGzsP3Z+IRy9zLpl0+ruTxLrvxfI/uXx4IS+Fyenbs4lO8L1649lnfN9f8AMzHtn7dWS6e4Ymr+/iJtODpF/cU6aenHx7L6UB2BhmTQf/6AbOR9FQr269RWGdaPLPXR6mCNA6Jp8dlpoz6g/g+f9RmYwuX9sfNnQa3vo2IMzLe+SGh8x7IV4uGQZExH4CZ8QSdzM+ZeuPO8JYeZYcXd+H3dy6EzslZh+mU82PS6fpl2HojxD3D3LWfhbGRXZbwYUfHmZir5bn1YIPBbQwM6kuI/+PZCAdHsZd5p5SbGLnlZ7k/zMlonj6lnuKL5tfMZfMpHD3NjYbeSIvGxU97RC88hpj1j8W5fLpH9h/0yOhKc9z9Wd92wR7hjPvZ4IX5mhCZ3a1AzdA+E9kJuui+MHP8APDbf/BkRERwz6ZsS73G831PmOAiESPxbtgIRyzOYK2V5bRu6UrC8kqUyzHVuTNW22E3+VufcP7JD4LGNzSOLNUPpAgvLQewzeoHymPGNBcd8auWJsiPwnfrHz/3NPTYGn8M171tGQDU4+cOpaKiGcYeVu+/XaiP7Uh8eT6P2hn4ErxQ2PEiOCeDzLvkmYnzMz5lyXV5XhLByRNI5hPnjsE+LZ7j4sMJ6/N5Q63T9JHmPEeLynrh2nRzj2njl41k9dLOfQFhj6yOH9f8AN0735/a7PQ/X6h3nHuW91ltd7tLqb3eMQxDgIfeKfaT2vvtSGLYi8JdWLLZQ3hHuHTIBB+Dx16x6zoUsIYEaO83qc8H8T36Fp9P7n7v7tZhvfm971AoAVXAJR/qSS3ev6LTnc1D1v5wxNedej/EgWHaH/CZAX4Wm4Hi0htt/DOM4IgiOPCWEpvu0V73uPwIjF27CwMcyOWZ2rbdnvbsZTfMsvuWSy+5TiXZe5l7ttt23jYZY6WZR/h3ADfOUxpK5podG+sw8QBOZGZr4FTvJx7EAnzvZ92GtuBoz27liv0m9v8R4Fg7s/UNMIg9bp3HgLgzWy6k58uGdLxXgjx+B4PyfEeJ8zMy74ed4TN7uptF1lJ8W5e+HNnD1dFPgOpnvIdZ8R5s6vUfc9t8Ls2843Yh8wnlkM1PTe4TxL7EEgdmZ1btS6uFPDZrEorOBbCHm8SIh4222GIYsLQxbrh2GIjxeFjuSh3h53Qdjhj8HxN2Nm8fvM/5ui9cdpaI8ux0vFm2MRfhA4fM5/f8AxD5Y+khKQ3t+bvd4/d7Cv83fDr0p5lzLvOAg/wDgIiI5Lq8n17tt6uvB5uscO18LROr0kTOBy8Hlivc3t/xfFOUpT4l1LOb3LbLujbbkvG9w22w+oQB69S7+V/6uyIYutq/UD8HBPfxu+IJGnlHrTwexIRI0Xpp8/FuYdnXW9eOpWWkT+FRXFC/+Yf1E5AanVbrQuxngjzxcZifS8ONfi8J4PH5Lepe7Z4L3x85euBYWuy9y27Z3JhKzY74fE9DwV2z5up+7BPq8uA7IcOrV2nleKlbQx07drs2JY/woYuvrgv8AuPFFgee2Wt7FvdgMagdyx2rlll1F48n4bbbbwsMSW0OxES7R7/Ah3aCGCPwZ83mmLP8AlunR6twZxkvfe2AjLe+iX/vPzP8AmTbL58n+DbE4ICv6vhLCfIp+h6hEoQxiDDDER+AREc8BgUbLzPhfUfgO2fMe9vH+9h0Q/I+m7WeZ9tkXJZL35lPNlMsJTer/AHMcay5bb1DFufAqowf8yDt45gH8eJzoVxh5ecWVOWwM9HrZJ0Ed4Dv2eIoHqquMfEFODthD5+/1FEi+d1Ptgc1LOjv7h23lwSl1LGdCXS8OfCfPHrh/BvX4HxJ3w85hYF3S6zEHd4Sd3SXXD4uxeO7LPm/sLx/rhmvIIY7fcOkMsMBpJgQ828v9sNBkpL6vmwOR8Hm6cc8B8EcT4vW3fhDrba7su8/gD1wW/htsRbYtn7tM741DbPHbv5eryxhed3F4H4M8PEx0/pazx1Os9XuIvFq48H8l3/ibW63VvA9Mf1rHF8Qybqzi8RiUMMMckRHGXjEDdh7lq9z5i7XpCCEbxDdRDAh+DwXTdvV8jv5kbsvUzxU7wfMz3LPi2223SPPB4ttLo86KhzxvfmFY+KupikBHh311/u3MxnyH9QtVPTqGe9Z7tg/y5D+UiPWYDAto9XpZDtEO37urPBeU8yWJaA4CS8OMjxHmeTh6nh8WdQ5WfEsW3WSzqDuPazSGMQcs7k6mN8S7nttv3Eaeb3wI9yd5OYvGV5w9927EmPqYp3ysXTaFo0782Xz+7CekoHUZhm8k8F3kbw/8ZLjzbcLcl1Esravd68D2Q6XjH4PiTqxZ8mftw5PifmCN6kc1Ovm1A9Y/QH/dlr7PX/L/AKvqcP6vNd06nN9N02HrgcjvGoYjg4IjhXU3YPiXc2Q/AHY3Z3YHYRyzeMu1ou+p9rPd2X5vKZcHzeWzMy8Pc/E31wdbH1yjGAaQPP0PcKbNew37xlbtR10PjqzmH0F/Xiz/AL4DkDkT3E0jHgyXqbzE+54HA+NnmWoXgRMLl75DuSzgu3GcPjjxvK8JJYTNjq7cIsHUxg3LoR5vLmnm3u0vrfKy8kdSxtY+I9XlEeYd7dureo2/v1EBvc93hwG9S847xPGLD3N4cXmXh/4N5IhspR82hxnTzYV/KI88d7eRD3nA5eDeU+v+3uMMdui3JYZnAWWvRvXxeEeev7XjzT2/9X7kf+H/ABypJJyWdnA8BBiL3EEFkembr6n29z8554Lwh4eBLzu4j39rH/veMRyvU7BWr5k8b1t5rPtnwz2Zdm7M+LeH9Xufu65/1EbHzmS6dZ/Eebkj44BGbqj7twWaPzSO+y4DEOyPj9z4eYPV4nD3Hjn1EtoeWYZvXD5nxzLtGyLSxL92a3TPV0JxXYiepur/AALtscix3CDOA88eiWQ6iMNZ6nw9Q6Hh7yGS24x3N0vmjcsCBfUTXDw4TeH/AJC2FY3UvD3B8xj77tW775fKPZHC8PyeXPnqxx0w/wAGTOZ6JXxdm8vqw26+roKejb5+N/i992J+Ot/vu/Tp/vv/AJ5GZJIbw++y8MMcAZR3eERwsIgWbq6PmfuIXhDqGQtEg0I4bwg5Zn5u1vxd76vu+ry6vaU+5TKfM9ydTM+b1+HiPOyv8xkOJT0epGZ1dG6z1AyBiL0iFPt938tscDqWotcT4vHxEPcMfgSQOzZi6ihr8R3rxw3rn7vUywZ7bbpa9wyEZo3nCHWMMq2lwaC61y6y9QdQ7t7nwXhBdC8d48kGwYWe4NniO28SDuGsMQ0tni6XUu9EeP8AxbyR1LONSOt76R5Y7h0hl8PyABeOz/HdobrpfzeXU+fN16x64C+xGYOy/s5IHR4OrzvqIw6wHcMHwZw8pmZs0nUnhcPA5F+yV4cCOFg3YktfOWtd4D7jCO4Rh4tR8Rwl4Ry8PC7HclW8nzbf4vC+HBmdnzMuTPffPu3u++NvMEKLFOl1THMRZ5gz3G+TYC2RvwLRWnE9btls3Wuq0RJjEcnmeHh5YZ4PGFt1J1eG8tgWd3jwY3gJ1lrd23bfc+27btg/UNEM6s749cCHizC8Itwl6n1Mu3eWF53m8W7B3HLuQ7ixYds8LyF6x/5hhhhE5tTNtWd7xvWHWHSPyHrf9wvJvz3AcU8WG+rZfBfDD2dOW93sYwp+u/8AiTHL/wChRth9n/ctVn+BmySSThcMltlw7SlAXQ2d7XvzLX/u7rgPxLyIdl3gRwD8DPBdXlvM+54suCyWXxLszwy9cbLPGw9cEWHNSHrf9y55EE7xCFup0LB4yehyasnxo/cCY+7tYiXbj5n4vBAYOo8fgPPJ5nh4fET5nhnxMWU9i9T5tO4YT5nxxHceE3GEezbfsl3dhdaxzcO5s6g6h3YdoTqO2zrLMIjgcmTsrKPEvM+Q+J8x7R7vJdk2I8f+feTMtdPbefN5Qo4I/FiJ3CPnDYf6i6z/AIhQOnnWT7g+fUd2bdG1rwh/g/546a6/0Fs/wf8ACc++DwzPGcHg/DMLLmlKWlkj6u4XYJHiOQZDMu7E83d38XiY+I5ZnLJ2u7yEhl1eXBcGZnZn8HLS92ddcDHiF8f7gvtAeFv2w/H9o7DX+4y8v5vufzfp4TVZH35s9j/DbHGuj2PzJlgvL+Z9CyN2hJkeODzx6iYnzeb1E+b1wJunDdZ78zDeQfNnUOuIawCCHd0X6nHlCONjh4e5esjxwTuUv1hu8E7eZMvCOvIPce46LzXejqO3jZ3HJ5PE9wXr8X/xHG2Rk9nlxHV5l4ZdY8W8szjoNRifJ7JXWAm4e8ZDidn1LHPfkfcP4gf7PH933Ln7uh35ts3Wj+9f+uO5+R/tC7X8P9s5Xl+OWTunWnz8WWWj4seHF6gZXdxdF0Sjbderse5e+XkQ7hed2yHZZQdRw8LKXTNqe/mV5z7eT1N24PzMz5/HOPWRH1HXhhQy393xNuF82vlurzbetmr5hj1Ahg+fK0MOGG9wvLx4tHl1dhDdZeEMx44Hg8RPHvj1w8PmfHPAZ1fufPUmeIYTF4Tu16stOT/qvPefBgX7u5F4vMF5R2zw6cM1i8Y9bHuHUeuMs3sjbqcMlfO8Hl9fg/k/iW28W1871vC9LwXTJQx+IWh4PRm1Nqrf6+f9/uDAzyhf8eSZw0MfRJzI1vHnxaGakfIeD/HCfWD9vl/4lwO1v8Hj/m0lPOWfhllkmzWNC6WMfa+Zd3vu37dTKz2x+BEfEWmw6WAj1Bwzwdi+7zj1YLst4P3Ob5N0PEus9sz3b+r3vC92xJwcFr4z9z8Uocd27vGT7hy18N8g8W3xL+rXxd/UL4t/E393RjD3eaBYfD+4+J/d9T+4+a29wfmx8wPmzvmxkH5s2cgyNkZE+ywnmRGHm7/NukzLHhwwtptjJ3uEvC2M8XT9MSuLsCGffYIojbeoZd25drwhh7hvlMcR1wXfDwXot38As55Mum3v8W86Tpy23httt/BersT7N34eJwyF0lqEah/BsPD+KIGV+kLp/Hkt6hz0XX+W2bv+/wD1hJQeNr/vqTpnj1DrKwHtlC69+Ob8uTAAABgHo4vKfwfzSTZrW5wshOl23TvfifIQ5D3B6fc2kOl4cs8Fg3U/Eu0+13dvfxk/iXV2l0SmfiZ8zPPWzHI8CcpPx+p+D/EjroP0Tt8rO+O76j+rPsLHsLbv/i+iySf/AMn4v927mWZnqHDws3lKN1H/AOyP/wBkfJ/uPU/7j5X9x8/ggE+wvsL74D8WnotZ2Qz6f3I+P9wHr/c/W/mEwP8AMhbt0e5L0pB1dsfl/V0eX9Rl5/1G8T4nY/4yLwfPn+kp8ZD/AM1mRnPmBOXZGLDJ0zxtj9H7h/8AZOv/ACXVGOhvdenRrAh4l/7Nd8f2XjEf5sBIdbbe4Zd3lPriEPUep9zdUu2fTD3PqHnf/MssFk9V1s9cMTxLw84urfwHAhy8ifyG/wB+b/YHn+dmt/bJ/wASgfnMD/xNKX87L/xODPR4+pvBmedn8Ms4yTgx+s9ZJZeb58z67Pvgevxz9o93YQwXjHLwyUOJdi7M28E4/CWS9S+p0mfM+dl/U92o8e7b1fTb6jNiNt/Fv4t/Ev4t/Fr4l/FrPE39b9Zq/iS8/V6xCPC6kPtwBxX3RA4j7rCV8y/l4t/M/JPomH5pXzOHmRI9z8zb+W0e7D3fdfdfdPyz8zPqWw9x8kfJOvnq9wsyt2yKADW+cx8kZdr+48Wx81919191l7tXmA+b2g/m8Z/ZHztFDytXQ/ptB2ljAN+7A6R4FGX0siXcuFvvB1S1lbbbbbLxsN7/AD3Jy6Zd4O90vKWZdpl1+eSGZ4I52bZZZcGZn/y5yN67qZYv6283ifngXaO8BDY7kmzwXhHDPFdN2N3vxPy8FefAM5L33LPzL7mb1bbbtvHiGO4vmmor4tfKdvKfmW/hvqbfw31SvlMNI5eJXxLHbv8ApGZh6bD1fVfRHxWfqPhj476r6p+Kfgn4ph+Bvovhz8cL1PwT8Uv2WreeLfxL+L6pXxZ8LH4ZXDGRsbvZJM7Jb+5smTG8d2N3d3c7awoD3ISkL3GfLIT2z+7T3r9wEL6gMzQZN6o5dy6LeobbbbeRt523jZnxeXgOrocuF3/gps3uPwNsy29h6N0mWZ8z3/5SDkel1Xe9Q7evN1WYhBdCHAx8Xgj0R4jhni3U+3u7ni++Llks8y/b+yZmWWW3je+fDbHcPcNqn/z/ALsO2/7f92jtvv8A/cBmvv2P+Y17/t/92hhv85/psh7y/h/zd+f5f+8H5H6t+Ahd/wAOHvsw/wClf8XVvk+H/wBS/P8A9/xG/wDgH/q1/wCIf9R6l/D/AKvKD/8AHxayKOwYGz2/f/eF1h/H/aG8l/8AXzGWof8Ax8w47j6oJ5L+H/cL6P4f92vo/c28h+3Hqf7rb2/n/otPU/f/AFWrn/0fqV8fzH/Sxdf5P+r0n/S/9S/H96X8fyVXx/UvkH+Nt/0pc+j9LU6UgXx/8/3aH/3/ANz6Gf8A793yn9f9sN/8f+bbxl9f9t8af/HzB9v0F/5n0a/m7Cf03xtG9f8Ad28T5kXjYbdWDw3wo+Jj4mC7RvDL+ob3/qP/AEV/+NB9v6n4Zzj8cszJA8WHqxIUhEpOTCdzoLpeHcfjY3DvbzSNvKfVsNttvG2w22287xvU+I88vhw8JeLN4OvjHqVvd2/BszMzMszyn/jCCMcOq8BDF9XkmC8r58PK8o9x0ZCEobZlndTALW9HcurvL13PrpllyUrLLM+fmW9/vht7thiHq7P1Fg+26P8A3d3x/Fq+e7p4O/3Gt89xoxuj1C6Lfhicenjx4vcLvmF7tfNtO2FfdHRPuYb3b+b1b1CtFrdt/N8y1dH1ZfFhdH/u3b+ZWdrazzLzy29v4S78f1bafB97fYf1dnf8Ude/6rwrQ9H6I6ddfqBMP4VGyDTNP9odHe9eZNYBjRBCJ6vix0ad/wBVl/0QB0H8Wfx/qHfED1kHXVk7GynkH+I8z+iwjr+pdaf7nrCbYOv7E/2XsH8F7yfxeo7svUCTZTO58dzGHYlmNp7sl3uuy7urgNtvG9W2/hvO2zPC0jtvrPxeEdSlZXg7tTj6ydEMuG/i+Jng8P5nJwQQRFkevuHa/wAiGx8xB4eMN5RuZeC8CGG22WfV27RZ4rsTOfXBnHu/ymUz4m9zN3xt1t1EdR2RMNurQtWFtZ5ttt++O/m7i1tiD3eEL8RNyIJYgWlj5tLFtu22yyjbx1N56vUpbpb/AOI7+wsM6+IO7y2eS6UQQLA3CwyACwvDHe5xkhlkk7PF0wPiDQy8iP6kXoP1A9rGffK9J4kIEhEyd3RzIQ+0JDbbNtttttvG2y3ql23leV8bxjxwXew2FmQIcRs4Fs++d2d364fHIszP4Pn8jghiCOPC889/dfGTWPwh1w6l0hZOrqGHhsvBku8u5/U+3vuWftOfqUu7y4LLLLbK22w5/Mcd71D3EGyzkmOB5/i2G29ceobq2G22Mj8N/DZn0t23ON6tt4S23dtrbbfzd2xawwAb5Eh8XogfobwIh5ve8MHV2hhbHaDh4LYBlq7Bk32OkPxdzjf1JpGk8GQ5Ts3/AHyIUcfhg287bbbLqfW7xeUvZerKPHAhy7bOFLYL7+Fy64eHkpmZmbfx223gi8oiLLxbyy8kcd+Z8wQ15DiPd5F0Qeog22y3W3kLFbsctPM+nvuWV7TPnh/Msvq/Ut582z5hy8p3OBD1Fttt14/EeG2w28Nh7ttt+4mjyJi34ttttfm+3DtbztvqbZ8292228bbbbbDERLwgY583cWnzjHCIR28eZ4IYz9XQvlgLwZG3d3xXUHTHuJOLUu49PqVImcSXTuSZttunEv78SkJ5WLe7bcuiwP3PVlfKftlDvWePcLbbD3yQ9fFqefwKGbqZZZe5Z8S8LPz222GCOBwInI1LV14vLWTGLz4CJdSOi8yyDu8fGcW2FiN2LHu7/FoS+bKWUpSy34yX7llm2ZvDbbXIYYhjz+G9W22w3rjbeGx3eLYjs4L+eC8Q228Nt+LSXLWzN+7rhvfxbp1M222642222G3PXBY25k9K8pdpt9Bd56I4CHd5S7yWGzt2IBxHfuOyfNu9sC+YMmMvd64HCG3qO5TerM9Q3rOQxONnHEpAfMa9x8mzZ4aWy4n2neUpdQwwy9RwO3LGw7ic5paW8ssyyll4bxtsrbbxtsRHmPPAbep9cAjXxeWbwOClDx7t5krCw4Bb9XjdNibtsi1N+5Hi90v3OUvcz52WWXuW9yOGw33D8cBhdjxxpbd+2G2288lttvH1xsPVsbxsDkNtttsMuW/PD622LxeVsvXVr+Xvk4zbIwgP8Zuy7G836vGxyONwkZPiUyjn3ODzb+4R74N2EN87GnzambCu7w88kQJ2SmhZL7gnU1rEkmW6cCHD0eZNVTN6/UdePTdX6lrs5zZQPmHY4Bheo7cefex/PDq8BGbLMvBZZZbeG2228bHBDKIbbZ9M+36vJ6Pd5vcvcPHw4KfV1bzJdEQhn3Hbh13T3av2tu5bO8pSkvjJfuUrL1b1PmWbeN43ru2PD/i62PML642ZvV9cdw9Q2986ZxtsWw2x8rTD8xHLu2tqW3cjPm14HhLGz8dttvKHu2G3OHm7n/RdvndS/UZvVnHSMLoXVffdfm3+H1Dh/MF9y/NvaQ9Xfh4wPZakEk8BjOzgVPGjidYvb3GOHR5ulngO/wB5XSEN7C+oc9x9rtDE2L03q4vHdPnh+1tssvbwLLbLbbbbbbxtttspdwww2z7Wj5y2U+zvmXuUu5dS4esNDfN4uodRydb9pO4+m3o93a77u7q9FoylLKfSYukssttsttvHu2GO0N2lD3ObCXXDxr/EPfdsLx7tC2/d3HGXiOBfq23OuC3q239W9Q/M87Lb8cf748GWx4/DY8W2tt/B93T9Xi8fru7D9Ty927yt9lnvdv7mO28uA+7bbYY5Dnae+bOOjlrvCySSyFpPAaxL3+Q27tsouts7QtPfDeAx2jDFGcOed3o2NPMFLbbeBdlll7lmbbbbbDbbbbDDsoZdENs+m6HHu2ZdyS9yndEMO3ePi6bosmWftw+uz97bLuW+9+P8Xklvcu5dvcpTnu2XBwMu29Skttpb6tt7tyH1D3b1lul55BLOl2/mf3BZZZZ3lnxdT156tPTt4iKx/wDu3IFg72Ttnw2E8LNl7tMty20tPnhrY+bT5kDq+eHy28bNswm2Pm0+Zv15t6hv0n8b5vBHR7btv3Dg6tlZLr8zb0zxbbDbbbbbbDwdl6rtHKryfu/SyySSTZk6hCZ2SQnct5X73lh4MLG6I3uz82PmOkdrYxHaJ23cfVndXVpZv2sXZLLL3Il1M/a2222JtvDYZQ/MuAEzuZCDsu31Pvge5X2lwXcdzfd23zHWekOuC9z5eW63W6V3tZ9vufXAsu5dbBrLZT8T44NttvVtu29w/gPVsGB+eGYih6Nucu3ltQn3fZLdXtC8QXz3Y/t8xn3a1d20+4yyR892Pm6e+GAv2Xs76+7CyMzLr1xg+rLPVl582WXuRy/iw4ZZH15+7Dg88b9W29T3AMFfM9B28ewAfufu0ltCEOJqpKbbbbbbbbbYe7bYYmU3ht46folrl1b1bMzJJCSYbJCSeCtszfdheGFYF/DHa7xj92ve2mDw97SMtlaDu+7j78FlyY+svAvAZeGImv45BhhlKUe10XYuhINdy78y9yl3HTgfEdnUOpHS6IRyWHMp4975u97PEO9Sw4F3zLKX57l6l5G3vZbZfuW22829+bbbbY+7bbdPMvfm2EPduGjd7dseG3bY7O8jr3tsOsRbbLfowQK7vjI+Ma4CsQXRebG8cF553hz4t6lzjm8Lbbe4B5svDeob+LZ7k9y0O7EnX7sQvpaHBEB7j9rR6tG223jYbbYYYeNhtsG782WkWdTC/JD1bbLLLLszMncyQhwJwWW2GHHj6d8HlH2tHzFPvEPh3zD7zD3Yvm7P3f2wo68GMYt2eZ0+bbpavtyDa/NsYgD1DHAIR6Xel7n2ljwpdwyn2XqjDWAwiEYdQlm/Uh3K7sl3/FpMyWy/cpdSyy9z0lmLbbba22x3HG9W2lk9t4tsui643bd49x1l3/7jn7vNiFr+PXfBY+Ic9XTxa/Fvcv3H2t+23OCn6/V5fd0tZ4Ft+ru74PHmf3yBZdZbb9Qx3P13IH6uifEqZ0dzyZd7Ca7Msz7nfm23htsNsQ222w22222ZthF6sa2Ftttsss5MszMzeHAcHj1bw8o5594fzdGEfeB9wIwfV1jfe2fvqxugF6+Y/m6eni8B4L+AsacBwDftEO/ILeCn022/FlpTuL++AyldJu3q/N1n0Qy8odsPN8JJ4PM+t1ZS4S6ksuGpbZi25bbbxvxHZHfGxwQs+7LLwcerYYS++rq6zpu/X98Ftu233CfEw422saJX1HBB92dSdce7bq0eNvN4ttLS20Ldhjt3w2231dgveGy9tiL92bgoK+2cF58ZnrZ375NttttttttttttbbbbbMW5eE+LrPlh7h6ttltltlllngzP4j5488ZbjDeUcBD2GO5FIdfMUPzfA8H3Rod3R54dThenAszeC7dnWchh8wt+rFiOM4Cjw5GI/ORd9zxbRW9+YYbJ74HqXl17jv2jmPD1MeuIdsc3q3rt1f3P+pd+ZcFwXfBssvC28ebYZiOC3InLbYbzw/UMNvuH1ax3Zd2OWNiEWb+r9uTmebs9WGWkI8bbbhdr9rtLbbPRa23fiF3659xzkceYz1KEtsf0l31Lr59WT+i68kWdW2222222lsQeA8hNtttsmZgMzMX3PxdFgEOselvDbZZZZZZZizMvFy7SY59Txvdrw8rcU69sY8MfC/dgvu+Fuz3eG6Tu19zXfufhNdzG/vM8OG/gc2OBxE+YDzATpHgwP3djrOpa/5nbLxHzKfvgNTxd5veQ6RwsJ8Rg7jifc8XJvlZdSlL8yy936TLLbLM2228EdtkXmPFqT8QfNlln4bE1XWLbp+77W6fUK3q18275LvkEfPG/l65GU+YtvEsOcB/DbYhy3S21nqcn0y8l6zxLj9Te3JttttttsNtsNtvG8m23ldlllsJdr+EcNlhlmbLL8W3aXuZctllvKYEvN3EeOM6ssk7kb1xtot3jePfngfL+4z7jPez9K9Xad2/sY2eY2XjO5+DPS8rznjPf8fwR9uB0vZxKMO+tuiXldou6n8dXlMrV5XjHstv3dPqH4G94jeDY1D56n5+vHF8zL9+ZMuS6m6Te5tlt+b3deN4I6fwOHu36ttZnlah5G214z7tYtyHhdjzGHi373hv8AHAdt6lW3a3HgvfDeN4N58QykPVsI+7YbZdhuqf8AEuyZ9+yYdwn3Cjpb+A222VGYPzm29222228Nt4bMJmcAu14m+DZb3bbbLbMXZm2yyyz1LPfEpytlEWWTJJJDlbbbUfO+e2882Xu6BuReuF8tl932yH3J+ZG+fwufnj+9viL2xOvbHw4O7zK2fUmpan+rz2Xb8RLJQ3+F38W5CyN4R44ZZz68WCH+59vzdfE8leTKZTkpvcvDbbvGxHB2QcHUHHqPW3V1w9XzHm0tIfi1tvds2wuBp9QUAxfW2+rYeuP54G2UhlNtLe5eG1thu21t43vb+bbbeDLbeoSWa+7u28BIjvnCeX4DbY4N5Nttth5Nth7gBdDYZphO22YxjNmbLLK79SyylLZ98A2I8Ry8pJZJJw8LyYS+vH1KPzIBv8tg/wDcF9/02GYfcD5LPm/efvGeB327e49Ipo5ClxVsp9Mu3qbuz14GOC6iPj+LXP8AccEeo8cm8ZzqZ6tP1ftdHLwlKWxksyzeZjxz9kR4jjOoIs2y28z4y922lsxe5u/Vj837vfGTEr2KV1/1EMdJ7eJe4fm2e/w3nbZ/XGtrxttvO8bxvfdthk4fSWOSM3Rax+AHBsMMNtttrbwHgTeA3ZZHH/mMNsttstssststsx1KXZYdwd/N0bfjk98MyScJ1YnnzJPwkk6k64ZturD+YQ/UL7hmfMIPLCOtvVkSbAzzaSPvb+I37gZBj7xSiyl3KXi2XUsj7f1N3uW2PMMrvP8AmXg+PMOiHUcM8Vlhs3+15T12Zsssl2ZfqfEz3M6nXPkhsiDveBsv93vnbbclhbw/NvID5jgvU76zYvPC/HBDvGwvxbxtsvG8bbbb33b+G922228fPfG8Fvuf9Vk7K5BdUcBwE6cBtthtt/Abbw3kJ3F1Tstf9w8NlttmLLbw2WYss9L7rIksN0lEcvDZJJJJNmzjzJJJNuTBFr+bWeOJj3KdjJ131kqWQ8w+d/zAfLHfzax4cJyddk5Wyy6fuXaeKVuwwx56urLUjv8AV45wHLZlnIx2fb872T7e+9nmqzvJm7PBeuGfHD4usm9zF5/UF5iP8fgWXqPN5gyIt420+L9QtvV582Q388dXUW9eLbeuG295xtttttu8b1xtseb1w87ajbp5t++Nh2Z4XwTMkYfqLo+/FmeYHyQD3B+Y7xCdG7R0tttttttt/EF4OyzCMT6tE/MPXJsttvcssvxbLLLwXqXXB9cHmWucAh/B6s4SySfaamEkkkkz44ZXgwyfMI9wvmxTtkPD19x066vYdu7zG4b3fafq08Nrlp674eku8vs5D2fb5J9/V5XuGGU3T+rrm/V43pwHhZbxn1P2dku/+Zb+pS7lkymZM7mSbxZZZ1ZlnORydlkO+L/cOeW8e7bevcYi9872y3juP3ZMWXvjeNi23u33G3rktOC3q3u0th22238PuHufPmOoZdn1b6vKEcXLEDfEJD3HrgG4f5tPF0ETYhNjg3hvJtvDZgzx2wyxU+LZuw22222yyy2y2zssssupzwljzecdtsfjlk2WWSWSSaySSTJJM2z5ttfMO6fcOGQHhszzdE2EB7h+SHewQeRtSJj19XTmw55nid6n2PW3lwcF3k+yeJp7k4/cvF4W8PDxuiSedn7sF7w28pdyng3n3M8PGXnjOA4Czrjrg8f/AHc+by26WX1ZHV5433N0EPIrwT4ttDqe7c6vL0x1w28L382228bHP8/geO7bd43jzxttviWHnbJs++BU89XZ0zr5t3zIPm+2IUhwbw23hvDbbeC7HSMXWvFs3v5tt4W2WW2WXjeG7M9S9ce/B3+c8Z2d/wDv8sknTJxp37kkkySTuSZnjbYeB9oh8YvfmY9fwXb293VLjHbT6fi362J85YTzE9/Uix7pd8EOQ7eV1Dv93gH1eBwOHh4y7Wm+vOWRy7P6+ODdWZ8Szy2d8NlnzdWWd3nkLLNsgPd1/wDPG86fMNvDLbb/AFDj443+4ns42Xu23Nt18Q2vq20+7bV/GRu8eLfw2OO9n1a2jeLevw3eNuw/cPrJd2UuE/nxL2WloT3ZMRZ1su4be4Ymw8bbbw2222GI4O7YN7ZMMSBZS228PG/gz8+5YTl1yXeR/wCHOMk4ZL5TJJsJO5JJOpPMklk/hsMN5Qt89SZf3TCednHzl4Mf6mOCvz9THhf1aLOzKr+7b+7YYSGUzqWZvkl1fDl4HDbeFll2O8836D8T77vZ4Y33Lvg8MzeuGyyzgNsiDjIOrL1Yeo59MeY/zGBb8SnuX76vVt4h6ttce7fnhvdv9SPF3n1ePLGHmW2782/Evfi2WF6bberbedt422PNtvXBbwebZ9SHPEpS7nPri5Sl3EMMMNtttsNvG222w23V5vF2W3q8ixXO8285eHjZbbbZZZXgjl5RJIjM/wDIzJ1JMkln1PbZW9X9t2z8SYk6nFllkHJsoh2sIgvm3bfbkiZ4J7yfUT7n18/VhkPzPob0eLqLovGG2Ut7sHuS7Qz71uy93lKeDPCc5Zzlm8gYss6iLNv9W/N/tCfE8b82x2X74923ljzD1Ly2r6vfi3Dou/crZV9xtuN5t6tPdl6Pnje7Pm98aXWcjxsNsNs225e9n4/Udy2GauXkcTgXZlKXcMMMNsNuQ2w2228bbbbfJuq87buc+bM68ENPibZlt7nvh5WZ9SvDgOBH4nHrh/B4YSTe7I02GZ7CcoR8ShuT+l8HF9OTII82d2QQRDa2snc11+7dnkiWeJt8x4D1HnCb9x97fzP2l1ECf5u5Phlpv++K17OPhPiZmbNZLLOGeoMnzBtlkGwdbEGvjCAeu7D4v7ulv1C/F8239Q6+Y7mLvz+Hjjv4vJvGbZw8berS9REPfH8z1fq7u+R7u8423j4Zd7b8+eDvk9urzKG87uR6Orwn7n1JlwGGG2Hjbbbbbbwttht6nF7n1xsH2XS56l6U+Z4Xqbb3PLLKwS9fgDuG38D83lnuTJnjzh8kdMkd3cbz5/iJ4FkJc9dwn63627EfCIcAfVnCy2+7bb3z4+rwnjMPnGYN3+LTy9wRmY7/AJ+YB57hbGQY2p17e7Tp59yn5l5+JGMJmeMs5zjLNL1BlnAQQFlkBL9Xn3d+y3n7437tN+bbR+YMjMLO/Mnx037MK85Jjq7LS29yvoeN742/jhvXf9w/EPGWPxd2NiX8Wcvi6/nnS22OrbdPNt11IYlLUj3ZMLoHF9S04DpDDbwNttt7tt2223gtn1L31eO8HRz31Z/jY9eCzP8A4Pkc3l+ARyfln4s3hPUzwsdJin/N5WbAzHS/ELnX+L4jZD1IdJOPVrGKdvF9Y+t4cGpJJ3PCdxFlm5HmGw7PMwG/zknz1D8qS/MxG/02NZbrpkPv4LQu45Lx3YXmfE8PmZs4Qsss6g5yIO4O7IOrLy6jxD8zOt082z5seJweG9/V7sSWV7sMt9e7zbh8xibebP3a+Vs7ip4y/R/dv6fxfL/SDnlv2cGToLHxdW3r8PfGz5t5Hj3zsOW8eO2xL+rysZvrgtDh9OHaIiHgYb3bxvLxuRw3Le5+1tt+3YN1Yrvi1rM/i8s3hyHnh0vC9xH57y8MsvUzPAxCM/V2LJ3ZbGR8Q49X0Wu4PUl639W/jI+WxBgur4yfDqUdy+nJwks4683vg5HuGJ0x+0dIR89Xd1hkcfa2e+v3EPf6tniXcupGfifPc8Z3JZZNmfgHGd/dkEQIGA3eMh14/wA3n3fzBncvnvxbvsRpHtnvIfpLNj3ZJGub9Qj5I7dz7rEEeDbY8QHo6nOM6m3nbeNvdvLxv4jrxt9OB/8AB0EPBT1uhevMpcCIbfwONttt4W2GfEu8jhGyH2dx14WjnRSbfyeGeZ8xyHURZxn4P4PDMnUszz2S8dz0IIOLvqeuF38yW8fGyV8SXyXwJoh41OtwnBmf1Obs37Sls7d3iSSyCz8PERjxGo+0U+8LxsfHJfNv7l4v1eH3JO+ZvPOfhlnJ5iB06g7s4ILO7Py7H/6LDP8ALbF8L6H9WPg43ucbx+HV5i8S8bbdJvGdfj45228385+uf549Q928b1bPG2228+BDfKHizq/ed4XjwM8R3DHByNv4NssRepd3leMRO31eov1pkly9bbbP4svBT5jtjqDER+b/AOAzxs2yxvF3+5mIdQWcO1j4u3iH76j7QIGeIDfRK8A/TIrg/i0eM97KBhjdrf5lOyxfEMk7s75y92cB3ZwML7hc5P8AJKTOz5mfE+JNnhOM/A5M2CIiz1EC9W5bv4dWz5428x5183vkiZ4zfxfP5vi98byy8be8mPu26O9m023vkR8S66lkobL5R7v1L4vOW8VEMdvEP3aQ228++NvVtsMS6vJLvid3cZ4jxaF9SfuQ7/HeWZ5GOQ/Es5fxeGEzPJZPmJMu8HUF2iY+Id6ID6gx2ujsyHbwcs+zqB9b+4z8vqJHrGU1/wCJF0s/X7sGQDWbO7IIOBM/ux+I3jb9zw+Zlc6hKTM+LPfDZzlkcmRBZeUHxBBZvGXibze3n+7eolyfnjxbDLvO2z3e/wAvXG3qLZTLfFv3wvVvPqPF4i3glzMtW7ToRphhljpdhMzvqRAPmCO0Eg5FD43uKQOcMeIfu223h5Hq6mWu8zj5ZHswdQ6YnsO2OIzh/wDGDF6cCI8f+P1Lwyll4fjglrg6o7BBwFId+iIsYipthIXxLnZfTF8Eauo1Z2+b1jLKTkCBvUU9s6sn/co9WPxJnj8GfEzM2N6mcnh6mzfx8Xu8dxhEeI9QQ7D67i9Ruff5HHq98eedtt/Bh488e/x/3bN/uG3nzNveS+uPm3A648RD5Oc2E2QiPmW2y6ljsPAe2xR/xb34I+zC77jLu5H2j0PVi+bB8rAfLB1C+7EJxstseLwl2/xHy4l3q/nGDqfEfWmJ8fE/hn4P4B8x5hdiOojg/HOHzM8MzJJPJweOXZxDSW+SPrEOBrDhYsdYI98w/stZ3C9ySPIfDr3aI4O+Nu77ZmWQXZNHHjS/Sz+csngyzlZmZ7ZO+HzN+5+eH8sO46g/u8IIdwddMR+/wz3x7/B/E4298Fv471+Pu/1xtt3Lw8dz4t7+b1bZe/w9XzeP1Pi8myHx5vlETzOL4OAe4bYW21aPEI8wt8pHyPHB4N8S50l0dsD7gS222Ly3m/N5RLxWXPqJ8xI55cujwlnDwzPufwB1diyDkPzySySZmZJLODg+9sGO53wdxBjEIcDZ6iYMM9Rj0QHb0A/xeHKdLEN9R935/qHbIchOy1wSLC7D5Dv5kK4P6JR9lhJJ3ZnczMzwzMz7smW298bvJ5gYMOCH5g7s788esjqPw9ct6h2fF4effHufzed42d+b4u941vU8L1M6nDfu/nedLY664Py4OB5jh4R6LwEvx1C+I08Wvhl2rHZHjbUjrDuwkEyzyN98PKGzPNC8I6bp3xZN3MtCaMfMllnGTPDtHqS9wvPuOCOcs4CyyTJ4Z8zMk+JssIgus8EjqJOIcB3iYl09X1sPUHmD1RYn2eIwTTIbwHqcni64dd2i5ALINgXuBbQgZ2QbYQk92LsO5O7Jkz+OGQns+5IcLwz22Xm92298l0YiOrs3Yj8PFv4dcbeb3wcbe/y3LeN/B/Dfw+Nl74b+b1bbxn5fzd39c+USNp4P3eLqfTZXx/SXOyDu53eB1I/mdeoB7JJ6y1PTxITSiNhEMZj3IB3eFs9jZ4nz1PvieboWPwzJIaWyf5lc+5J4eWS8vzhkRxnHmyOM2eBJJJ6kkk4yyCC6rey8F55GPcQ2+Lt8R2siCEEaIY/VnVnzPS6rYTcgq/cfMPPVkQO4ustB1anvvzHXqx/0XZP6sPDuFkkn9ySOTJMvc/c8M+JvPH+r1l7eDgjoiHrgfu8/hu9Xmy8XuOP9XgvcPG2z82fhv5Pnvjr+ONjvr45W/fLPju8nXdvrzdzer9X88bF88dPdue48xfC6v5j9eYT1d4PZBvjzFAWZeEx+JPrnBxwfSf0np7JQ+22eo0sCx7tDLp7Yt77vK9OpWnzNkvrlI1t1/qHcz+Dyec3uF48AjnOAsssss4yZkkkssshWRBb3+ZdnxPuGg3uhJwBlsbHANHix4ZJ1DSHSN5Id58x7cyH7kssgg79Q1H/mHWMEe8FUe2PczM/4vCf8y/E+J6mU9Wz+ZbF5i2IyLb1eoZ423u8t4m3je7bePfG/+Ft5ZerSeG7/AIvf1xt8oZevm9cHiGTrjbc4JR4j/MI92+Xx7dPf+rshEH4JtlkgyTqeJ+cn4cvgtDl0sD6tTuWjJ+0++rwmF9wQj+CWyLJbMyd8M8nnwPMIXhEEEHGQWWWcJyMSSSTrhlkQQdwcHgyXZdyEOoh7uz1B8QdffAEFlkk9Q3bOu/EHXqMn1ZBBY0/xDs33eM+r1PtwAu9XbgJl3ker6T9zPAk3+Ls4ePHOw8iItvrh523fwfN37my3u9w9fjuX8/j1N4ve3eXiX1bbLw8bb1Pf927zvfd448XmPFv6hhvbXgcT3bB3vzeN7ngLuZ64H4pw2WWdycE3h93ba+pwyxs/dh8u5d3gcR0zwR4PwS2jOrJZh6hJ3xkkzyvngbwEQLOAXhZEzkyySSSSSSSCyyyCCPdnCXZeBDvhpHhB3kFi9H92BEJlmk4nFoHTfu80dXfuEHfGEVh7XrlqeDj7v7WjkZ5PBnqXDMvqbpbwz4vHG+s/AjuIi7HZwR+D+Xi2zvzztuW87n5Ft756mzh82z3zvDzut0v3bbx4t/D/AJRwPdo5Ejru7M8ZZQYXaI88fXPuSfwyyz6nXrg75xDGLs2wXdlEvzeHGcZbImHp4jjJxnJngwRgQggzgLLIgfEFllnBJEskmMJllkFkEOKxB/u37u0IxsEfKCCGEHKQgV8ydPpj3HvuTZOXdJ9hPoN4LtaF+7x5eecjL6vCZd5kt9OHjeHjL3wXmL5QER1GRHX4++uNMlv1d28PH1e733e/qYv5/LxffH74e56vq3n1wTbMOzGefi9w/fA/Ebn4+3fuIvhAnTuA+42OL42HRBBwfi+Z/IPwGt02jq3Ie7uLIRwvtjjLLLI+hIoyWcpw8oSQ7jDqCLOQLIhM7ssskmPSTJJ7TMs4yCyDWC6svEvBE6fEYQ64AsgtJ0xZZZIxwbyvuGXbzD4nePK8/u6l3d9eyHqXWXmT5unIZl2F2nq+14W/HBnjeUOengiHDbyj7jzHiI64W3uec6svPi8W8nOc+reHh+rzwvq83ufPBL8W7erv6yfi+9l2XJMdH4EF4b9Re7djxeHd5g8XXzeOQgxD+LyNVfbw+EQSXu75fzIvUkzazvKJgfzYCfT9x4iOEstct/DqHfiSyyEJI2QR6hBsHVkEcBMssgsskkkmJJJZJwyCIII93rbZL16j44GcDgdcAs7skvDbq7Ovi819fF0Zssjq+UsHxAgf/NvldF5+PDbV7upkz44MuCnuczq214C23nyfVnPu8cERbEXXLyEe/wAPq8W/fG9cbL/4MkFtl2ZvL/xw998bYep6G9PP7nqX47573jfi8x7jnu76/eRw7yIHksVboCfRsF2QTMzl4Z/DY8xepJNk6tS2ZkNIl0kDveuwMRwlk9INQ9WeM7kssk4B1CTuAjqdQ8MOoFYmZBwFkEHVlknCSSQyElklllkEHcF5Tz+buLsWMh1YTfUJDLYAfPuEEHGSdXhedLq4vd2US87w5OPRM+ZdM9w+d3MvP7vK8P8AczPJm+HqZl7m93hs7tnn3ZB6sYb+rO4IH1Y2Rxvzz44ON9cerq8/jvPv8ffDu+b+J/D3e22+vViHLPPvj98Hx3eePUd3rLt+z44HHzLxL7w6zIwWWWSTMzP4keOUkjhYcOXRjnoYwr+JjFlkFkJk23p7cEkhjCPzZCJC6Ih4sssgggyyyyS8rJJJISWWWWcMgiC6Sl4npwDY6I6fQa/fohsILLO5JvBn9zniWlzP3Lt/3ZvLh1zHP4jzeV4oA56jRPqft82NO+ZJ8Xh3wfuZm8uD0zbe7qZvd78z3FnBF5iCIhvu/fHcP4k8bNtv5PO9zk3vjvZnzbLbLnjjr3wwby/PBu9Tm3vgb1DwHHqHn8seYPXAiw8Mdjh9x678wRJwyTPDztsefwHdmxw18Q/lD6vscERHEevGRxDZbxkFlsXiD+bvxJMkmGHULODoy7IIILLNggs4D8EskmSSTGTjLLINiI83lPsvBLo5Do18Re7y6/4/xCCPwboXRsu6/NrW6T98lv0n1z9ywkNXhbK9ZLWXfDyl1PDdODLPd3Pi3eG3j6vdkbHbBB6iIh+5426t4923n8c5/RxmXm637OGOGz14t6nhvM8Ns+eN0fmfPReuuFwjeDDZ02Xv74OMw67lwvB1kXlGO/xdR5iofVpjdELLJmSZkn8hHfBZpdUaPF35GjHPD6+Y2BjuCCyZq4dzoZ46kmJDYF5Wdxj0R17gggssgs4BZxlkkxJJkhZJlllnBEXSeOy6J+OJ7giMRyzeE/6Ja5d8Xk88fC/Eeh9fHBmlrdL2m8pkmeR93bh43k4zg8Xm/wAx62I8/UFl1e+Mic+4Mt/LPxJ5Z+rx748u22+er3e+N3c4WNnu9Tu3jk6nH7t6jxwR8cF1/PBE+NsNILo8Nn+I/wD5eMy/qhfEY4JMzMkzN1wXlHcZZ3ZBHqOz7uO6IeLq+JFAddPiGII3aCySJDLVQ6h2zMI3nZxHoh3BBZZZwFllllnDw8GfEkzwcHJxfYXpet4nIERHGcJ1DpunzZLaRBdtmeC8o95DoJ6/jIf1T3pLzxei8JlPubylu03jZe5fx7hjzx6jvuIj9R5t46/Dt522F523vn3bbl7/AAd5S/mWPM9cp7ty8PD44B8vGScb1e8jg4/UWQbdBup4GF1Pp7W6tkDbJNDLb4A+LOrJNkkkk4fM2SWWQQiCDuyPV21nm8ETo7/UXypiK0bR9WA74jAtF7gKaMtiydTuhZokhDiO2IaQ6urYLILLIIIIPwSZJmZnh6/A4PMG8fI/d6fd68PCI4EGAB1Zy3jdE+r2Xnef7meC87/9rqMkcSvuXZvPh24PBn7lszMzw/h3H+I83rYciCBJXWQP8XiPO31ZObx5v+beuvx371vPPu98Z+e5x78cbb/fC5PiC7Z8fl7zj/cPfAcdbEHUXhdBEdJnJXr7kbpe+ALLOrJ8ySSWcCMklnAQ1giCCHhd92gPBqeoEbDidJ0DEnDKjvxMaX6QlNGe8IGoD5bLW3DgNOI7g7jvqEOoLO9gssiyCLOM4ZmZmfNs3rkiOHVj3G8XKQcCPxeLPveTa1eD5ngbzuwu+r/EgnT8eZjpdvwmSbGSbN7ukvc3uRXq298e+B6iHqMjqPP1EZkEPfc/Zw+YdI88d3i8XrnP/Bv4AL3YTZx/E98PDeBy3TZ/B7vdnex2bwGvJ88Gh0xx4H7mA0ns0jjNRu067kDuOhZZJPmQkkksySSSeMvKDCIhBeM9zp/iOAqORtFO98EjdPcmMy3cZGJ26hAdGHbBMTS2LYSPDyjDuCPiMOoLIsss4PxZmzgzLP4jERx8yHiCcxF4RHiyeS6sHbOXacWeA7vO8Mh14njZbhMV6t93Sb9J6mHmZlnk9F3y879S+o7eDxEW2xfqbe+7z6sL7hvV5u5zL3efd54743jbt/HwXV6vMy3r7v3erud/jjr3x649Wh5nDzHaEzq+eBwRe+uAs7Ot79SZa1pfl2Xs+I1O/M8eKC6HDxsLA6kkcCTGSThnUn1JJJlkGQ4B3EL1ax+LJ3GQiTABHCMeLuDjKhmSJPHHR4Z8QEj0y42H/NuEPmbr4vCfMefqMerwgiznLPx2ZmeDM/mRF26j3eZG8eQREcPLws0esva7Z8kp6m3vjy2+d1S75PV7y9u/wis9S9z4l8X7u0+LLy2rH8siCIjzEebPHG3y+58fdl55749cPXGXj9W/F55du9vq8FnUcscvOzuWB4Th1r9SOup+ndv56lXe72luHJEc7ZB154/3WQ9dWz33dmXrNvAs7izxOcxRYstbak+JDpLLJ7cEkkhZZ3BBwHLq/wBXcN4BB1MB8fV3CGZZZnTZjel5nHx+5E7lf6tqu0AR6h0ie8MvNh23Xq8o83pdyEEch+LwzMzMszbL+JbF5d3wu/rj63l+AIvXLeMxMuwe599cWXu9QdR/zHYb/G8jLd6vV8Xml0l+5ZLLqeDPnue2fMs8W6z3fu/XPq+iIjzBFkRvi23j3x1t144/j8d3jDOPVk+XkvXD1bE+Z6JB09Tg9kDrFn4iW8YWnt/Er9/hoG2y9dn9R8/3F6bw2biI83+bzyOPYNjuPcnl1agM/d5eHmyJyB5nDo/UzmZ+7S+PNmP2dy3Tq0VmJPaYlhJJZxkEEEFnV0OE9OA9bxbwJI2E0kw9T8SrsyzJQzbqN18xDd83aYIHmHcOL55n64fqOPfOfizMzMsszP5EcfIjhdOBjhrO4i9WcvC7kn2bO8WbD44eknmIOkwS7PdMz9y/pveXcwGUzLMz5lnuePN44C8REDxt5RB3f1xnfP8AuPu/c+fw1vP4+uGPEdPH76vLDu38O/xI+J20CfO/pKvar+23zeLXzzvdvvZfdrLkJj09yw7L3BeeAx6siMjzH6j5jsfq8D59w7t9daw+rz4sl+e7q3IbAtRGN7kfuzJ4W1+JJ+k9OpJJFpJJe73HAjhs/v8AiN8eG2rqQ6WWSSsOmVAaTp6np6tZr1Ch+gxdELJ1DFPivCOo8Mh4PzeGfEssszPD+JHDyvXxeQQvU4HAj8i6uxPF3uHzdJ4yDgO4h1J+Eu36vLD1dp4LPm8J+5nzPBeRtNnn1wQ+o4HdkeI/DZj83jz44bHpBJeNfQXcQZT02Wd6/gvadu99tnfrhR4/3b/mQvM/fiX4l9e5GyA6l/dq/wAye+7M83ViLD/iO2OvFvHT8DqPH3HiI7r4IOuHlv31HQ8fDH+WOF0IxjHuV6JkZks+7JiTE9ScCR5iCCI4Xhu/K0GwYdLJJs6mIdMzQ6fDaBdjOzGEDb6YD58T/vcH3Lr+BH8D8t4ZmZ+Zmbe5fi98kRH3EPCHZevA+IjgRFnXDKfTL3dXk9/uXB5IerJCOD9WGPmers+93N9XhM8GbyxmWe58z5vbPmfr8juIiCLGL3PCbeODnzKHT1+5+B/dn5ef8SXpb4A+LX2SLH+lr2t6tl+ePPG5bdSOHosX4maebV3bsPNp3zG5+1meoD5ut8k+fEeLPq8EtOCLN7jxfcHXy3nIPMbB3DV+oh3HrvwN4cyPtA64Tx2x8M6d2jt3MknCSSSayQ3gcQQ7vDgJLS+d7t/2s5eVq2w7yPVkknCbMQ8+5WrPyXYyFjmOw6HhHNWV0d+7e5eLyjzdmLeCGOCeGWWbYSzLPC/iRHmGo2GN2GXzh1wIO44OfCbySX4JPrvbr1J3P4C7uwcfuGC6kvJjj3d7y4M/u8upJe57mZ88PO8HCMyyCODgveTFs/Jerp8vvZfwSvjCW9p1TXf3P6vHrs46l/DTJcg+tles/mFZpw6eJXev82A42ICwK+O51b5rdj+ryzDJB/1M8/HXuHr0JbJfzYqfcefovPjqdy6aW9dxHiI8XuG++B+ovIi85YOv5l1P1Cb6Reh7mEGd27yzJM+YTMkkO46iPFkStsw8oerzC+N7ugjk8jSZad2FCy8luWgGHu7Fors+7e7stcg8nG28bzsy8LPBmePr8COAdh0XiYdF4wjgRbHCzLHJ2y1f7n9S492cDjHp1v6j/RPV9T1yZqXjw/a0dy7dHbwvDhll4Z59cZBHXAL6iPuOPC8N2Fr5yzPufBJgSXhL3tr5W99+LQXUydPC7OjvqXp8e2V8+79o799/NjrvxZpm9wfa78QYdFp/7te4CA3Dz8XYHyepAabafGWj0Wr5yz5S2D/M9oD2WDxETeBlm/Ej5vVF59xCt378fZB8RHiDgr+zOHkkdjG7M8sABzDLTEXzhp83a23h5ZmSTqdmSSyCOHgstce4tvW7R4E/JIbMUDHiZh2WTLLDzlrK2bvkm59yjuHLbYbeD8GZnkyzLbt44OSIeLTCBp6I+Nh1wI4Efg3gz8TnVsu59uWifE/gHWD9nmGD9T1fLed5cz47nzeE8GZ+7V/V7n8SzuOogg7BAwdR0THi+uFzj/UoeyQHuTPN5MNJezfpt118z12yZ8fzfe9QC+7L6tvWB8MPy79yd7WDzfNm4H+JL6nfQGfN7AtX628uz9XR+fuwgPiz1mt7PnjN3gMdi7vVnzZn88HgnHbDrZPmPOxCnu7eNh7jzs9Ee79xm8GiNgHcxsjVeu8Ax2iacNt/FmZk6sk4I4RrqWvPm75w88sH9pDDh5ThJtCNw6dpOvYjHKXW3ufZ/Vjn+bYlFsNtsNttv4LLLMyzM295bHBwIXdsd7uoIdQiIjg4ZZ9WD7tFLt/c+5/Dqx6M381462in5f6495d3ab5Te09T4k2fE+b3OTwXu8xDHceO71feI8/g364bba5pfmV9wZ4s+u/uSQCDe12Tn2XTuTr32/dg+P3fB3dvWP3OW6fxKvthf/27YN36u1gg2DL0rJ1+7qR7bPDvGbfdnzxn9R3Zjsmt58z5l3PYkmdSDLTz5jgjgcY8+LyXgT3F5S+Jdm+/F1GJnqbncog8B8mJv3bw8JMk9MzZZwXqev8A2zrfu6hdJdfiwf0jxw8vD4kkjS6X9gJViXlKW2Vgw2xwDbbbDDHL4mWZmeC3uY/3+AwwhrxPAQzLwIGRF4REcbPm8Z47Osl2PV7y/h5x3xdl/u6u7BL67ldXJJ4LPjh2nd7mep74ey993qx47yCyCIi9l1F5nvj6vLeLeeTZL13tgHd+kaGGMsupuyet7+bX5e7Pmz05BvucHNjHxdWbGdt9OZPV77s7g7kLNi8SH82dcJ/Fl/HVnV66jTNNvuJDepZ4jzKJ98P7g79xEeePLgdo4O/Pi9cNZ5vEfdgO+NuqWRiHI1EduBDv98N2bZn8ttuxD874PEOR0n3DBDhtsbZ5dJeAFEG04tfV6M4r3HmHufX4yB3DDHA9W8LM8LMzwfM3qOSCHcHeiGnccSB1zERERwz5vFsHN7Hi7re0/jHhHR1jLEfiRwfq83L2eTy4PzeV4T5mWZf44S36snxHHrYIR5vLBkeIg6v5s4eGeu9z6mnXmfp3du1tcnV4ef6gszz+yRH4vdr245EPbBvxe7Nup832xJn9TMF45yA7m69XmfXXRw3s9X6nmAz7IXh4jt26+ZfcdkfVkRFsB1jhfBF5Tl4e26P1ZhA8x1gB2wdg75IL4yB13Yw7ge2znmPtd+GzNvDxv3LhaH6u+fi0A/PURxe9MhgfAcbwoPcBJs2PmA+7CSfmPPMkj8R/E9QvKIjxwbd7fZxkG2HjfwfEt0OmWZmZ8zvBHHlw0bO8cbwLy4dmCI5PDeLPKtX93beD/nkj2dXb/JB6Uusd1/c0Xj7cB3PieHb3J8XSZnzZN928EeYd4IP7jq+oi9RwnGTZnX3I+L0jbnYk02wF6WXwR7zNnXdy+NkAdTum85DcA19wB6j/AAWvosvebwm/dkF6zh6Lbt8E3m83QeJcejqOIb1YB+dl0+Lz++PUbfsXzDGWeIcsjcjzsGR0fq0v2sMT4LeHmTJRLADD+YA+bJzx+5B6Wx78W86c/nZbyiSs8gfN2a9IM/8AcPDt/uT1mWhrn92hq6RPe9QH3ZfvhvGzwsu2eS8XUM/hdC0G+yBD8k5hHzeSEc2y9yb5t/PA6/Mb9z083yNtvexOrGHbznAIPHA5ZPADfN/ZdEMMPO2yzLLLMtvDN74I4bN0bdJdRw6cPKCCIt4Zlg2L+rZT3K8p5Lu30XV34sKu0+urs/qZwboa8i2fcvd4WTeHc43qfwIPiPEeeTxF4ceDheFeOokQdt7LsPj6jE+be71F2t2emRrsmO65J9iXG0+O/wBX0J+5SA88ZDdBsPXjI+bNdZQ16/q9Qv6us0erwePMa+TJ2R/u1X5sb50hngjmk8XS+eCQdYOjZ1A8hLem8keeo6N49Q6eu70WD3IfEDe4B0dkr7+rq8w9/wCb9rzv2hcBe4Q+W7XY/tHffNiH1J04X77Rux3aGrbw8Mu34IaI5iL6AYQN+EAeYt82tq9M/fc67u/u+SS6B7+bffcIJYdWg74tPX8w7XyeeIQREiF2+zrhXTG9LDD1bbbbLL3nDLLPC/kOoxdde4k3LxfkR2g/Jn1bq0fud5Xvkcu/6tafBl8DOphE+36n3YPF4T2z1P3P1ftKfeTuTMs/5tnvj1ZMORH1weIPEeI52Xq3q/d7+76ZZtlsHDrJFdzR8zsH3kDrsnw4WBr1a75z5L+ax73EgJ1h7y3v4nyGXQd2HmyzJOADyyB8aSH4dZwMyeBuvxHVhtmOQSHyWEMH9QD2ELoT8m5bNh0M7h3panhtzPYR4v8AUeY2PTTw+7FvzJOq/AeOC4LqFY8dxChv38XV4hnn/MLYB58+rV092IxCH7h/Mhd11ud/v1YjY+E9zPiWr/qOzwQTxG6HEabqj6kd7lJ5lvueDZ78w22yyL9XdR+L2QQgmZe47figDHGyyyzLNrh5PFkQfMNjdxeK0CMIQhyZH5H1KHvS7pwfN74L4Rf198BhjPV5Vn/m8+DPifHIzMzwyQWfgedsjgss++Dp8WyzNtnvzGhrZlr0lum6ZHbXsgMmSsxfuWhjbXHpkfLY8NYFc1PuEe/NgvLxZV2wCzf1JLHM39er17strvg9zlE+OyflOfTfQ/1Gp1lshm/cF6z1dOAy/XDnQ2V4ORp07YHglNyDsvK6ipIcAfEwEh6gjf4j4DFsOS+T/OQhGdC7WE3SEudBdn/V0+X9QPGGD7svqTY+D+Sfr1+pyrK7lHruWeY66hEw74nH3anmHe/d5uk/AevqOv8Am8OBy1HzIPM6tt+7beNtttl64d9vnJ3EHzHSSSTgQyfO8sLDberZZ5LOv/CM62fiz7uoijtBCEER+DMsd/yUvOeJy/h5Q1m8fEOn3ei2b1+pe7vdGb4Sm/0vKWZsnLR48O2nxbvGww93R1LYd92zwuWjbkvu3TZf/wAuvLL1r4sx5+ZB9XlJO193n1PT1Z7zWSherOvF+1mMD4sOuur/AHx13HTO7kAkdWw+IPlg+58FmvfV9iwZ8ZnmzrdMvPqTrJjcvLepNPH8zt4/qH0Zi49fd6JRkEPE9NkO2bH+IjxLbAyzifdqO87y17/3dBvN0QB3a8IDgcWOLr1w4OBsD3k2/Eoe4sGNDvu3ITPN1dSvl+o4WxKJttvO2/g+OPled74BkJj9JJJtyMvB8TdMQZnq3u2ZZeH8Q3jvbY51ZO3TGEEEEIgg5Z4PH+r3PLPVvOXg4HZeYy5+2OH6sF/c9b73JdvDyl3Lisp7k6yfOeJ6Z88t7tjuLzwRfzHiI6t08W5PaXLdltntss1b423q7s3vUz4tV29Zk6dpDTqx3MgyPG26PVhgR+/d7svRsQMb26dR46s3v/E+Eyz5g+sl8yc67fVudLPnxPzn93U+ogOj5PdleWfNluEGdR1OfNt/G8Y5aauyw6epIJ1HtLeNI6e+rqD/ABHfA/QGCPN8Lv1l/ibdINmeIWkMgzjOAs7k4SS1jTMunGU8ZZJG7PPcSbsur1evMHbwCIiIbeB52222Zywb392R7hpBJCSGM3uOr+n8FSbw2z45928nBedtlpmRWGQ6OAiHAj8GZ5Ydl2P76l2+rznn6vK7NtlHD9F2x5Ls+Z9/zwe+5TeE+bpMnxeZm2f8ceuNjxe+PEQYYfduw9W5LuS227aHxpK4XpBef19Wb3BvgzuxDz4+o+mW6v8Ad17ZM6evE01Af1eDPbP9A8x3GF14s16gCzqDrbD2wGrC6AFyxIsBq7dIf2tkBufV5XxPnGsL1Wv3Mv0dTFCZ1B198M+7z6g78fzZ9cZLu+mVzqx87HfrqfYh5yQ8eSYmLuWA8bHRyPYl3H6tMPUF0vLqDqLzweeGeHhJIQm7dtmPiyn3fxFHq7vPzKPMcC3jeGxb+D44vD9y83uMEGEkkJJJJODHCRY6xFtlnEstvfBvBCOHj4uotC7OPb8AI8xyts3jPI0U2W6vafwHd5f4tAf5ntfiff7vi93lwXXUyyzgsJ7lmZnq3Sfw22G2GFt/uOlsO27L3bwxt2l9epdbMvd/EDJZ9WPqTuz+pLQf+oHCb76kHjzFD+7Ot0GxHXf6sBkH9cBvq8LfAPgQoIdfF4eCA++4HZ7/AH5vHz3KuikP5jLEvqGDDPAcebywhBq0+rrPMBrPLwyaZIuv8w4O5kb23lH8w4/VmB8MJYVveEfhHs17PIXjEQ7jvj3wc5ZZJZMkkPnCSDLuJ/vI0fDLw+M9WsIjhvXG28DbxttsvFeSfhHLlkncJJJMnkhxBbHYbZZbfw2Iu8Kr8XxXUfN6MjCF4cBF7jj1y8dA+ZL/ALXfTg3q2Lzi6H82YZa/qJbZb69d3W8uCy3ae/1dv5l7l8svczLL1w8b1xtsQbdbchz3w1tyXLsd3Rtwt+Jn2j+BC1gSK9WSfcZ4s7s8WesinM7+rOzpj5jYmrHXDq903D3fqzbLLM6h+4gd/bJijBL4j+p3lA11n3YPD+ozy2Wa9yYSu+bOrMLV7xThA1YS3N85efUbndhBHT/NvWj9QeY6IR/Vo9ONknZ5v5wR4iG3gy14x1P6b1yI+/wC38WZkvPiySTrgEdXh3DvfzwHqHuIjv8ADxHG/gzLocCB5h1BZJCSHcnUn1ZJnBCE6btx4b1a228b3DwN5XQX1WLdEPwBKOo/B4ZdWWNnq+p6fzPifPJ5vKHZ7vAv7mju7tLcM8Xuz54eUsm7cPOZ+JmUtnxb1xtt4t4HjeCuxfeXbGS++N7vcYYF7+rPjw+oJNf6iy6F28XqejxZdvJ3IHvqz0Ws9bHju8GQm27wjkB29+JQyUTBfGR+Ha+7DcfPxeG/EGkvBzTyHqwO+5DfuCfd4P8Amyfl8T2+Xtgfi6vnqMh13n/N37be7ds66JPLPPr1PHMvDHyf6iyZxGuk3o3+PFvEmPi6+h/1Hr8AfX4eo/B5zDxhPCSQkyw8Q47dB36h6jgRbbeeD8SbN4N2dvK8bxjhJIdzEyZJOpONjoR2vhinbhu86RbHA7hni0S6puo6gh4DwI4OHhl027izV6bo5xeTLo3YZ4st/Ui9+oNfqXu7/Mv7mZb5mZT42fHC5L1LrLbNttvVrYXbYYS3bYerbbu22XqW2Dojx4zjx4h678+57vf1Hiz3dPbfxk/Fne/Em7/cJ5OzyWQTwZmdQB0NiOaNnXmdB3n/ADO+NgT9Xg6tb0O3uxPPContsvvV8mEHr2+rfNiRpe8sI9f3dB8X2SI1D6loZ4g0nA+4aeP6s4OrOoeBu8ZY+pEB593iYt5Mnvk889Munnv1dTNi8o4ER443jThnhbPuyZkvG84e558nf+ICdQyhtt53jYbeVlLP1PuXKHXCWSSbJPTqSEnczLwCe463Xyx0iEZttrDncu59jegR6LxiPEcDkPwZ4Lptl8Xml7S293q2Lp1EUTy3oPVh8Jm+f4vJJyzwyype/MvU8K2WXuf3Mym2y9W22298DkdrY7ZwNrbb1M3q2YWsbvfi6H0jWZ/mDkgp05Y4WOddsCeXbJhQNfLebxYU/wBwbp2+fd8sXIdCer79Sz334MtJjwgRbVX/AIRiXzFfBPsofDw5luueCcFfTzew13zam+H5kHrYC+tgw6f5LWDQgHj+7e+Pd608Qr04sA9XaF8wm3cfTEOzq9xwfhgYb+/1fp1wGUNt5i3qOdtmZ5ZeByeMf2vGk71DssibbbbbxtvG8Kc9dn3w6Z88DhmZkkhCHWSScHxw/aOnmNnbBODYYe7e4Zy8bPQbxvCIYiOBH4NnBdo8FlrvxLpm8S8vEw0PuOB+bC7E8ZwLeku5ZbbkpdfqUsussvcvDZbXuWW3M++Ntthh26YRLpdvVpPBa293//4AAwD/2Q==;" vertex="1" parent="1">
                    <mxGeometry width="1600" height="1200" as="geometry"/>
                </mxCell>
                <mxCell id="3" value="" style="ellipse;whiteSpace=wrap;html=1;aspect=fixed;fillColor=none;strokeColor=#FF0000;strokeWidth=6;" vertex="1" parent="1">
                    <mxGeometry x="890" y="334" width="296" height="296" as="geometry"/>
                </mxCell>
            </root>
        </mxGraphModel>
    </diagram>
</mxfile>